<svg
  width="63"
  height="63"
  viewBox="0 0 63 63"
  fill="none"
  xmlns="http://www.w3.org/2000/svg"
>
<rect width="63" height="63" rx="31.5" fill="white" fill-opacity="0.1" />
<circle cx="31.5001" cy="44.5665" r="3.26667" fill="#A8E543" />
<circle cx="21.6998" cy="21.7003" r="3.26667" fill="#A8E543" />
<path
    fill-rule="evenodd"
    clip-rule="evenodd"
    d="M31.5001 13.9414C31.9097 13.9414 32.2922 14.1461 32.5194 14.4869L35.786 19.3869C36.1613 19.9498 36.0092 20.7104 35.4463 21.0857C34.8833 21.4609 34.1228 21.3088 33.7475 20.7459L31.5001 17.3748L29.2527 20.7459C28.8774 21.3088 28.1168 21.4609 27.5539 21.0857C26.991 20.7104 26.8389 19.9498 27.2142 19.3869L30.4808 14.4869C30.708 14.1461 31.0905 13.9414 31.5001 13.9414Z"
    fill="#A8E543"
  />
<path
    d="M38.0332 24.9669C38.0332 23.4269 38.0332 22.657 38.5116 22.1786C38.99 21.7002 39.7599 21.7002 41.2999 21.7002C42.8398 21.7002 43.6098 21.7002 44.0881 22.1786C44.5665 22.657 44.5665 23.4269 44.5665 24.9669C44.5665 26.5068 44.5665 27.2767 44.0881 27.7551C43.6098 28.2335 42.8398 28.2335 41.2999 28.2335C39.7599 28.2335 38.99 28.2335 38.5116 27.7551C38.0332 27.2767 38.0332 26.5068 38.0332 24.9669Z"
    fill="#A8E543"
  />
<g opacity="0.5">
<path
      d="M31.5129 13.9414C31.7773 13.9441 32.0217 14.0306 32.2208 14.1756C32.0176 14.0279 31.7709 13.9441 31.5129 13.9414Z"
      fill="#A8E543"
    />
<path
      d="M32.5055 14.4662L32.5195 14.4868L32.5241 14.4938L32.5055 14.4662Z"
      fill="#A8E543"
    />
<path
      d="M31.5002 17.3747L32.7251 19.212V36.3864C32.9232 36.2854 33.1307 36.1982 33.3464 36.1263L38.6791 34.3488C39.5128 34.0709 40.0751 33.2907 40.0751 32.4119V28.233L40.0752 28.2187C40.4189 28.233 40.8225 28.233 41.3001 28.233C41.7777 28.233 42.1813 28.233 42.525 28.2187L42.5251 28.233V32.4119C42.5251 34.3452 41.288 36.0616 39.4538 36.673L34.1211 38.4506C33.2874 38.7285 32.7251 39.5087 32.7251 40.3875V41.5371C32.3468 41.384 31.9333 41.2996 31.5001 41.2996C31.0669 41.2996 30.6534 41.384 30.2751 41.5371V35.4875C30.2751 34.6087 29.7128 33.8285 28.8791 33.5506L23.5464 31.773C21.7122 31.1616 20.4751 29.4452 20.4751 27.5119V24.7289C20.8534 24.882 21.2669 24.9663 21.7001 24.9663C22.1333 24.9663 22.5468 24.882 22.9251 24.7289V27.5119C22.9251 28.3907 23.4874 29.1709 24.3211 29.4488L29.6538 31.2263C29.8695 31.2982 30.077 31.3854 30.2751 31.4864V19.2124L31.5002 17.3747Z"
      fill="#A8E543"
    />
</g>
</svg>
