<svg
  width="63"
  height="63"
  viewBox="0 0 63 63"
  fill="none"
  xmlns="http://www.w3.org/2000/svg"
>
<rect width="63" height="63" rx="31.5" fill="white" fill-opacity="0.1" />
<path
    fill-rule="evenodd"
    clip-rule="evenodd"
    d="M35.4964 38.6493L45.0462 29.1281C46.4216 27.7569 47.1092 27.0713 47.4715 26.1995C47.8337 25.3276 47.8337 24.3581 47.8337 22.4189V21.4925C47.8337 18.5106 47.8337 17.0197 46.9045 16.0933C45.9754 15.167 44.48 15.167 41.4891 15.167H40.56C38.615 15.167 37.6425 15.167 36.768 15.5281C35.8935 15.8892 35.2059 16.5748 33.8306 17.946L24.2807 27.4673C22.6736 29.0695 21.6771 30.063 21.2913 31.0225C21.1694 31.3257 21.1084 31.6255 21.1084 31.9401C21.1084 33.2501 22.1658 34.3044 24.2807 36.4129L24.5649 36.6963L27.8945 33.3171C28.3693 32.8351 29.1449 32.8294 29.6269 33.3042C30.1088 33.7791 30.1145 34.5547 29.6397 35.0366L26.3 38.4261L26.5238 38.6493C28.6387 40.7578 29.6961 41.8121 31.0101 41.8121C31.3004 41.8121 31.5782 41.7606 31.8577 41.6577C32.843 41.2947 33.8488 40.292 35.4964 38.6493ZM39.9829 27.468C38.744 28.7031 36.7354 28.7031 35.4966 27.468C34.2577 26.2328 34.2577 24.2303 35.4966 22.9951C36.7354 21.76 38.744 21.76 39.9829 22.9951C41.2217 24.2303 41.2217 26.2328 39.9829 27.468Z"
    fill="#A8E543"
  />
<g opacity="0.5">
<path
      d="M26.6558 21.6398L22.502 25.7812C21.7385 26.5424 21.0381 27.2406 20.485 27.8718C20.1298 28.2772 19.7749 28.7209 19.4742 29.2111L19.4337 29.1707C19.3569 29.0942 19.3184 29.0558 19.2799 29.0184C18.5579 28.3178 17.7086 27.7609 16.7776 27.3773C16.7278 27.3568 16.6773 27.3368 16.5763 27.2967L15.9578 27.0517C15.12 26.7197 14.8967 25.6411 15.5342 25.0055C17.3639 23.1814 19.5607 20.9912 20.6209 20.5513C21.5559 20.1634 22.5659 20.0343 23.54 20.1783C24.4326 20.3102 25.2769 20.7687 26.6558 21.6398Z"
      fill="#A8E543"
    />
<path
      d="M33.7484 43.445C34.0832 43.7848 34.3055 44.0247 34.5064 44.2811C34.7716 44.6195 35.0087 44.9789 35.2154 45.3556C35.448 45.7798 35.6286 46.2329 35.9899 47.1391C36.2839 47.8768 37.2609 48.0718 37.8283 47.506L37.9655 47.3692C39.7952 45.545 41.9919 43.3548 42.4331 42.2978C42.8222 41.3656 42.9517 40.3586 42.8073 39.3874C42.675 38.4976 42.2152 37.6559 41.3417 36.2815L37.174 40.4366C36.3932 41.2151 35.6772 41.929 35.0297 42.4882C34.6417 42.8233 34.2172 43.1582 33.7484 43.445Z"
      fill="#A8E543"
    />
</g>
</svg>
