<svg
  width="70"
  height="70"
  viewBox="0 0 70 70"
  fill="none"
  xmlns="http://www.w3.org/2000/svg"
>
<rect width="70" height="70" rx="35" fill="white" fill-opacity="0.1" />
<path
    fill-rule="evenodd"
    clip-rule="evenodd"
    d="M35.0002 18.666C35.6995 18.666 36.2664 19.2329 36.2664 19.9322V24.9976C37.1933 24.9996 38.0341 25.0059 38.799 25.0269L38.7987 24.9968V19.9322C38.7987 19.2329 39.3655 18.666 40.0648 18.666C40.7641 18.666 41.331 19.2329 41.331 19.9322V24.9968C41.331 25.063 41.3259 25.1281 41.3161 25.1915C43.0148 25.4002 44.1919 25.8323 45.087 26.7274C45.982 27.6224 46.4142 28.7996 46.6228 30.4983C46.6863 30.4885 46.7514 30.4834 46.8176 30.4834H51.8822C52.5815 30.4834 53.1484 31.0503 53.1484 31.7496C53.1484 32.4488 52.5815 33.0157 51.8822 33.0157H46.8176L46.7875 33.0154C46.8085 33.7803 46.8157 34.6211 46.8176 35.548H51.8822C52.5815 35.548 53.1484 36.1149 53.1484 36.8142C53.1484 37.5134 52.5815 38.0803 51.8822 38.0803L46.8168 38.0803C46.8148 39.0072 46.8085 39.8481 46.7875 40.613L46.8176 40.6126H51.8822C52.5815 40.6126 53.1484 41.1795 53.1484 41.8788C53.1484 42.578 52.5815 43.1449 51.8822 43.1449H46.8176C46.7514 43.1449 46.6863 43.1398 46.6228 43.13C46.4142 44.8287 45.982 46.0059 45.087 46.901C44.1919 47.796 43.0148 48.2281 41.3161 48.4368C41.3259 48.5003 41.331 48.5653 41.331 48.6316V53.6962C41.331 54.3954 40.7641 54.9623 40.0648 54.9623C39.3655 54.9623 38.7987 54.3954 38.7987 53.6962V48.6316L38.799 48.6015C38.0341 48.6224 37.1933 48.6296 36.2664 48.6316V53.6962C36.2664 54.3954 35.6995 54.9623 35.0002 54.9623C34.3009 54.9623 33.7341 54.3954 33.7341 53.6962L33.7341 48.6307C32.8072 48.6288 31.9663 48.6224 31.2014 48.6015L31.2018 48.6316V53.6962C31.2018 54.3954 30.6349 54.9623 29.9356 54.9623C29.2363 54.9623 28.6695 54.3954 28.6695 53.6962V48.6316C28.6695 48.5653 28.6745 48.5003 28.6843 48.4368C26.9856 48.2281 25.8085 47.796 24.9134 46.901C24.0184 46.0059 23.5862 44.8287 23.3776 43.13C23.3141 43.1398 23.249 43.1449 23.1828 43.1449H18.1182C17.4189 43.1449 16.8521 42.578 16.8521 41.8788C16.8521 41.1795 17.4189 40.6126 18.1182 40.6126H23.1828L23.2129 40.613C23.192 39.8481 23.1847 39.0072 23.1828 38.0803H18.1182C17.4189 38.0803 16.8521 37.5134 16.8521 36.8142C16.8521 36.1149 17.4189 35.548 18.1182 35.548L23.1836 35.548C23.1856 34.6211 23.192 33.7803 23.2129 33.0154L23.1828 33.0157H18.1182C17.4189 33.0157 16.8521 32.4488 16.8521 31.7496C16.8521 31.0503 17.4189 30.4834 18.1182 30.4834H23.1828C23.249 30.4834 23.3141 30.4885 23.3776 30.4983C23.5862 28.7996 24.0184 27.6224 24.9134 26.7274C25.8085 25.8323 26.9856 25.4002 28.6843 25.1915C28.6745 25.1281 28.6695 25.063 28.6695 24.9968V19.9322C28.6695 19.2329 29.2363 18.666 29.9356 18.666C30.6349 18.666 31.2018 19.2329 31.2018 19.9322V24.9968L31.2014 25.0269C31.9663 25.0059 32.8072 24.9987 33.7341 24.9968V19.9322C33.7341 19.2329 34.3009 18.666 35.0002 18.666ZM33.2287 28.7952C32.1062 28.7952 31.1391 28.7951 30.3647 28.8992C29.5347 29.0108 28.7391 29.2625 28.0938 29.9078C27.4485 30.5531 27.1968 31.3487 27.0853 32.1786C26.9811 32.9531 26.9812 33.9202 26.9813 35.0426V38.5857C26.9812 39.7081 26.9811 40.6753 27.0853 41.4497C27.1968 42.2797 27.4485 43.0753 28.0938 43.7206C28.7391 44.3659 29.5347 44.6175 30.3647 44.7291C31.1391 44.8332 32.1062 44.8332 33.2286 44.8331H36.7718C37.8942 44.8332 38.8613 44.8332 39.6357 44.7291C40.4657 44.6175 41.2613 44.3659 41.9066 43.7206C42.5519 43.0753 42.8036 42.2797 42.9152 41.4497C43.0193 40.6753 43.0192 39.7082 43.0192 38.5857V35.0426C43.0192 33.9202 43.0193 32.9531 42.9152 32.1786C42.8036 31.3487 42.5519 30.5531 41.9066 29.9078C41.2613 29.2625 40.4657 29.0108 39.6357 28.8992C38.8613 28.7951 37.8942 28.7952 36.7718 28.7952H33.2287Z"
    fill="#A8E543"
  />
<path
    opacity="0.5"
    d="M29.884 31.698C29.9804 31.6016 30.1525 31.4824 30.7017 31.4086C31.2873 31.3298 32.0821 31.3271 33.3116 31.3271H36.688C37.9176 31.3271 38.7123 31.3298 39.2979 31.4086C39.8471 31.4824 40.0193 31.6016 40.1156 31.698C40.212 31.7944 40.3312 31.9665 40.4051 32.5157C40.4838 33.1013 40.4865 33.8961 40.4865 35.1256V38.502C40.4865 39.7315 40.4838 40.5263 40.4051 41.1119C40.3312 41.6611 40.212 41.8332 40.1156 41.9296C40.0193 42.026 39.8471 42.1452 39.2979 42.219C38.7123 42.2978 37.9176 42.3004 36.688 42.3004H33.3116C32.0821 42.3004 31.2873 42.2978 30.7017 42.219C30.1525 42.1452 29.9804 42.026 29.884 41.9296C29.7876 41.8332 29.6684 41.6611 29.5946 41.1119C29.5159 40.5263 29.5132 39.7315 29.5132 38.502V35.1256C29.5132 33.8961 29.5159 33.1013 29.5946 32.5157C29.6684 31.9665 29.7876 31.7944 29.884 31.698Z"
    fill="#A8E543"
  />
</svg>
