<svg width="70" height="71" viewBox="0 0 70 71" fill="none" xmlns="http://www.w3.org/2000/svg">
<rect y="0.0488281" width="70" height="70" rx="35" fill="white" fill-opacity="0.1"/>
<path opacity="0.5" d="M35 53C44.9411 53 53 44.9411 53 35C53 25.0589 44.9411 17 35 17C25.0589 17 17 25.0589 17 35C17 44.9411 25.0589 53 35 53Z" fill="#A8E543"/>
<path fill-rule="evenodd" clip-rule="evenodd" d="M21.05 36.7992C21.05 36.0536 21.6544 35.4492 22.4 35.4492H33.2C33.9455 35.4492 34.55 36.0536 34.55 36.7992V47.5992C34.55 48.3448 33.9455 48.9492 33.2 48.9492C32.4544 48.9492 31.85 48.3448 31.85 47.5992V40.0584L19.7545 52.1538C19.2273 52.681 18.3726 52.681 17.8454 52.1538C17.3181 51.6266 17.3181 50.7718 17.8454 50.2446L29.9408 38.1492H22.4C21.6544 38.1492 21.05 37.5448 21.05 36.7992Z" fill="#A8E543"/>
</svg>
