<svg width="100" height="101" viewBox="0 0 100 101" fill="none" xmlns="http://www.w3.org/2000/svg">
<rect x="0.552886" y="0.787627" width="98.894" height="98.894" rx="49.447" stroke="#A8E543" stroke-opacity="0.15" stroke-width="0.907285"/>
<rect x="19.0001" y="18.0488" width="63" height="63" rx="31.5" fill="white" fill-opacity="0.1"/>
<path opacity="0.5" d="M36.9513 36.9509C35.1497 38.7525 35.1497 41.6736 36.9513 43.4752L39.4917 46.0156C39.5108 45.9936 40.3792 46.8204 40.4001 46.7994L46.8001 40.3994C46.821 40.3785 45.9941 39.5102 46.0161 39.4912L43.4757 36.9509C41.6741 35.1492 38.753 35.1492 36.9513 36.9509Z" fill="#A8E543"/>
<path opacity="0.5" d="M39.0132 55.2923C39.2707 54.6369 40.1947 54.6369 40.4523 55.2923L40.7033 55.9312C40.7819 56.1313 40.9397 56.2897 41.1391 56.3686L41.7757 56.6206C42.4286 56.8791 42.4286 57.8065 41.7757 58.065L41.1391 58.317C40.9397 58.3959 40.7819 58.5543 40.7033 58.7544L40.4523 59.3933C40.1947 60.0486 39.2707 60.0486 39.0132 59.3933L38.7621 58.7544C38.6835 58.5543 38.5257 58.3959 38.3264 58.317L37.6898 58.065C37.0368 57.8065 37.0368 56.8791 37.6898 56.6206L38.3264 56.3686C38.5257 56.2897 38.6835 56.1313 38.7621 55.9312L39.0132 55.2923Z" fill="#A8E543"/>
<path opacity="0.2" d="M62.7476 45.4075C63.0051 44.7522 63.9292 44.7522 64.1867 45.4075L64.4378 46.0465C64.5164 46.2466 64.6742 46.4049 64.8735 46.4838L65.5101 46.7358C66.163 46.9943 66.163 47.9218 65.5101 48.1802L64.8735 48.4322C64.6742 48.5111 64.5164 48.6695 64.4378 48.8696L64.1867 49.5085C63.9292 50.1639 63.0051 50.1639 62.7476 49.5085L62.4966 48.8696C62.4179 48.6695 62.2601 48.5111 62.0608 48.4322L61.4242 48.1802C60.7713 47.9218 60.7713 46.9943 61.4242 46.7358L62.0608 46.4838C62.2601 46.4049 62.4179 46.2466 62.4966 46.0465L62.7476 45.4075Z" fill="#A8E543"/>
<path opacity="0.7" d="M56.5601 34.4915C56.8176 33.8362 57.7417 33.8362 57.9992 34.4915L58.6878 36.244C58.7664 36.444 58.9242 36.6024 59.1236 36.6813L60.8696 37.3725C61.5225 37.6309 61.5225 38.5584 60.8696 38.8169L59.1236 39.508C58.9242 39.5869 58.7664 39.7453 58.6878 39.9454L57.9992 41.6978C57.7417 42.3532 56.8176 42.3532 56.5601 41.6978L55.8715 39.9454C55.7929 39.7453 55.6351 39.5869 55.4358 39.508L53.6898 38.8169C53.0368 38.5584 53.0368 37.6309 53.6898 37.3725L55.4358 36.6813C55.6351 36.6024 55.7929 36.444 55.8715 36.244L56.5601 34.4915Z" fill="#A8E543"/>
<path d="M47.7083 41.1832C47.6892 41.2052 46.8206 40.3779 46.7997 40.3988L40.3997 46.7988C40.3787 46.8198 41.2059 47.6885 41.1839 47.7076L56.5241 63.0478C58.3257 64.8494 61.2468 64.8494 63.0484 63.0478C64.8501 61.2461 64.8501 58.325 63.0484 56.5234L47.7083 41.1832Z" fill="#A8E543"/>
</svg>
