<svg width="100" height="101" viewBox="0 0 100 101" fill="none" xmlns="http://www.w3.org/2000/svg">
<rect x="0.552886" y="0.787627" width="98.894" height="98.894" rx="49.447" stroke="#A8E543" stroke-opacity="0.15" stroke-width="0.907285"/>
<rect x="18.0001" y="19.0488" width="63" height="63" rx="31.5" fill="white" fill-opacity="0.1"/>
<g opacity="0.5">
<path d="M41.3276 43.9005C41.8245 43.4619 41.8718 42.7036 41.4332 42.2067C40.9947 41.7098 40.2363 41.6625 39.7395 42.1011C36.8349 44.6647 35.0001 48.4192 35.0001 52.6008C35.0001 53.2636 35.5374 53.8008 36.2001 53.8008C36.8629 53.8008 37.4001 53.2636 37.4001 52.6008C37.4001 49.1364 38.9174 46.0278 41.3276 43.9005Z" fill="#A8E543"/>
<path d="M58.2608 42.1011C57.7639 41.6625 57.0056 41.7098 56.567 42.2067C56.1285 42.7036 56.1758 43.4619 56.6726 43.9005C59.0829 46.0278 60.6001 49.1364 60.6001 52.6008C60.6001 53.2636 61.1374 53.8008 61.8001 53.8008C62.4629 53.8008 63.0001 53.2636 63.0001 52.6008C63.0001 48.4192 61.1653 44.6647 58.2608 42.1011Z" fill="#A8E543"/>
<path d="M46.0992 63.8355C45.4574 63.6703 44.8032 64.0567 44.638 64.6985C44.4728 65.3403 44.8592 65.9945 45.501 66.1597C46.6207 66.4479 47.7934 66.6008 49.0001 66.6008C50.2068 66.6008 51.3796 66.4479 52.4992 66.1597C53.1411 65.9945 53.5274 65.3403 53.3622 64.6985C53.1971 64.0567 52.5428 63.6703 51.901 63.8355C50.9751 64.0738 50.0033 64.2008 49.0001 64.2008C47.9969 64.2008 47.0251 64.0738 46.0992 63.8355Z" fill="#A8E543"/>
</g>
<path d="M44.2002 41.3996C44.2002 44.0506 46.3492 46.1996 49.0002 46.1996C51.6511 46.1996 53.8002 44.0506 53.8002 41.3996C53.8002 38.7486 51.6511 36.5996 49.0002 36.5996C46.3492 36.5996 44.2002 38.7486 44.2002 41.3996Z" fill="#A8E543"/>
<path d="M33.8002 60.5996C33.8002 63.2506 35.9492 65.3996 38.6002 65.3996C41.2511 65.3996 43.4002 63.2506 43.4002 60.5996C43.4002 57.9486 41.2511 55.7996 38.6002 55.7996C35.9492 55.7996 33.8002 57.9486 33.8002 60.5996Z" fill="#A8E543"/>
<path d="M59.4002 65.3996C56.7492 65.3996 54.6002 63.2506 54.6002 60.5996C54.6002 57.9486 56.7492 55.7996 59.4002 55.7996C62.0511 55.7996 64.2002 57.9486 64.2002 60.5996C64.2002 63.2506 62.0511 65.3996 59.4002 65.3996Z" fill="#A8E543"/>
</svg>
