<svg width="192" height="193" viewBox="0 0 192 193" fill="none" xmlns="http://www.w3.org/2000/svg">
<rect x="-81.5464" y="-81.4975" width="273.093" height="273.093" rx="136.546" stroke="#A8E543" stroke-opacity="0.02" stroke-width="0.907285"/>
<rect x="-55.2351" y="-56.0932" width="221.377" height="221.377" rx="110.689" stroke="#A8E543" stroke-opacity="0.05" stroke-width="0.907285"/>
<rect x="-23.5184" y="-28.0064" width="157.037" height="157.037" rx="78.5183" stroke="#A8E543" stroke-opacity="0.15" stroke-width="0.830882"/>
<rect x="5.55289" y="3.78763" width="98.894" height="98.894" rx="49.447" stroke="#A8E543" stroke-opacity="0.15" stroke-width="0.907285"/>
<rect x="23.0001" y="22.0488" width="63" height="63" rx="31.5" fill="white" fill-opacity="0.1"/>
<g opacity="0.5">
<path d="M46.3276 46.9005C46.8245 46.4619 46.8718 45.7036 46.4332 45.2067C45.9947 44.7098 45.2363 44.6625 44.7395 45.1011C41.8349 47.6647 40.0001 51.4192 40.0001 55.6008C40.0001 56.2636 40.5374 56.8008 41.2001 56.8008C41.8629 56.8008 42.4001 56.2636 42.4001 55.6008C42.4001 52.1364 43.9174 49.0278 46.3276 46.9005Z" fill="#A8E543"/>
<path d="M63.2608 45.1011C62.7639 44.6625 62.0056 44.7098 61.567 45.2067C61.1285 45.7036 61.1758 46.4619 61.6726 46.9005C64.0829 49.0278 65.6001 52.1364 65.6001 55.6008C65.6001 56.2636 66.1374 56.8008 66.8001 56.8008C67.4629 56.8008 68.0001 56.2636 68.0001 55.6008C68.0001 51.4192 66.1653 47.6647 63.2608 45.1011Z" fill="#A8E543"/>
<path d="M51.0992 66.8355C50.4574 66.6703 49.8032 67.0567 49.638 67.6985C49.4728 68.3403 49.8592 68.9945 50.501 69.1597C51.6207 69.4479 52.7934 69.6008 54.0001 69.6008C55.2068 69.6008 56.3796 69.4479 57.4992 69.1597C58.1411 68.9945 58.5274 68.3403 58.3622 67.6985C58.1971 67.0567 57.5428 66.6703 56.901 66.8355C55.9751 67.0738 55.0033 67.2008 54.0001 67.2008C52.9969 67.2008 52.0251 67.0738 51.0992 66.8355Z" fill="#A8E543"/>
</g>
<path d="M49.2002 44.3996C49.2002 47.0506 51.3492 49.1996 54.0002 49.1996C56.6511 49.1996 58.8002 47.0506 58.8002 44.3996C58.8002 41.7486 56.6511 39.5996 54.0002 39.5996C51.3492 39.5996 49.2002 41.7486 49.2002 44.3996Z" fill="#A8E543"/>
<path d="M38.8002 63.5996C38.8002 66.2506 40.9492 68.3996 43.6002 68.3996C46.2511 68.3996 48.4002 66.2506 48.4002 63.5996C48.4002 60.9486 46.2511 58.7996 43.6002 58.7996C40.9492 58.7996 38.8002 60.9486 38.8002 63.5996Z" fill="#A8E543"/>
<path d="M64.4002 68.3996C61.7492 68.3996 59.6002 66.2506 59.6002 63.5996C59.6002 60.9486 61.7492 58.7996 64.4002 58.7996C67.0511 58.7996 69.2002 60.9486 69.2002 63.5996C69.2002 66.2506 67.0511 68.3996 64.4002 68.3996Z" fill="#A8E543"/>
</svg>
