<svg width="249" height="45" viewBox="0 0 249 45" fill="none" xmlns="http://www.w3.org/2000/svg">
<path d="M204 22.5L237.75 41.9856L237.75 3.01443L204 22.5Z" fill="white"/>
<path d="M170 22.5L203.75 41.9856L203.75 3.01443L170 22.5Z" fill="white" fill-opacity="0.6"/>
<path d="M136 22.5L169.75 41.9856L169.75 3.01443L136 22.5Z" fill="white" fill-opacity="0.4"/>
<path d="M102 22.5L135.75 41.9856L135.75 3.01443L102 22.5Z" fill="white" fill-opacity="0.2"/>
<path d="M68 22.5L101.75 41.9856L101.75 3.01441L68 22.5Z" fill="white" fill-opacity="0.1"/>
<path d="M34 22.5L67.75 41.9856L67.75 3.01441L34 22.5Z" fill="white" fill-opacity="0.04"/>
<path d="M9.83506e-07 22.5L33.75 41.9856L33.75 3.01441L9.83506e-07 22.5Z" fill="white" fill-opacity="0.02"/>
</svg>
