<svg width="20" height="21" viewBox="0 0 20 21" fill="none" xmlns="http://www.w3.org/2000/svg">
<path d="M10.5535 15.0061C10.4114 15.1615 10.2106 15.25 10 15.25C9.78943 15.25 9.58857 15.1615 9.44648 15.0061L5.44648 10.6311C5.16698 10.3254 5.18822 9.85098 5.49392 9.57148C5.79963 9.29198 6.27402 9.31322 6.55352 9.61892L9.25 12.5682V1.5C9.25 1.08579 9.58579 0.75 10 0.75C10.4142 0.75 10.75 1.08579 10.75 1.5V12.5682L13.4465 9.61892C13.726 9.31322 14.2004 9.29198 14.5061 9.57148C14.8118 9.85098 14.833 10.3254 14.5535 10.6311L10.5535 15.0061Z" fill="white"/>
<path d="M1.75 13.5C1.75 13.0858 1.41422 12.75 1 12.75C0.585788 12.75 0.250001 13.0858 0.250001 13.5V13.5549C0.24998 14.9225 0.249964 16.0248 0.366524 16.8918C0.487541 17.7919 0.746434 18.5497 1.34835 19.1516C1.95027 19.7536 2.70814 20.0125 3.60825 20.1335C4.47522 20.25 5.57754 20.25 6.94513 20.25H13.0549C14.4225 20.25 15.5248 20.25 16.3918 20.1335C17.2919 20.0125 18.0497 19.7536 18.6517 19.1516C19.2536 18.5497 19.5125 17.7919 19.6335 16.8918C19.75 16.0248 19.75 14.9225 19.75 13.5549V13.5C19.75 13.0858 19.4142 12.75 19 12.75C18.5858 12.75 18.25 13.0858 18.25 13.5C18.25 14.9354 18.2484 15.9365 18.1469 16.6919C18.0482 17.4257 17.8678 17.8142 17.591 18.091C17.3142 18.3678 16.9257 18.5482 16.1919 18.6469C15.4365 18.7484 14.4354 18.75 13 18.75H7C5.56459 18.75 4.56347 18.7484 3.80812 18.6469C3.07435 18.5482 2.68577 18.3678 2.40901 18.091C2.13225 17.8142 1.9518 17.4257 1.85315 16.6919C1.75159 15.9365 1.75 14.9354 1.75 13.5Z" fill="white"/>
</svg>
