<svg width="31" height="17" viewBox="0 0 31 17" fill="none" xmlns="http://www.w3.org/2000/svg">
<path fill-rule="evenodd" clip-rule="evenodd" d="M0.902711 1.01368C1.61058 0.710307 2.43036 1.03822 2.73373 1.74609L1.45202 2.2954C2.73373 1.74609 2.73393 1.74654 2.73373 1.74609L2.73301 1.74441C2.73262 1.74351 2.73291 1.74417 2.73301 1.74441L2.73847 1.75678C2.74406 1.76935 2.75367 1.79071 2.76732 1.82028C2.79465 1.87943 2.83813 1.9713 2.89809 2.0912C3.0181 2.33122 3.20344 2.6823 3.45645 3.10735C3.96403 3.96008 4.7352 5.09582 5.78573 6.22716C6.03334 6.49382 6.29539 6.75921 6.57218 7.01991C6.58375 7.03043 6.59519 7.04117 6.60649 7.05214C8.67683 8.99078 11.5651 10.6622 15.3967 10.6622C17.0825 10.6622 18.5738 10.3403 19.8881 9.82298C21.5978 9.15005 23.0308 8.13698 24.2036 7.03617C25.5278 5.79324 26.5004 4.45687 27.1426 3.4263C27.4624 2.91302 27.6969 2.48111 27.8491 2.18257C27.9252 2.03345 27.9805 1.91809 28.0154 1.84304C28.0329 1.80553 28.0453 1.77814 28.0527 1.7617L28.0596 1.74609C28.3632 1.0386 29.1829 0.710387 29.8906 1.01368C30.5985 1.31705 30.9264 2.13683 30.623 2.8447L29.3413 2.2954C30.623 2.8447 30.6232 2.84438 30.623 2.8447L30.62 2.8517L30.615 2.86317L30.5991 2.89921C30.5858 2.92895 30.5672 2.97 30.5432 3.02151C30.4951 3.1245 30.4255 3.26949 30.3336 3.44964C30.15 3.80963 29.8768 4.3119 29.5096 4.9012C28.9482 5.80224 28.1589 6.91971 27.1236 8.04657L28.2357 9.15858C28.7802 9.70315 28.7802 10.5861 28.2357 11.1306C27.6911 11.6752 26.8082 11.6752 26.2636 11.1306L25.092 9.95905C24.3051 10.5946 23.4246 11.194 22.4468 11.7111L23.5378 13.3878C23.9578 14.0333 23.775 14.8971 23.1295 15.3172C22.484 15.7372 21.6202 15.5544 21.2002 14.9089L19.826 12.7969C18.8792 13.0872 17.8677 13.2929 16.7911 13.3893V15.5428C16.7911 16.313 16.1668 16.9373 15.3967 16.9373C14.6265 16.9373 14.0022 16.313 14.0022 15.5428V13.3895C12.922 13.293 11.9108 13.0869 10.967 12.7975L9.59316 14.9089C9.17314 15.5544 8.30934 15.7372 7.66382 15.3172C7.0183 14.8971 6.8355 14.0333 7.25552 13.3878L8.34656 11.7111C7.37027 11.1944 6.48952 10.5949 5.70166 9.95874L4.52975 11.1306C3.98518 11.6752 3.10225 11.6752 2.55768 11.1306C2.01311 10.5861 2.01311 9.70315 2.55768 9.15858L3.66968 8.04657C2.49137 6.764 1.63018 5.49184 1.05994 4.53384C0.768232 4.04377 0.55049 3.63225 0.403591 3.33845C0.330089 3.19144 0.274164 3.0736 0.235441 2.98976C0.216075 2.94784 0.200997 2.91439 0.190159 2.89002L0.177073 2.86033L0.1729 2.85073L0.171405 2.84727L0.170804 2.84587C0.170545 2.84527 0.170302 2.8447 1.45202 2.2954L0.170804 2.84587C-0.132569 2.138 0.194839 1.31705 0.902711 1.01368Z" fill="#266CA8"/>
</svg>
