<svg width="350" height="234" viewBox="0 0 350 234" fill="none" xmlns="http://www.w3.org/2000/svg">
<path d="M31.2203 93.6268C7.13829 134.101 39.7454 155.694 60.4687 161.86C61.1554 162.064 61.8573 162.156 62.5738 162.156H185.704L223.522 34.0676C204.739 1.33658 170.752 -1.422 156.107 1.29008C100.316 9.47283 85.128 57.7015 84.5081 80.7929C60.0161 70.3453 45.9347 78.3527 35.6904 88.0367C33.9547 89.6774 32.4417 91.5742 31.2203 93.6268Z" fill="#F8F8F8"/>
<path d="M80.7505 172.292H296.56C322.038 169.13 329.338 150.828 329.803 142.071C332.406 108.782 308.726 97.9806 296.56 96.7408C290.423 51.3638 257.429 42.809 241.699 44.2038C222.915 11.4728 188.929 8.71423 174.284 11.4263C118.492 19.6091 103.305 67.8377 102.685 90.9292C78.1929 80.4816 64.1114 88.489 53.8672 98.1729C52.1315 99.8137 50.6184 101.71 49.3971 103.763C25.315 144.237 57.9221 165.83 78.6454 171.996C79.3321 172.201 80.0341 172.292 80.7505 172.292Z" fill="#EEF2F5"/>
<path d="M212.264 65.1255H170.699C169.672 65.1255 168.839 65.9581 168.839 66.9852V101.622C168.839 102.65 168.006 103.482 166.979 103.482H157.258C155.718 103.482 154.845 105.247 155.78 106.471L189.687 150.843C190.429 151.813 191.888 151.817 192.636 150.851L226.961 106.48C227.906 105.257 227.035 103.482 225.49 103.482H215.145C214.1 103.482 213.261 102.622 213.286 101.577L214.123 67.0303C214.149 65.9858 213.309 65.1255 212.264 65.1255Z" fill="#266CA8"/>
<path d="M3.1235 212.686V227.059H0.7457V208.3H2.75362L14.2199 222.963V208.327H16.5977V227.059H14.4313L3.1235 212.686ZM25.97 227.323C24.9308 227.323 23.9885 227.138 23.143 226.768C22.2976 226.38 21.5667 225.861 20.9502 225.209C20.3337 224.54 19.8582 223.774 19.5235 222.911C19.1889 222.048 19.0215 221.141 19.0215 220.189C19.0215 219.221 19.1889 218.305 19.5235 217.442C19.8582 216.579 20.3337 215.821 20.9502 215.17C21.5667 214.5 22.2976 213.981 23.143 213.611C24.0061 213.223 24.9484 213.03 25.97 213.03C27.0092 213.03 27.9515 213.223 28.7969 213.611C29.6424 213.981 30.3733 214.5 30.9898 215.17C31.6239 215.821 32.1082 216.579 32.4429 217.442C32.7775 218.305 32.9449 219.221 32.9449 220.189C32.9449 221.141 32.7775 222.048 32.4429 222.911C32.1082 223.774 31.6327 224.54 31.0162 225.209C30.3997 225.861 29.66 226.38 28.7969 226.768C27.9515 227.138 27.0092 227.323 25.97 227.323ZM21.3993 220.216C21.3993 221.167 21.6019 222.03 22.007 222.805C22.4297 223.58 22.9845 224.196 23.6714 224.654C24.3584 225.095 25.1245 225.315 25.97 225.315C26.8154 225.315 27.5816 225.086 28.2685 224.628C28.9731 224.17 29.5279 223.554 29.933 222.779C30.3557 221.986 30.5671 221.114 30.5671 220.163C30.5671 219.212 30.3557 218.349 29.933 217.574C29.5279 216.799 28.9731 216.182 28.2685 215.724C27.5816 215.266 26.8154 215.037 25.97 215.037C25.1245 215.037 24.3584 215.275 23.6714 215.751C22.9845 216.209 22.4297 216.825 22.007 217.6C21.6019 218.375 21.3993 219.247 21.3993 220.216ZM41.7576 227.059V208.3H48.2569C50.2648 208.3 51.9381 208.723 53.2767 209.569C54.6329 210.396 55.6457 211.524 56.315 212.95C56.9843 214.359 57.319 215.927 57.319 217.653C57.319 219.555 56.9491 221.211 56.2093 222.62C55.4696 224.029 54.4216 225.121 53.0654 225.896C51.7091 226.671 50.1063 227.059 48.2569 227.059H41.7576ZM54.9148 217.653C54.9148 216.244 54.6506 214.993 54.1222 213.901C53.6114 212.809 52.8628 211.955 51.8765 211.339C50.8901 210.722 49.6836 210.414 48.2569 210.414H44.1354V224.945H48.2569C49.7012 224.945 50.9165 224.628 51.9029 223.994C52.8892 223.342 53.6378 222.47 54.1486 221.378C54.6594 220.269 54.9148 219.027 54.9148 217.653ZM59.8181 208.3L65.472 216.068L71.1259 208.3H73.7943L66.793 217.812L73.583 227.059H70.9145L65.472 219.555L60.0295 227.059H57.3347L64.1246 217.812L57.1233 208.3H59.8181ZM75.5834 227.059V208.3H87.9744V210.414H77.9612V216.676H86.3892V218.657H77.9612V227.059H75.5834ZM95.9671 227.059V208.3H108.358V210.414H98.3449V216.676H106.773V218.657H98.3449V227.059H95.9671ZM110.472 227.059V213.267H112.797V227.059H110.472ZM110.472 210.678V207.772H112.797V210.678H110.472ZM116.085 207.772H118.41V223.492C118.41 224.249 118.516 224.716 118.727 224.892C118.939 225.068 119.194 225.156 119.493 225.156C119.863 225.156 120.216 225.121 120.55 225.051C120.885 224.963 121.167 224.875 121.396 224.786L121.766 226.689C121.378 226.847 120.92 226.979 120.392 227.085C119.863 227.191 119.397 227.244 118.992 227.244C118.093 227.244 117.38 226.988 116.851 226.477C116.341 225.967 116.085 225.253 116.085 224.337V207.772ZM129.167 227.323C128.128 227.323 127.176 227.138 126.313 226.768C125.468 226.38 124.728 225.861 124.094 225.209C123.478 224.54 122.993 223.774 122.641 222.911C122.306 222.048 122.139 221.132 122.139 220.163C122.139 218.86 122.438 217.671 123.037 216.596C123.636 215.522 124.464 214.659 125.521 214.007C126.595 213.355 127.819 213.03 129.193 213.03C130.585 213.03 131.791 213.364 132.813 214.034C133.852 214.685 134.653 215.548 135.217 216.623C135.798 217.679 136.089 218.824 136.089 220.057C136.089 220.233 136.08 220.41 136.062 220.586C136.062 220.744 136.054 220.868 136.036 220.956H124.596C124.667 221.854 124.913 222.655 125.336 223.36C125.776 224.047 126.34 224.593 127.027 224.998C127.714 225.385 128.453 225.579 129.246 225.579C130.091 225.579 130.884 225.368 131.624 224.945C132.381 224.522 132.901 223.967 133.183 223.281L135.19 223.835C134.891 224.505 134.442 225.104 133.843 225.632C133.262 226.16 132.566 226.574 131.756 226.874C130.963 227.173 130.1 227.323 129.167 227.323ZM124.517 219.344H133.922C133.852 218.446 133.596 217.653 133.156 216.966C132.716 216.279 132.152 215.742 131.465 215.355C130.778 214.967 130.021 214.773 129.193 214.773C128.383 214.773 127.634 214.967 126.947 215.355C126.261 215.742 125.697 216.279 125.257 216.966C124.834 217.653 124.587 218.446 124.517 219.344ZM144.669 227.059V208.3H151.168C153.176 208.3 154.849 208.723 156.188 209.569C157.544 210.396 158.557 211.524 159.226 212.95C159.895 214.359 160.23 215.927 160.23 217.653C160.23 219.555 159.86 221.211 159.12 222.62C158.381 224.029 157.333 225.121 155.976 225.896C154.62 226.671 153.017 227.059 151.168 227.059H144.669ZM157.826 217.653C157.826 216.244 157.562 214.993 157.033 213.901C156.522 212.809 155.774 211.955 154.788 211.339C153.801 210.722 152.595 210.414 151.168 210.414H147.046V224.945H151.168C152.612 224.945 153.828 224.628 154.814 223.994C155.8 223.342 156.549 222.47 157.06 221.378C157.57 220.269 157.826 219.027 157.826 217.653ZM168.706 227.323C167.667 227.323 166.725 227.138 165.879 226.768C165.034 226.38 164.303 225.861 163.686 225.209C163.07 224.54 162.594 223.774 162.26 222.911C161.925 222.048 161.758 221.141 161.758 220.189C161.758 219.221 161.925 218.305 162.26 217.442C162.594 216.579 163.07 215.821 163.686 215.17C164.303 214.5 165.034 213.981 165.879 213.611C166.742 213.223 167.685 213.03 168.706 213.03C169.745 213.03 170.688 213.223 171.533 213.611C172.378 213.981 173.109 214.5 173.726 215.17C174.36 215.821 174.844 216.579 175.179 217.442C175.514 218.305 175.681 219.221 175.681 220.189C175.681 221.141 175.514 222.048 175.179 222.911C174.844 223.774 174.369 224.54 173.752 225.209C173.136 225.861 172.396 226.38 171.533 226.768C170.688 227.138 169.745 227.323 168.706 227.323ZM164.135 220.216C164.135 221.167 164.338 222.03 164.743 222.805C165.166 223.58 165.721 224.196 166.408 224.654C167.094 225.095 167.861 225.315 168.706 225.315C169.552 225.315 170.318 225.086 171.005 224.628C171.709 224.17 172.264 223.554 172.669 222.779C173.092 221.986 173.303 221.114 173.303 220.163C173.303 219.212 173.092 218.349 172.669 217.574C172.264 216.799 171.709 216.182 171.005 215.724C170.318 215.266 169.552 215.037 168.706 215.037C167.861 215.037 167.094 215.275 166.408 215.751C165.721 216.209 165.166 216.825 164.743 217.6C164.338 218.375 164.135 219.247 164.135 220.216ZM194.784 213.267H197.03L191.165 227.059H189.13L186.462 220.559L183.82 227.059H181.785L175.92 213.267H178.139L182.895 224.76L185.114 219.106L182.789 213.294H184.824L186.462 217.679L188.1 213.294H190.134L187.836 219.106L190.055 224.76L194.784 213.267ZM210.644 227.059H208.319V219.344C208.319 217.882 208.09 216.816 207.632 216.147C207.192 215.46 206.513 215.117 205.597 215.117C204.963 215.117 204.329 215.275 203.695 215.592C203.079 215.909 202.524 216.341 202.031 216.887C201.555 217.415 201.212 218.032 201 218.736V227.059H198.675V213.267H200.789V216.226C201.159 215.575 201.634 215.011 202.216 214.536C202.797 214.06 203.457 213.69 204.197 213.426C204.937 213.162 205.712 213.03 206.522 213.03C207.315 213.03 207.975 213.179 208.504 213.479C209.05 213.761 209.472 214.166 209.772 214.694C210.089 215.205 210.309 215.812 210.432 216.517C210.573 217.222 210.644 217.988 210.644 218.816V227.059ZM213.784 207.772H216.109V223.492C216.109 224.249 216.214 224.716 216.426 224.892C216.637 225.068 216.892 225.156 217.192 225.156C217.562 225.156 217.914 225.121 218.249 225.051C218.583 224.963 218.865 224.875 219.094 224.786L219.464 226.689C219.076 226.847 218.618 226.979 218.09 227.085C217.562 227.191 217.095 227.244 216.69 227.244C215.791 227.244 215.078 226.988 214.55 226.477C214.039 225.967 213.784 225.253 213.784 224.337V207.772ZM226.786 227.323C225.747 227.323 224.804 227.138 223.959 226.768C223.113 226.38 222.382 225.861 221.766 225.209C221.149 224.54 220.674 223.774 220.339 222.911C220.005 222.048 219.837 221.141 219.837 220.189C219.837 219.221 220.005 218.305 220.339 217.442C220.674 216.579 221.149 215.821 221.766 215.17C222.382 214.5 223.113 213.981 223.959 213.611C224.822 213.223 225.764 213.03 226.786 213.03C227.825 213.03 228.767 213.223 229.613 213.611C230.458 213.981 231.189 214.5 231.806 215.17C232.44 215.821 232.924 216.579 233.259 217.442C233.593 218.305 233.761 219.221 233.761 220.189C233.761 221.141 233.593 222.048 233.259 222.911C232.924 223.774 232.448 224.54 231.832 225.209C231.215 225.861 230.476 226.38 229.613 226.768C228.767 227.138 227.825 227.323 226.786 227.323ZM222.215 220.216C222.215 221.167 222.418 222.03 222.823 222.805C223.245 223.58 223.8 224.196 224.487 224.654C225.174 225.095 225.94 225.315 226.786 225.315C227.631 225.315 228.397 225.086 229.084 224.628C229.789 224.17 230.344 223.554 230.749 222.779C231.171 221.986 231.383 221.114 231.383 220.163C231.383 219.212 231.171 218.349 230.749 217.574C230.344 216.799 229.789 216.182 229.084 215.724C228.397 215.266 227.631 215.037 226.786 215.037C225.94 215.037 225.174 215.275 224.487 215.751C223.8 216.209 223.245 216.825 222.823 217.6C222.418 218.375 222.215 219.247 222.215 220.216ZM234.966 223.069C234.966 222.189 235.213 221.431 235.706 220.797C236.217 220.145 236.913 219.643 237.793 219.291C238.674 218.939 239.695 218.763 240.858 218.763C241.474 218.763 242.126 218.816 242.813 218.921C243.5 219.009 244.108 219.15 244.636 219.344V218.34C244.636 217.283 244.319 216.455 243.685 215.857C243.051 215.24 242.152 214.932 240.99 214.932C240.233 214.932 239.502 215.073 238.797 215.355C238.11 215.619 237.379 216.006 236.604 216.517L235.759 214.879C236.657 214.263 237.555 213.805 238.454 213.505C239.352 213.188 240.285 213.03 241.254 213.03C243.016 213.03 244.407 213.523 245.429 214.509C246.45 215.478 246.961 216.834 246.961 218.578V224.417C246.961 224.698 247.014 224.91 247.119 225.051C247.243 225.174 247.436 225.244 247.701 225.262V227.059C247.472 227.094 247.269 227.12 247.093 227.138C246.934 227.155 246.802 227.164 246.697 227.164C246.151 227.164 245.737 227.015 245.455 226.715C245.191 226.416 245.041 226.099 245.006 225.764L244.953 224.892C244.354 225.667 243.57 226.266 242.602 226.689C241.633 227.111 240.673 227.323 239.722 227.323C238.806 227.323 237.987 227.138 237.265 226.768C236.543 226.38 235.979 225.87 235.574 225.236C235.169 224.584 234.966 223.862 234.966 223.069ZM243.949 224.047C244.16 223.8 244.328 223.554 244.451 223.307C244.574 223.043 244.636 222.823 244.636 222.646V220.929C244.09 220.718 243.518 220.559 242.919 220.454C242.32 220.33 241.73 220.269 241.149 220.269C239.968 220.269 239.008 220.506 238.269 220.982C237.547 221.44 237.186 222.074 237.186 222.884C237.186 223.325 237.3 223.756 237.529 224.179C237.776 224.584 238.128 224.919 238.586 225.183C239.061 225.447 239.643 225.579 240.329 225.579C241.052 225.579 241.739 225.438 242.39 225.156C243.042 224.857 243.562 224.487 243.949 224.047ZM249.252 220.189C249.252 218.886 249.516 217.697 250.044 216.623C250.59 215.531 251.33 214.659 252.264 214.007C253.215 213.355 254.298 213.03 255.513 213.03C256.623 213.03 257.618 213.32 258.499 213.901C259.379 214.483 260.066 215.187 260.56 216.015V207.772H262.885V224.417C262.885 224.698 262.937 224.91 263.043 225.051C263.166 225.174 263.36 225.244 263.624 225.262V227.059C263.184 227.129 262.84 227.164 262.594 227.164C262.136 227.164 261.731 227.006 261.379 226.689C261.044 226.372 260.877 226.019 260.877 225.632V224.469C260.331 225.35 259.6 226.046 258.684 226.557C257.768 227.067 256.817 227.323 255.83 227.323C254.879 227.323 253.999 227.138 253.188 226.768C252.396 226.38 251.7 225.852 251.101 225.183C250.52 224.513 250.062 223.756 249.727 222.911C249.41 222.048 249.252 221.141 249.252 220.189ZM260.56 222.224V218.261C260.348 217.662 260.005 217.125 259.529 216.649C259.054 216.156 258.516 215.768 257.918 215.487C257.336 215.187 256.755 215.037 256.174 215.037C255.487 215.037 254.862 215.187 254.298 215.487C253.752 215.768 253.276 216.156 252.871 216.649C252.484 217.125 252.184 217.671 251.973 218.287C251.762 218.904 251.656 219.547 251.656 220.216C251.656 220.903 251.771 221.554 251.999 222.171C252.246 222.787 252.581 223.333 253.003 223.809C253.444 224.284 253.946 224.654 254.509 224.919C255.091 225.183 255.716 225.315 256.385 225.315C256.808 225.315 257.239 225.236 257.68 225.077C258.138 224.919 258.569 224.698 258.974 224.417C259.379 224.135 259.723 223.809 260.005 223.439C260.287 223.052 260.471 222.646 260.56 222.224ZM272.34 227.323C271.301 227.323 270.35 227.138 269.487 226.768C268.642 226.38 267.902 225.861 267.268 225.209C266.651 224.54 266.167 223.774 265.815 222.911C265.48 222.048 265.313 221.132 265.313 220.163C265.313 218.86 265.612 217.671 266.211 216.596C266.81 215.522 267.638 214.659 268.694 214.007C269.769 213.355 270.993 213.03 272.367 213.03C273.758 213.03 274.965 213.364 275.986 214.034C277.026 214.685 277.827 215.548 278.391 216.623C278.972 217.679 279.262 218.824 279.262 220.057C279.262 220.233 279.254 220.41 279.236 220.586C279.236 220.744 279.227 220.868 279.21 220.956H267.77C267.84 221.854 268.087 222.655 268.51 223.36C268.95 224.047 269.513 224.593 270.2 224.998C270.887 225.385 271.627 225.579 272.42 225.579C273.265 225.579 274.058 225.368 274.797 224.945C275.555 224.522 276.074 223.967 276.356 223.281L278.364 223.835C278.065 224.505 277.616 225.104 277.017 225.632C276.436 226.16 275.74 226.574 274.93 226.874C274.137 227.173 273.274 227.323 272.34 227.323ZM267.69 219.344H277.096C277.026 218.446 276.77 217.653 276.33 216.966C275.889 216.279 275.326 215.742 274.639 215.355C273.952 214.967 273.195 214.773 272.367 214.773C271.557 214.773 270.808 214.967 270.121 215.355C269.434 215.742 268.871 216.279 268.43 216.966C268.008 217.653 267.761 218.446 267.69 219.344ZM280.42 220.189C280.42 218.886 280.684 217.697 281.213 216.623C281.759 215.531 282.499 214.659 283.432 214.007C284.383 213.355 285.466 213.03 286.682 213.03C287.791 213.03 288.787 213.32 289.667 213.901C290.548 214.483 291.235 215.187 291.728 216.015V207.772H294.053V224.417C294.053 224.698 294.106 224.91 294.211 225.051C294.335 225.174 294.528 225.244 294.793 225.262V227.059C294.352 227.129 294.009 227.164 293.762 227.164C293.304 227.164 292.899 227.006 292.547 226.689C292.212 226.372 292.045 226.019 292.045 225.632V224.469C291.499 225.35 290.768 226.046 289.852 226.557C288.936 227.067 287.985 227.323 286.999 227.323C286.048 227.323 285.167 227.138 284.357 226.768C283.564 226.38 282.868 225.852 282.27 225.183C281.688 224.513 281.23 223.756 280.896 222.911C280.579 222.048 280.42 221.141 280.42 220.189ZM291.728 222.224V218.261C291.517 217.662 291.173 217.125 290.698 216.649C290.222 216.156 289.685 215.768 289.086 215.487C288.505 215.187 287.923 215.037 287.342 215.037C286.655 215.037 286.03 215.187 285.466 215.487C284.92 215.768 284.445 216.156 284.04 216.649C283.652 217.125 283.353 217.671 283.141 218.287C282.93 218.904 282.824 219.547 282.824 220.216C282.824 220.903 282.939 221.554 283.168 222.171C283.414 222.787 283.749 223.333 284.172 223.809C284.612 224.284 285.114 224.654 285.678 224.919C286.259 225.183 286.884 225.315 287.554 225.315C287.976 225.315 288.408 225.236 288.848 225.077C289.306 224.919 289.738 224.698 290.143 224.417C290.548 224.135 290.891 223.809 291.173 223.439C291.455 223.052 291.64 222.646 291.728 222.224ZM303.688 208.3L309.369 218.076L315.102 208.3H317.691L310.558 220.216V227.059H308.18V220.163L301.073 208.3H303.688ZM323.093 227.323C322.053 227.323 321.102 227.138 320.239 226.768C319.394 226.38 318.654 225.861 318.02 225.209C317.404 224.54 316.919 223.774 316.567 222.911C316.232 222.048 316.065 221.132 316.065 220.163C316.065 218.86 316.364 217.671 316.963 216.596C317.562 215.522 318.39 214.659 319.447 214.007C320.521 213.355 321.745 213.03 323.119 213.03C324.51 213.03 325.717 213.364 326.739 214.034C327.778 214.685 328.579 215.548 329.143 216.623C329.724 217.679 330.015 218.824 330.015 220.057C330.015 220.233 330.006 220.41 329.988 220.586C329.988 220.744 329.979 220.868 329.962 220.956H318.522C318.592 221.854 318.839 222.655 319.262 223.36C319.702 224.047 320.266 224.593 320.953 224.998C321.64 225.385 322.379 225.579 323.172 225.579C324.017 225.579 324.81 225.368 325.55 224.945C326.307 224.522 326.827 223.967 327.108 223.281L329.116 223.835C328.817 224.505 328.368 225.104 327.769 225.632C327.188 226.16 326.492 226.574 325.682 226.874C324.889 227.173 324.026 227.323 323.093 227.323ZM318.443 219.344H327.848C327.778 218.446 327.522 217.653 327.082 216.966C326.642 216.279 326.078 215.742 325.391 215.355C324.704 214.967 323.947 214.773 323.119 214.773C322.309 214.773 321.56 214.967 320.873 215.355C320.186 215.742 319.623 216.279 319.182 216.966C318.76 217.653 318.513 218.446 318.443 219.344ZM339.075 226.372C338.881 226.46 338.617 226.574 338.282 226.715C337.948 226.856 337.56 226.979 337.12 227.085C336.68 227.191 336.213 227.244 335.72 227.244C335.156 227.244 334.636 227.147 334.161 226.953C333.685 226.742 333.307 226.425 333.025 226.002C332.743 225.561 332.602 225.015 332.602 224.364V215.09H330.726V213.267H332.602V208.67H334.927V213.267H338.018V215.09H334.927V223.65C334.962 224.144 335.13 224.513 335.429 224.76C335.729 224.989 336.081 225.104 336.486 225.104C336.944 225.104 337.367 225.024 337.754 224.866C338.142 224.707 338.397 224.593 338.52 224.522L339.075 226.372ZM341.124 220.718V208.115H343.449V220.718H341.124ZM341.124 227.059V223.783H343.449V227.059H341.124ZM347.51 220.718V208.115H349.835V220.718H347.51ZM347.51 227.059V223.783H349.835V227.059H347.51Z" fill="black" fill-opacity="0.6"/>
</svg>
