<svg width="317" height="370" viewBox="0 0 317 370" fill="none" xmlns="http://www.w3.org/2000/svg">
<path d="M315.645 284.773C323.29 269.644 301.441 194 149.948 194C40.6004 194 -9.58719 255.916 1.50829 287.294" fill="url(#paint0_radial_2842_700)"/>
<mask id="mask0_2842_700" style="mask-type:luminance" maskUnits="userSpaceOnUse" x="0" y="194" width="317" height="94">
<path d="M315.645 284.773C323.29 269.644 301.441 194 149.948 194C40.6004 194 -9.58719 255.916 1.50829 287.294" fill="white"/>
</mask>
<g mask="url(#mask0_2842_700)">
<ellipse opacity="0.671968" cx="126.583" cy="236.421" rx="8.33142" ry="4.62769" fill="#F5F5F5"/>
<ellipse opacity="0.729957" cx="211.618" cy="229.356" rx="13.1451" ry="7.2192" fill="#F5F5F5"/>
<ellipse opacity="0.729957" cx="62.0229" cy="210.102" rx="13.1451" ry="7.2192" fill="#F5F5F5"/>
</g>
<g opacity="0.320685">
<ellipse cx="245.847" cy="67.8266" rx="8.88685" ry="8.88517" fill="#F5F5F5"/>
<path d="M240.273 60.7801C236.459 60.2424 233.671 60.6639 233.148 62.1016C232.308 64.4073 237.61 68.4532 244.989 71.1386C252.369 73.8239 259.031 74.1318 259.871 71.8262C260.399 70.3754 257.978 68.3457 254.656 66.2894" stroke="#F5F5F5" stroke-width="4.44342"/>
<path d="M254.752 67.8266C254.752 62.9194 250.773 58.9414 245.865 58.9414C240.957 58.9414 237.883 62.0788 237.249 65.6164C237.249 65.6164 242.357 68.8145 244.716 69.5019C245.468 69.7211 246.214 70.0055 246.974 70.2576C247.823 70.5396 248.688 70.7884 249.563 71.0042C250.162 71.1518 250.983 71.3801 251.75 71.5226C252.761 71.7106 253.666 71.7945 253.738 71.7945C253.863 71.7945 254 71.2359 254.283 70.5848C254.566 69.9338 254.752 67.8266 254.752 67.8266Z" fill="#F5F5F5"/>
</g>
<circle opacity="0.418364" cx="50.5924" cy="120.241" r="10.3623" fill="#F5F5F5"/>
<ellipse opacity="0.5" cx="162.749" cy="208.627" rx="31.0869" ry="8.53365" fill="#F5F5F5"/>
<path d="M150.831 32.9023L154.268 34.1532L90.6825 208.853C90.3371 209.802 89.2877 210.291 88.3387 209.946C87.3897 209.601 86.9004 208.551 87.2458 207.602L150.831 32.9023Z" fill="#F5F5F5"/>
<path d="M150.745 32.9844L177.732 50.7651C179.95 52.2268 182.428 53.2498 185.032 53.7788C199.121 56.6416 208.307 70.2805 205.664 84.413L199.289 118.496C199.259 118.654 199.035 118.658 198.996 118.502C196.039 106.573 184.784 98.5426 172.548 99.6975C166.973 100.224 161.44 98.3424 157.341 94.5278L135.681 74.3698L150.745 32.9844Z" fill="#266CA8"/>
<circle cx="152.256" cy="32.3985" r="2.43819" transform="rotate(20 152.256 32.3985)" fill="#F5F5F5"/>
<path d="M111.426 137.385C111.426 137.385 113.254 136.471 113.254 136.775C113.254 137.08 113.254 140.433 113.254 140.433L112.035 141.042L111.426 137.385Z" fill="#FFE9E9"/>
<path d="M146.06 198.436C146.06 198.436 145.445 196.194 143.827 196.049C142.209 195.903 137.652 200.725 136.699 202.715C135.747 204.706 138.349 207.496 141.319 204.814C144.29 202.133 146.06 198.436 146.06 198.436Z" fill="#266CA8"/>
<path d="M147.963 204.975L146.105 199.791C145.357 197.704 142.512 197.438 141.39 199.351C141.166 199.733 141.042 200.161 141.049 200.604C141.08 202.701 141.422 209.042 144.394 209.898C147.963 210.925 147.963 204.975 147.963 204.975Z" fill="#266CA8"/>
<path d="M170.905 198.436C170.905 198.436 171.52 196.194 173.138 196.049C174.755 195.903 179.313 200.725 180.265 202.715C181.218 204.706 178.616 207.496 175.645 204.814C172.674 202.133 170.905 198.436 170.905 198.436Z" fill="#266CA8"/>
<path d="M169.002 204.975L170.86 199.791C171.608 197.704 174.452 197.438 175.574 199.351C175.798 199.733 175.922 200.161 175.915 200.604C175.884 202.701 175.542 209.042 172.57 209.898C169.002 210.925 169.002 204.975 169.002 204.975Z" fill="#266CA8"/>
<path d="M148.486 189.406C148.486 189.406 147.467 191.408 147.467 192.816C146.447 195.099 144.768 198.172 141.859 204.581C139.953 208.78 143.39 209.894 145.987 210.162C147.608 210.33 149.162 209.658 150.422 208.625L158.201 202.249L167.459 209.893C169.138 211.28 171.568 211.27 173.236 209.87C174.952 208.43 175.4 205.924 174.411 203.914C173.3 201.656 171.65 198.118 169.388 192.816C169.388 191.423 168.498 190.087 168.498 190.087L148.486 189.406Z" fill="#266CA8"/>
<path d="M170.673 173.559C172.335 175.988 171.892 182.061 171.892 182.061H167.015L168.963 195.156C169.058 195.793 168.703 196.409 168.098 196.63C165.918 197.427 160.755 199.199 157.433 199.396C154.102 199.593 148.446 197.867 146.062 197.077C145.417 196.864 145.052 196.21 145.232 195.555C145.752 193.661 147.125 189.337 150.411 182.061C151.429 183.251 145.681 182.061 145.681 182.061C145.681 182.061 146.04 176.653 147.51 173.559C148.98 170.465 152.386 168.398 152.386 168.398L161 167.09C161 167.09 164.577 167.789 166.406 168.763C168.234 169.737 169.01 171.13 170.673 173.559Z" fill="#F5F5F5"/>
<path d="M171.43 182.039L171.236 187.816L170.582 190.707L166.08 209.276L166.798 210.825L167.262 212.836L166.798 214.117L165.579 213.662L163.141 211.678L162.702 210.362C162.594 210.036 162.628 209.679 162.797 209.379L163.992 207.255L167.262 189.919L166.933 182.258L171.43 182.039Z" fill="#FDE7E6"/>
<path d="M145.803 182.257L146.33 187.815L146.984 190.706L151.486 209.275L150.768 210.824L150.304 212.836L150.768 214.116L151.987 213.661L154.425 211.678L154.864 210.362C154.972 210.035 154.938 209.678 154.77 209.378L153.574 207.254L150.304 189.918L150.558 182.257L145.803 182.257Z" fill="#FDE7E6"/>
<path fill-rule="evenodd" clip-rule="evenodd" d="M160.479 162.363H155.678V168.798H160.479V162.363ZM157.598 172.481C157.598 171.568 155.678 168.799 155.678 168.799H160.479C160.479 168.799 157.598 173.395 157.598 172.481Z" fill="#8BC63E" fill-opacity="0.08"/>
<ellipse cx="157.8" cy="161.296" rx="4.25693" ry="6.33929" fill="#FFE9E9"/>
<path fill-rule="evenodd" clip-rule="evenodd" d="M153.127 162.355C153.468 161.146 153.468 158.482 154.149 158.395C154.83 158.308 156.192 158.812 157.555 157.834C158.236 157.296 158.576 157.229 158.576 156.959C161.982 157.602 159.945 159.543 161.641 161.68C161.818 161.903 162.322 161.68 162.322 161.68C162.322 161.68 162.322 156.417 161.982 155.947C161.641 155.478 160.279 153.587 159.598 154.936C159.598 154.261 158.236 153.565 156.873 154.082C155.511 154.598 153.468 155.61 153.127 156.959C152.787 158.308 152.446 161.006 153.127 162.355Z" fill="#513450"/>
<path d="M37.8481 352.224V364.965H35.7403V348.337H37.5202L47.6845 361.335V348.36H49.7923V364.965H47.8719L37.8481 352.224ZM58.1004 365.199C57.1792 365.199 56.3439 365.035 55.5944 364.707C54.845 364.364 54.197 363.903 53.6506 363.325C53.1041 362.732 52.6825 362.053 52.3859 361.288C52.0892 360.523 51.9409 359.719 51.9409 358.876C51.9409 358.017 52.0892 357.205 52.3859 356.44C52.6825 355.675 53.1041 355.004 53.6506 354.426C54.197 353.833 54.845 353.372 55.5944 353.044C56.3595 352.701 57.1948 352.529 58.1004 352.529C59.0216 352.529 59.8569 352.701 60.6063 353.044C61.3557 353.372 62.0037 353.833 62.5502 354.426C63.1122 355.004 63.5416 355.675 63.8383 356.44C64.1349 357.205 64.2832 358.017 64.2832 358.876C64.2832 359.719 64.1349 360.523 63.8383 361.288C63.5416 362.053 63.1201 362.732 62.5736 363.325C62.0271 363.903 61.3714 364.364 60.6063 364.707C59.8569 365.035 59.0216 365.199 58.1004 365.199ZM54.0487 358.899C54.0487 359.742 54.2283 360.507 54.5874 361.194C54.9621 361.881 55.4539 362.428 56.0628 362.834C56.6717 363.224 57.3509 363.419 58.1004 363.419C58.8498 363.419 59.529 363.216 60.1379 362.81C60.7624 362.404 61.2543 361.858 61.6134 361.171C61.9881 360.468 62.1754 359.695 62.1754 358.852C62.1754 358.009 61.9881 357.244 61.6134 356.557C61.2543 355.87 60.7624 355.324 60.1379 354.918C59.529 354.512 58.8498 354.309 58.1004 354.309C57.3509 354.309 56.6717 354.52 56.0628 354.941C55.4539 355.347 54.9621 355.893 54.5874 356.58C54.2283 357.267 54.0487 358.04 54.0487 358.899ZM78.9573 365.082C77.6302 365.082 76.5139 364.856 75.6083 364.403C74.7027 363.934 73.9767 363.31 73.4302 362.529C72.8838 361.733 72.4856 360.835 72.2358 359.836C71.986 358.837 71.8611 357.806 71.8611 356.744V348.337H73.9689V356.744C73.9689 357.556 74.047 358.353 74.2031 359.133C74.3748 359.898 74.6481 360.585 75.0228 361.194C75.3975 361.803 75.9049 362.287 76.5451 362.646C77.1852 363.005 77.9815 363.185 78.9339 363.185C79.902 363.185 80.706 363.005 81.3462 362.646C81.9863 362.272 82.4938 361.78 82.8685 361.171C83.2432 360.546 83.5086 359.851 83.6648 359.086C83.8365 358.321 83.9224 357.541 83.9224 356.744V348.337H86.0302V356.744C86.0302 357.869 85.8975 358.938 85.632 359.953C85.3822 360.952 84.9763 361.834 84.4142 362.599C83.8521 363.364 83.1183 363.973 82.2127 364.426C81.3228 364.863 80.2376 365.082 78.9573 365.082ZM92.8732 365.199C91.8583 365.199 90.9059 365.035 90.016 364.707C89.126 364.364 88.361 363.856 87.7208 363.185L88.5171 361.733C89.2197 362.389 89.9223 362.857 90.6249 363.138C91.3275 363.419 92.0457 363.56 92.7795 363.56C93.6226 363.56 94.3096 363.404 94.8405 363.091C95.3713 362.763 95.6368 362.287 95.6368 361.663C95.6368 361.21 95.4962 360.874 95.2152 360.656C94.9498 360.437 94.5673 360.257 94.0676 360.117C93.568 359.961 92.9747 359.789 92.2877 359.602C91.4446 359.352 90.7342 359.086 90.1565 358.805C89.5788 358.524 89.1416 358.173 88.845 357.751C88.5483 357.33 88.4 356.799 88.4 356.159C88.4 355.378 88.603 354.722 89.0089 354.192C89.4149 353.645 89.9691 353.231 90.6717 352.95C91.3899 352.669 92.2018 352.529 93.1074 352.529C94.013 352.529 94.8327 352.669 95.5665 352.95C96.3003 353.231 96.9327 353.645 97.4635 354.192L96.5267 355.62C96.0427 355.121 95.5119 354.754 94.9342 354.52C94.3565 354.27 93.7085 354.145 92.9903 354.145C92.5687 354.145 92.155 354.199 91.749 354.309C91.3431 354.402 91.0074 354.582 90.742 354.847C90.4766 355.097 90.3438 355.456 90.3438 355.925C90.3438 356.315 90.4453 356.627 90.6483 356.862C90.8669 357.08 91.1792 357.267 91.5851 357.424C92.0067 357.58 92.5141 357.751 93.1074 357.939C94.0286 358.204 94.8249 358.47 95.4962 358.735C96.1832 359.001 96.7141 359.344 97.0888 359.766C97.4635 360.187 97.6509 360.773 97.6509 361.522C97.6509 362.677 97.2137 363.583 96.3394 364.239C95.465 364.879 94.3096 365.199 92.8732 365.199ZM105.058 365.199C104.137 365.199 103.294 365.035 102.529 364.707C101.779 364.364 101.124 363.903 100.562 363.325C100.015 362.732 99.5857 362.053 99.2735 361.288C98.9768 360.523 98.8285 359.711 98.8285 358.852C98.8285 357.697 99.0939 356.643 99.6248 355.691C100.156 354.738 100.889 353.973 101.826 353.395C102.779 352.818 103.864 352.529 105.082 352.529C106.315 352.529 107.385 352.825 108.29 353.419C109.211 353.996 109.922 354.762 110.421 355.714C110.937 356.651 111.194 357.666 111.194 358.759C111.194 358.915 111.186 359.071 111.171 359.227C111.171 359.367 111.163 359.477 111.147 359.555H101.007C101.069 360.351 101.288 361.062 101.662 361.686C102.053 362.295 102.552 362.779 103.161 363.138C103.77 363.482 104.426 363.653 105.128 363.653C105.878 363.653 106.58 363.466 107.236 363.091C107.908 362.717 108.368 362.225 108.618 361.616L110.398 362.108C110.133 362.701 109.734 363.232 109.204 363.7C108.688 364.169 108.072 364.535 107.353 364.801C106.651 365.066 105.886 365.199 105.058 365.199ZM100.936 358.126H109.274C109.211 357.33 108.985 356.627 108.595 356.018C108.204 355.409 107.705 354.933 107.096 354.59C106.487 354.246 105.815 354.075 105.082 354.075C104.363 354.075 103.7 354.246 103.091 354.59C102.482 354.933 101.982 355.409 101.592 356.018C101.217 356.627 100.999 357.33 100.936 358.126ZM119.481 354.543C118.45 354.559 117.537 354.824 116.741 355.339C115.96 355.839 115.406 356.534 115.078 357.424V364.965H113.017V352.74H114.937V355.573C115.359 354.73 115.913 354.051 116.6 353.536C117.303 353.005 118.036 352.708 118.802 352.646C118.958 352.646 119.09 352.646 119.2 352.646C119.309 352.646 119.403 352.654 119.481 352.669V354.543ZM136.057 351.826C135.869 351.608 135.62 351.397 135.307 351.194C134.995 350.991 134.644 350.811 134.253 350.655C133.863 350.483 133.434 350.351 132.965 350.257C132.513 350.148 132.036 350.093 131.537 350.093C130.256 350.093 129.312 350.335 128.703 350.819C128.094 351.303 127.789 351.967 127.789 352.81C127.789 353.403 127.946 353.872 128.258 354.215C128.57 354.559 129.046 354.84 129.687 355.058C130.342 355.277 131.17 355.503 132.169 355.737C133.324 355.987 134.324 356.292 135.167 356.651C136.01 357.01 136.658 357.494 137.111 358.103C137.563 358.696 137.79 359.492 137.79 360.492C137.79 361.288 137.634 361.983 137.321 362.576C137.025 363.154 136.603 363.638 136.057 364.028C135.51 364.403 134.87 364.684 134.136 364.871C133.402 365.043 132.606 365.129 131.747 365.129C130.904 365.129 130.077 365.043 129.265 364.871C128.469 364.684 127.711 364.418 126.993 364.075C126.275 363.731 125.604 363.302 124.979 362.787L125.986 361.007C126.236 361.272 126.556 361.538 126.946 361.803C127.352 362.053 127.805 362.287 128.305 362.506C128.82 362.724 129.374 362.904 129.968 363.044C130.561 363.169 131.17 363.232 131.794 363.232C132.981 363.232 133.902 363.021 134.558 362.599C135.214 362.162 135.542 361.53 135.542 360.702C135.542 360.078 135.354 359.578 134.979 359.204C134.62 358.829 134.082 358.517 133.363 358.267C132.645 358.017 131.771 357.767 130.74 357.517C129.616 357.236 128.672 356.932 127.907 356.604C127.142 356.26 126.564 355.815 126.174 355.269C125.799 354.722 125.611 354.012 125.611 353.138C125.611 352.076 125.869 351.178 126.384 350.444C126.9 349.711 127.61 349.156 128.516 348.782C129.421 348.407 130.444 348.22 131.584 348.22C132.333 348.22 133.028 348.298 133.668 348.454C134.324 348.61 134.933 348.828 135.495 349.11C136.057 349.391 136.572 349.726 137.04 350.117L136.057 351.826ZM139.649 360.07V352.74H141.71V359.672C141.71 360.921 141.928 361.858 142.366 362.482C142.803 363.107 143.451 363.419 144.309 363.419C144.871 363.419 145.41 363.302 145.925 363.068C146.456 362.818 146.932 362.467 147.354 362.014C147.776 361.561 148.103 361.022 148.338 360.398V352.74H150.399V362.623C150.399 362.873 150.445 363.06 150.539 363.185C150.648 363.294 150.82 363.357 151.054 363.372V364.965C150.82 364.996 150.633 365.012 150.492 365.012C150.367 365.027 150.242 365.035 150.118 365.035C149.727 365.035 149.392 364.918 149.11 364.684C148.829 364.434 148.681 364.13 148.666 363.77L148.619 362.342C148.088 363.247 147.37 363.95 146.464 364.45C145.574 364.949 144.598 365.199 143.537 365.199C142.256 365.199 141.288 364.77 140.632 363.911C139.977 363.037 139.649 361.756 139.649 360.07ZM159.64 365.199C158.687 365.199 157.821 364.965 157.04 364.496C156.26 364.028 155.643 363.419 155.19 362.67V364.965H153.363V347.868H155.424V355.175C155.939 354.379 156.572 353.739 157.321 353.255C158.071 352.771 158.945 352.529 159.944 352.529C160.787 352.529 161.545 352.708 162.216 353.067C162.887 353.411 163.457 353.887 163.926 354.496C164.41 355.089 164.777 355.769 165.026 356.534C165.292 357.283 165.425 358.072 165.425 358.899C165.425 359.758 165.276 360.57 164.98 361.335C164.699 362.084 164.293 362.756 163.762 363.349C163.231 363.927 162.614 364.379 161.912 364.707C161.225 365.035 160.467 365.199 159.64 365.199ZM159.125 363.419C159.733 363.419 160.296 363.294 160.811 363.044C161.326 362.795 161.771 362.459 162.146 362.037C162.52 361.616 162.809 361.132 163.012 360.585C163.215 360.039 163.317 359.477 163.317 358.899C163.317 358.103 163.145 357.353 162.801 356.651C162.474 355.948 162.005 355.386 161.396 354.965C160.803 354.527 160.108 354.309 159.312 354.309C158.734 354.309 158.196 354.441 157.696 354.707C157.196 354.972 156.751 355.324 156.361 355.761C155.986 356.182 155.674 356.651 155.424 357.166V360.702C155.502 361.093 155.666 361.452 155.916 361.78C156.166 362.108 156.47 362.396 156.829 362.646C157.188 362.88 157.563 363.068 157.954 363.208C158.359 363.349 158.75 363.419 159.125 363.419ZM172.897 365.199C171.975 365.199 171.132 365.035 170.367 364.707C169.618 364.364 168.962 363.895 168.4 363.302C167.853 362.709 167.424 362.03 167.112 361.264C166.815 360.499 166.667 359.688 166.667 358.829C166.667 357.673 166.925 356.62 167.44 355.667C167.955 354.715 168.681 353.957 169.618 353.395C170.555 352.818 171.64 352.529 172.873 352.529C174.075 352.529 175.122 352.802 176.011 353.349C176.917 353.879 177.588 354.598 178.026 355.503L176.011 356.136C175.699 355.558 175.262 355.113 174.7 354.801C174.138 354.473 173.513 354.309 172.826 354.309C172.077 354.309 171.39 354.504 170.765 354.894C170.156 355.285 169.672 355.823 169.313 356.51C168.954 357.182 168.775 357.954 168.775 358.829C168.775 359.688 168.954 360.468 169.313 361.171C169.688 361.858 170.18 362.404 170.789 362.81C171.413 363.216 172.1 363.419 172.85 363.419C173.334 363.419 173.794 363.333 174.232 363.162C174.684 362.99 175.075 362.763 175.403 362.482C175.746 362.186 175.98 361.866 176.105 361.522L178.119 362.131C177.869 362.724 177.487 363.255 176.972 363.724C176.472 364.176 175.871 364.535 175.168 364.801C174.481 365.066 173.724 365.199 172.897 365.199ZM186.45 354.543C185.42 354.559 184.506 354.824 183.71 355.339C182.929 355.839 182.375 356.534 182.047 357.424V364.965H179.986V352.74H181.907V355.573C182.328 354.73 182.882 354.051 183.569 353.536C184.272 353.005 185.006 352.708 185.771 352.646C185.927 352.646 186.06 352.646 186.169 352.646C186.278 352.646 186.372 352.654 186.45 352.669V354.543ZM188.026 364.965V352.74H190.087V364.965H188.026ZM188.026 350.444V347.868H190.087V350.444H188.026ZM199.231 365.199C198.279 365.199 197.413 364.965 196.632 364.496C195.851 364.028 195.234 363.419 194.782 362.67V364.965H192.955V347.868H195.016V355.175C195.531 354.379 196.163 353.739 196.913 353.255C197.662 352.771 198.537 352.529 199.536 352.529C200.379 352.529 201.136 352.708 201.808 353.067C202.479 353.411 203.049 353.887 203.517 354.496C204.001 355.089 204.368 355.769 204.618 356.534C204.884 357.283 205.016 358.072 205.016 358.899C205.016 359.758 204.868 360.57 204.571 361.335C204.29 362.084 203.884 362.756 203.353 363.349C202.823 363.927 202.206 364.379 201.503 364.707C200.816 365.035 200.059 365.199 199.231 365.199ZM198.716 363.419C199.325 363.419 199.887 363.294 200.402 363.044C200.918 362.795 201.363 362.459 201.737 362.037C202.112 361.616 202.401 361.132 202.604 360.585C202.807 360.039 202.908 359.477 202.908 358.899C202.908 358.103 202.737 357.353 202.393 356.651C202.065 355.948 201.597 355.386 200.988 354.965C200.395 354.527 199.7 354.309 198.904 354.309C198.326 354.309 197.787 354.441 197.288 354.707C196.788 354.972 196.343 355.324 195.953 355.761C195.578 356.182 195.266 356.651 195.016 357.166V360.702C195.094 361.093 195.258 361.452 195.508 361.78C195.758 362.108 196.062 362.396 196.421 362.646C196.78 362.88 197.155 363.068 197.545 363.208C197.951 363.349 198.342 363.419 198.716 363.419ZM212.488 365.199C211.567 365.199 210.724 365.035 209.959 364.707C209.209 364.364 208.554 363.903 207.992 363.325C207.445 362.732 207.016 362.053 206.704 361.288C206.407 360.523 206.259 359.711 206.259 358.852C206.259 357.697 206.524 356.643 207.055 355.691C207.586 354.738 208.32 353.973 209.256 353.395C210.209 352.818 211.294 352.529 212.512 352.529C213.745 352.529 214.815 352.825 215.72 353.419C216.641 353.996 217.352 354.762 217.851 355.714C218.367 356.651 218.624 357.666 218.624 358.759C218.624 358.915 218.617 359.071 218.601 359.227C218.601 359.367 218.593 359.477 218.577 359.555H208.437C208.499 360.351 208.718 361.062 209.092 361.686C209.483 362.295 209.982 362.779 210.591 363.138C211.2 363.482 211.856 363.653 212.559 363.653C213.308 363.653 214.011 363.466 214.666 363.091C215.338 362.717 215.798 362.225 216.048 361.616L217.828 362.108C217.563 362.701 217.164 363.232 216.634 363.7C216.118 364.169 215.502 364.535 214.783 364.801C214.081 365.066 213.316 365.199 212.488 365.199ZM208.366 358.126H216.704C216.641 357.33 216.415 356.627 216.025 356.018C215.634 355.409 215.135 354.933 214.526 354.59C213.917 354.246 213.246 354.075 212.512 354.075C211.793 354.075 211.13 354.246 210.521 354.59C209.912 354.933 209.412 355.409 209.022 356.018C208.647 356.627 208.429 357.33 208.366 358.126ZM219.651 358.876C219.651 357.72 219.885 356.666 220.353 355.714C220.837 354.746 221.493 353.973 222.32 353.395C223.164 352.818 224.124 352.529 225.201 352.529C226.185 352.529 227.067 352.786 227.848 353.302C228.628 353.817 229.237 354.441 229.674 355.175V347.868H231.735V362.623C231.735 362.873 231.782 363.06 231.876 363.185C231.985 363.294 232.157 363.357 232.391 363.372V364.965C232.001 365.027 231.696 365.059 231.478 365.059C231.072 365.059 230.713 364.918 230.4 364.637C230.104 364.356 229.955 364.044 229.955 363.7V362.67C229.471 363.45 228.823 364.067 228.012 364.52C227.2 364.973 226.357 365.199 225.482 365.199C224.639 365.199 223.858 365.035 223.14 364.707C222.438 364.364 221.821 363.895 221.29 363.302C220.775 362.709 220.369 362.037 220.072 361.288C219.791 360.523 219.651 359.719 219.651 358.876ZM229.674 360.679V357.166C229.487 356.635 229.183 356.159 228.761 355.737C228.339 355.3 227.863 354.957 227.332 354.707C226.817 354.441 226.302 354.309 225.787 354.309C225.178 354.309 224.623 354.441 224.124 354.707C223.64 354.957 223.218 355.3 222.859 355.737C222.516 356.159 222.25 356.643 222.063 357.189C221.876 357.736 221.782 358.306 221.782 358.899C221.782 359.508 221.883 360.086 222.086 360.632C222.305 361.179 222.602 361.663 222.976 362.084C223.367 362.506 223.812 362.834 224.311 363.068C224.826 363.302 225.381 363.419 225.974 363.419C226.349 363.419 226.731 363.349 227.122 363.208C227.528 363.068 227.91 362.873 228.269 362.623C228.628 362.373 228.933 362.084 229.183 361.756C229.432 361.413 229.596 361.054 229.674 360.679ZM240.277 348.337L245.312 357.002L250.394 348.337H252.689L246.366 358.899V364.965H244.258V358.852L237.958 348.337H240.277ZM257.478 365.199C256.556 365.199 255.713 365.035 254.948 364.707C254.199 364.364 253.543 363.903 252.981 363.325C252.434 362.732 252.005 362.053 251.693 361.288C251.396 360.523 251.248 359.711 251.248 358.852C251.248 357.697 251.513 356.643 252.044 355.691C252.575 354.738 253.309 353.973 254.246 353.395C255.198 352.818 256.283 352.529 257.501 352.529C258.734 352.529 259.804 352.825 260.71 353.419C261.631 353.996 262.341 354.762 262.841 355.714C263.356 356.651 263.614 357.666 263.614 358.759C263.614 358.915 263.606 359.071 263.59 359.227C263.59 359.367 263.582 359.477 263.567 359.555H253.426C253.488 360.351 253.707 361.062 254.082 361.686C254.472 362.295 254.972 362.779 255.581 363.138C256.189 363.482 256.845 363.653 257.548 363.653C258.297 363.653 259 363.466 259.656 363.091C260.327 362.717 260.788 362.225 261.037 361.616L262.817 362.108C262.552 362.701 262.154 363.232 261.623 363.7C261.108 364.169 260.491 364.535 259.773 364.801C259.07 365.066 258.305 365.199 257.478 365.199ZM253.356 358.126H261.693C261.631 357.33 261.404 356.627 261.014 356.018C260.624 355.409 260.124 354.933 259.515 354.59C258.906 354.246 258.235 354.075 257.501 354.075C256.783 354.075 256.119 354.246 255.51 354.59C254.901 354.933 254.402 355.409 254.011 356.018C253.637 356.627 253.418 357.33 253.356 358.126ZM271.645 364.356C271.473 364.434 271.239 364.535 270.943 364.66C270.646 364.785 270.302 364.895 269.912 364.988C269.522 365.082 269.108 365.129 268.671 365.129C268.171 365.129 267.711 365.043 267.289 364.871C266.868 364.684 266.532 364.403 266.282 364.028C266.032 363.638 265.907 363.154 265.907 362.576V354.356H264.244V352.74H265.907V348.665H267.968V352.74H270.708V354.356H267.968V361.944C268 362.381 268.148 362.709 268.413 362.927C268.679 363.13 268.991 363.232 269.35 363.232C269.756 363.232 270.131 363.162 270.474 363.021C270.818 362.88 271.044 362.779 271.153 362.717L271.645 364.356ZM273.462 359.344V348.173H275.523V359.344H273.462ZM273.462 364.965V362.061H275.523V364.965H273.462ZM279.123 359.344V348.173H281.184V359.344H279.123ZM279.123 364.965V362.061H281.184V364.965H279.123Z" fill="black" fill-opacity="0.5"/>
<defs>
<radialGradient id="paint0_radial_2842_700" cx="0" cy="0" r="1" gradientUnits="userSpaceOnUse" gradientTransform="translate(137.469 226.354) rotate(-90) scale(54.2435 566.519)">
<stop stop-color="#EBEBEB"/>
<stop offset="0.536775" stop-color="#EBEBEB"/>
<stop offset="1" stop-color="#F5F5F5" stop-opacity="0"/>
</radialGradient>
</defs>
</svg>
