<svg width="334" height="290" viewBox="0 0 334 290" fill="none" xmlns="http://www.w3.org/2000/svg">
<path d="M143.022 232.044C207.099 232.044 259.044 180.099 259.044 116.022C259.044 51.9448 207.099 0 143.022 0C78.9448 0 27 51.9448 27 116.022C27 180.099 78.9448 232.044 143.022 232.044Z" fill="#F5F5F5"/>
<g filter="url(#filter0_d_96_2270)">
<path d="M90.426 52.5977H299.265C301.317 52.5977 303.284 53.4126 304.735 54.8631C306.185 56.3137 307 58.2811 307 60.3324V99.0064C307 101.058 306.185 103.025 304.735 104.476C303.284 105.926 301.317 106.741 299.265 106.741H90.426C88.3746 106.741 86.4072 105.926 84.9566 104.476C83.5061 103.025 82.6912 101.058 82.6912 99.0064V60.3324C82.6912 58.2811 83.5061 56.3137 84.9566 54.8631C86.4072 53.4126 88.3746 52.5977 90.426 52.5977V52.5977Z" fill="white"/>
</g>
<path d="M189.431 64.9727H149.21C146.647 64.9727 144.569 67.0504 144.569 69.6135C144.569 72.1766 146.647 74.2544 149.21 74.2544H189.431C191.994 74.2544 194.072 72.1766 194.072 69.6135C194.072 67.0504 191.994 64.9727 189.431 64.9727Z" fill="#266CA8"/>
<path d="M217.277 85.083H149.21C146.647 85.083 144.57 87.1608 144.57 89.7239C144.57 92.287 146.647 94.3648 149.21 94.3648H217.277C219.84 94.3648 221.917 92.287 221.917 89.7239C221.917 87.1608 219.84 85.083 217.277 85.083Z" fill="#266CA8"/>
<path d="M132.194 79.6692C132.194 67.2809 122.152 57.2383 109.763 57.2383C97.3752 57.2383 87.3325 67.2809 87.3325 79.6692C87.3325 92.0574 97.3752 102.1 109.763 102.1C122.152 102.1 132.194 92.0574 132.194 79.6692Z" fill="#266CA8"/>
<path d="M108.37 86.9298C110.291 86.9295 112.156 86.2869 113.669 85.1043L118.425 89.8612L119.955 88.3313L115.197 83.5729C116.392 82.0272 117.029 80.1221 117.003 78.1682C116.978 76.2142 116.291 74.3266 115.055 72.813C113.819 71.2994 112.107 70.249 110.198 69.833C108.288 69.417 106.294 69.6599 104.541 70.5222C102.787 71.3845 101.378 72.8153 100.541 74.5814C99.7049 76.3475 99.4914 78.3447 99.9356 80.2477C100.38 82.1506 101.455 83.8471 102.987 85.0605C104.519 86.2739 106.416 86.9328 108.37 86.9298ZM108.37 71.7788C109.655 71.7788 110.911 72.1599 111.98 72.8738C113.048 73.5878 113.881 74.6025 114.373 75.7897C114.865 76.9769 114.993 78.2833 114.743 79.5436C114.492 80.804 113.873 81.9617 112.964 82.8703C112.056 83.779 110.898 84.3978 109.638 84.6485C108.377 84.8992 107.071 84.7705 105.884 84.2787C104.697 83.787 103.682 82.9542 102.968 81.8857C102.254 80.8173 101.873 79.5611 101.873 78.2761C101.873 76.5529 102.558 74.9003 103.776 73.6818C104.994 72.4634 106.647 71.7788 108.37 71.7788Z" fill="white"/>
<g filter="url(#filter1_d_96_2270)">
<path d="M276.06 122.209H67.2204C62.9486 122.209 59.4856 125.672 59.4856 129.944V168.618C59.4856 172.89 62.9486 176.353 67.2204 176.353H276.06C280.332 176.353 283.795 172.89 283.795 168.618V129.944C283.795 125.672 280.332 122.209 276.06 122.209Z" fill="white"/>
</g>
<path d="M166.227 134.584H126.006C123.443 134.584 121.365 136.662 121.365 139.225C121.365 141.788 123.443 143.866 126.006 143.866H166.227C168.79 143.866 170.867 141.788 170.867 139.225C170.867 136.662 168.79 134.584 166.227 134.584Z" fill="#266CA8"/>
<path d="M194.072 154.694H126.006C123.443 154.694 121.365 156.772 121.365 159.335C121.365 161.898 123.443 163.976 126.006 163.976H194.072C196.635 163.976 198.713 161.898 198.713 159.335C198.713 156.772 196.635 154.694 194.072 154.694Z" fill="#266CA8"/>
<path d="M108.988 149.281C108.988 136.892 98.9451 126.85 86.5569 126.85C74.1686 126.85 64.126 136.892 64.126 149.281C64.126 161.669 74.1686 171.711 86.5569 171.711C98.9451 171.711 108.988 161.669 108.988 149.281Z" fill="#266CA8"/>
<path d="M85.1639 156.541C87.0843 156.541 88.9493 155.898 90.4623 154.716L95.2192 159.473L96.7491 157.943L91.9907 153.184C93.1862 151.638 93.823 149.733 93.7972 147.779C93.7714 145.826 93.0846 143.938 91.8487 142.424C90.6128 140.911 88.9007 139.86 86.9914 139.444C85.0821 139.028 83.0881 139.271 81.3346 140.134C79.581 140.996 78.1712 142.427 77.3349 144.193C76.4986 145.959 76.2851 147.956 76.7293 149.859C77.1734 151.762 78.2489 153.458 79.7806 154.672C81.3123 155.885 83.2099 156.544 85.1639 156.541ZM85.1639 141.39C86.449 141.39 87.7051 141.771 88.7736 142.485C89.8421 143.199 90.6748 144.214 91.1666 145.401C91.6584 146.588 91.787 147.895 91.5363 149.155C91.2856 150.415 90.6668 151.573 89.7582 152.482C88.8495 153.39 87.6918 154.009 86.4315 154.26C85.1712 154.51 83.8648 154.382 82.6776 153.89C81.4904 153.398 80.4756 152.566 79.7617 151.497C79.0478 150.429 78.6667 149.172 78.6667 147.887C78.6667 146.164 79.3513 144.512 80.5697 143.293C81.7882 142.075 83.4408 141.39 85.1639 141.39Z" fill="white"/>
<path d="M4.0985 271.303V284.044H1.9907V267.416H3.77062L13.9349 280.414V267.439H16.0427V284.044H14.1223L4.0985 271.303ZM24.3508 284.278C23.4296 284.278 22.5943 284.114 21.8448 283.786C21.0954 283.443 20.4474 282.982 19.901 282.405C19.3545 281.811 18.9329 281.132 18.6363 280.367C18.3396 279.602 18.1913 278.798 18.1913 277.955C18.1913 277.096 18.3396 276.284 18.6363 275.519C18.9329 274.754 19.3545 274.083 19.901 273.505C20.4474 272.912 21.0954 272.451 21.8448 272.123C22.6099 271.78 23.4452 271.608 24.3508 271.608C25.2719 271.608 26.1073 271.78 26.8567 272.123C27.6061 272.451 28.2541 272.912 28.8006 273.505C29.3626 274.083 29.792 274.754 30.0887 275.519C30.3853 276.284 30.5336 277.096 30.5336 277.955C30.5336 278.798 30.3853 279.602 30.0887 280.367C29.792 281.132 29.3705 281.811 28.824 282.405C28.2775 282.982 27.6218 283.443 26.8567 283.786C26.1073 284.114 25.2719 284.278 24.3508 284.278ZM20.2991 277.978C20.2991 278.821 20.4787 279.586 20.8378 280.273C21.2125 280.96 21.7043 281.507 22.3132 281.913C22.9221 282.303 23.6013 282.498 24.3508 282.498C25.1002 282.498 25.7794 282.295 26.3883 281.889C27.0128 281.483 27.5047 280.937 27.8638 280.25C28.2385 279.547 28.4258 278.774 28.4258 277.931C28.4258 277.088 28.2385 276.323 27.8638 275.636C27.5047 274.949 27.0128 274.403 26.3883 273.997C25.7794 273.591 25.1002 273.388 24.3508 273.388C23.6013 273.388 22.9221 273.599 22.3132 274.02C21.7043 274.426 21.2125 274.973 20.8378 275.66C20.4787 276.347 20.2991 277.119 20.2991 277.978ZM38.3457 284.044V267.416H45.278C46.0118 267.416 46.6832 267.572 47.2921 267.884C47.901 268.181 48.4319 268.587 48.8847 269.102C49.3375 269.602 49.6888 270.171 49.9386 270.812C50.1884 271.436 50.3133 272.076 50.3133 272.732C50.3133 273.638 50.1103 274.504 49.7044 275.332C49.2984 276.144 48.7285 276.807 47.9947 277.322C47.2609 277.822 46.4022 278.072 45.4185 278.072H40.4535V284.044H38.3457ZM40.4535 276.198H45.3014C45.8791 276.198 46.3787 276.042 46.8003 275.73C47.2375 275.418 47.5732 274.996 47.8074 274.465C48.0572 273.934 48.1821 273.357 48.1821 272.732C48.1821 272.076 48.0416 271.491 47.7605 270.976C47.4795 270.445 47.1126 270.031 46.6598 269.734C46.207 269.438 45.7074 269.289 45.1609 269.289H40.4535V276.198ZM51.0437 280.508C51.0437 279.727 51.2623 279.055 51.6995 278.493C52.1523 277.916 52.769 277.471 53.5496 277.158C54.3303 276.846 55.2359 276.69 56.2664 276.69C56.8128 276.69 57.3905 276.737 57.9994 276.831C58.6084 276.909 59.147 277.034 59.6154 277.205V276.315C59.6154 275.379 59.3344 274.645 58.7723 274.114C58.2102 273.567 57.4139 273.294 56.3835 273.294C55.7121 273.294 55.0641 273.419 54.4396 273.669C53.8307 273.903 53.1827 274.247 52.4957 274.699L51.7463 273.247C52.5426 272.701 53.3389 272.295 54.1351 272.029C54.9314 271.748 55.7589 271.608 56.6177 271.608C58.179 271.608 59.4125 272.045 60.318 272.919C61.2236 273.778 61.6764 274.98 61.6764 276.526V281.702C61.6764 281.952 61.7232 282.139 61.8169 282.264C61.9262 282.373 62.0979 282.436 62.3321 282.451V284.044C62.1292 284.075 61.9496 284.099 61.7935 284.114C61.653 284.13 61.5359 284.138 61.4422 284.138C60.9582 284.138 60.5913 284.005 60.3414 283.739C60.1072 283.474 59.9745 283.193 59.9433 282.896L59.8965 282.124C59.3656 282.81 58.6708 283.341 57.8121 283.716C56.9534 284.091 56.1024 284.278 55.2593 284.278C54.4474 284.278 53.7214 284.114 53.0812 283.786C52.4411 283.443 51.9415 282.99 51.5824 282.428C51.2233 281.85 51.0437 281.21 51.0437 280.508ZM59.0065 281.374C59.1939 281.155 59.3422 280.937 59.4515 280.718C59.5608 280.484 59.6154 280.289 59.6154 280.133V278.611C59.1314 278.423 58.624 278.283 58.0931 278.189C57.5623 278.08 57.0392 278.025 56.524 278.025C55.4779 278.025 54.627 278.236 53.9712 278.657C53.3311 279.063 53.011 279.625 53.011 280.344C53.011 280.734 53.1125 281.116 53.3154 281.491C53.534 281.85 53.8463 282.147 54.2522 282.381C54.6738 282.615 55.189 282.732 55.798 282.732C56.4381 282.732 57.047 282.608 57.6247 282.358C58.2024 282.092 58.663 281.764 59.0065 281.374ZM64.6767 287.37C64.8797 287.385 65.0827 287.401 65.2856 287.416C65.4886 287.448 65.6447 287.463 65.754 287.463C66.0038 287.463 66.2224 287.377 66.4098 287.206C66.5971 287.034 66.8001 286.698 67.0187 286.199C67.2529 285.715 67.5496 284.996 67.9087 284.044L62.7328 271.819H64.9109L69.0328 281.96L72.7566 271.819H74.7941L68.8455 287.252C68.7049 287.612 68.4942 287.947 68.2131 288.26C67.9477 288.587 67.6042 288.845 67.1826 289.032C66.7611 289.22 66.2537 289.313 65.6603 289.313C65.5198 289.313 65.3715 289.306 65.2154 289.29C65.0748 289.274 64.8953 289.243 64.6767 289.196V287.37ZM94.8398 284.044H92.7789V277.205C92.7789 275.925 92.5681 274.98 92.1465 274.371C91.7406 273.763 91.1317 273.458 90.3198 273.458C89.4923 273.458 88.7428 273.763 88.0715 274.371C87.4001 274.965 86.9239 275.738 86.6428 276.69V284.044H84.5819V277.205C84.5819 275.909 84.3789 274.965 83.973 274.371C83.567 273.763 82.9581 273.458 82.1462 273.458C81.3343 273.458 80.5849 273.755 79.8979 274.348C79.2265 274.926 78.7503 275.699 78.4693 276.667V284.044H76.4083V271.819H78.2819V274.442C78.7815 273.536 79.4295 272.841 80.2258 272.357C81.022 271.858 81.9198 271.608 82.9191 271.608C83.9339 271.608 84.7458 271.889 85.3547 272.451C85.9637 272.998 86.3384 273.708 86.4789 274.582C87.0254 273.614 87.6889 272.88 88.4696 272.381C89.2503 271.866 90.1402 271.608 91.1395 271.608C91.8421 271.608 92.4276 271.741 92.896 272.006C93.38 272.256 93.7625 272.615 94.0436 273.083C94.3246 273.536 94.5276 274.075 94.6525 274.699C94.7774 275.324 94.8398 276.003 94.8398 276.737V284.044ZM102.986 284.278C102.065 284.278 101.222 284.114 100.457 283.786C99.7072 283.443 99.0514 282.982 98.4893 282.405C97.9429 281.811 97.5135 281.132 97.2012 280.367C96.9046 279.602 96.7563 278.79 96.7563 277.931C96.7563 276.776 97.0217 275.722 97.5525 274.77C98.0834 273.817 98.8172 273.052 99.754 272.474C100.706 271.897 101.792 271.608 103.009 271.608C104.243 271.608 105.312 271.905 106.218 272.498C107.139 273.076 107.85 273.841 108.349 274.793C108.864 275.73 109.122 276.745 109.122 277.838C109.122 277.994 109.114 278.15 109.099 278.306C109.099 278.447 109.091 278.556 109.075 278.634H98.9343C98.9968 279.43 99.2154 280.141 99.5901 280.765C99.9804 281.374 100.48 281.858 101.089 282.217C101.698 282.561 102.354 282.732 103.056 282.732C103.806 282.732 104.508 282.545 105.164 282.17C105.835 281.796 106.296 281.304 106.546 280.695L108.326 281.187C108.06 281.78 107.662 282.311 107.131 282.779C106.616 283.248 105.999 283.615 105.281 283.88C104.579 284.145 103.813 284.278 102.986 284.278ZM98.8641 277.205H107.202C107.139 276.409 106.913 275.706 106.522 275.098C106.132 274.489 105.632 274.012 105.024 273.669C104.415 273.325 103.743 273.154 103.009 273.154C102.291 273.154 101.628 273.325 101.019 273.669C100.41 274.012 99.9101 274.489 99.5198 275.098C99.1451 275.706 98.9265 276.409 98.8641 277.205ZM121.554 284.044H119.493V277.205C119.493 275.909 119.29 274.965 118.884 274.371C118.494 273.763 117.892 273.458 117.081 273.458C116.519 273.458 115.956 273.599 115.394 273.88C114.848 274.161 114.356 274.543 113.919 275.027C113.497 275.496 113.193 276.042 113.006 276.667V284.044H110.945V271.819H112.818V274.442C113.146 273.864 113.568 273.364 114.083 272.943C114.598 272.521 115.184 272.193 115.839 271.959C116.495 271.725 117.182 271.608 117.9 271.608C118.603 271.608 119.188 271.741 119.657 272.006C120.141 272.256 120.516 272.615 120.781 273.083C121.062 273.536 121.257 274.075 121.366 274.699C121.491 275.324 121.554 276.003 121.554 276.737V284.044ZM130.499 283.435C130.328 283.513 130.093 283.615 129.797 283.739C129.5 283.864 129.157 283.974 128.766 284.067C128.376 284.161 127.962 284.208 127.525 284.208C127.025 284.208 126.565 284.122 126.143 283.95C125.722 283.763 125.386 283.482 125.136 283.107C124.886 282.717 124.761 282.233 124.761 281.655V273.435H123.099V271.819H124.761V267.744H126.822V271.819H129.563V273.435H126.822V281.023C126.854 281.46 127.002 281.788 127.267 282.006C127.533 282.209 127.845 282.311 128.204 282.311C128.61 282.311 128.985 282.241 129.328 282.1C129.672 281.96 129.898 281.858 130.008 281.796L130.499 283.435ZM137.724 284.044V267.416H143.486C145.265 267.416 146.749 267.79 147.935 268.54C149.138 269.274 150.035 270.273 150.629 271.538C151.222 272.787 151.519 274.176 151.519 275.706C151.519 277.393 151.191 278.86 150.535 280.109C149.879 281.358 148.95 282.326 147.748 283.013C146.546 283.7 145.125 284.044 143.486 284.044H137.724ZM149.387 275.706C149.387 274.457 149.153 273.349 148.685 272.381C148.232 271.413 147.568 270.656 146.694 270.109C145.82 269.563 144.75 269.289 143.486 269.289H139.832V282.17H143.486C144.766 282.17 145.843 281.889 146.718 281.327C147.592 280.75 148.255 279.977 148.708 279.009C149.161 278.025 149.387 276.924 149.387 275.706ZM159.102 284.278C158.181 284.278 157.338 284.114 156.573 283.786C155.824 283.443 155.168 282.982 154.606 282.405C154.059 281.811 153.63 281.132 153.318 280.367C153.021 279.602 152.873 278.79 152.873 277.931C152.873 276.776 153.138 275.722 153.669 274.77C154.2 273.817 154.934 273.052 155.871 272.474C156.823 271.897 157.908 271.608 159.126 271.608C160.359 271.608 161.429 271.905 162.334 272.498C163.256 273.076 163.966 273.841 164.466 274.793C164.981 275.73 165.239 276.745 165.239 277.838C165.239 277.994 165.231 278.15 165.215 278.306C165.215 278.447 165.207 278.556 165.192 278.634H155.051C155.113 279.43 155.332 280.141 155.707 280.765C156.097 281.374 156.597 281.858 157.205 282.217C157.814 282.561 158.47 282.732 159.173 282.732C159.922 282.732 160.625 282.545 161.281 282.17C161.952 281.796 162.413 281.304 162.662 280.695L164.442 281.187C164.177 281.78 163.779 282.311 163.248 282.779C162.733 283.248 162.116 283.615 161.398 283.88C160.695 284.145 159.93 284.278 159.102 284.278ZM154.981 277.205H163.318C163.256 276.409 163.029 275.706 162.639 275.098C162.249 274.489 161.749 274.012 161.14 273.669C160.531 273.325 159.86 273.154 159.126 273.154C158.408 273.154 157.744 273.325 157.135 273.669C156.526 274.012 156.027 274.489 155.636 275.098C155.262 275.706 155.043 276.409 154.981 277.205ZM173.27 283.435C173.098 283.513 172.864 283.615 172.568 283.739C172.271 283.864 171.927 283.974 171.537 284.067C171.147 284.161 170.733 284.208 170.296 284.208C169.796 284.208 169.336 284.122 168.914 283.95C168.492 283.763 168.157 283.482 167.907 283.107C167.657 282.717 167.532 282.233 167.532 281.655V273.435H165.869V271.819H167.532V267.744H169.593V271.819H172.333V273.435H169.593V281.023C169.624 281.46 169.773 281.788 170.038 282.006C170.304 282.209 170.616 282.311 170.975 282.311C171.381 282.311 171.756 282.241 172.099 282.1C172.443 281.96 172.669 281.858 172.778 281.796L173.27 283.435ZM173.752 280.508C173.752 279.727 173.97 279.055 174.407 278.493C174.86 277.916 175.477 277.471 176.258 277.158C177.038 276.846 177.944 276.69 178.974 276.69C179.521 276.69 180.099 276.737 180.707 276.831C181.316 276.909 181.855 277.034 182.323 277.205V276.315C182.323 275.379 182.042 274.645 181.48 274.114C180.918 273.567 180.122 273.294 179.091 273.294C178.42 273.294 177.772 273.419 177.148 273.669C176.539 273.903 175.891 274.247 175.204 274.699L174.454 273.247C175.251 272.701 176.047 272.295 176.843 272.029C177.639 271.748 178.467 271.608 179.326 271.608C180.887 271.608 182.12 272.045 183.026 272.919C183.932 273.778 184.384 274.98 184.384 276.526V281.702C184.384 281.952 184.431 282.139 184.525 282.264C184.634 282.373 184.806 282.436 185.04 282.451V284.044C184.837 284.075 184.658 284.099 184.501 284.114C184.361 284.13 184.244 284.138 184.15 284.138C183.666 284.138 183.299 284.005 183.049 283.739C182.815 283.474 182.683 283.193 182.651 282.896L182.604 282.124C182.074 282.81 181.379 283.341 180.52 283.716C179.661 284.091 178.81 284.278 177.967 284.278C177.155 284.278 176.429 284.114 175.789 283.786C175.149 283.443 174.649 282.99 174.29 282.428C173.931 281.85 173.752 281.21 173.752 280.508ZM181.715 281.374C181.902 281.155 182.05 280.937 182.159 280.718C182.269 280.484 182.323 280.289 182.323 280.133V278.611C181.839 278.423 181.332 278.283 180.801 278.189C180.27 278.08 179.747 278.025 179.232 278.025C178.186 278.025 177.335 278.236 176.679 278.657C176.039 279.063 175.719 279.625 175.719 280.344C175.719 280.734 175.82 281.116 176.023 281.491C176.242 281.85 176.554 282.147 176.96 282.381C177.382 282.615 177.897 282.732 178.506 282.732C179.146 282.732 179.755 282.608 180.333 282.358C180.91 282.092 181.371 281.764 181.715 281.374ZM187.211 284.044V271.819H189.272V284.044H187.211ZM187.211 269.524V266.947H189.272V269.524H187.211ZM192.187 266.947H194.248V280.882C194.248 281.554 194.342 281.967 194.529 282.124C194.717 282.28 194.943 282.358 195.209 282.358C195.537 282.358 195.849 282.326 196.145 282.264C196.442 282.186 196.692 282.108 196.895 282.03L197.223 283.716C196.879 283.857 196.473 283.974 196.005 284.067C195.537 284.161 195.123 284.208 194.764 284.208C193.967 284.208 193.335 283.981 192.867 283.529C192.414 283.076 192.187 282.444 192.187 281.632V266.947ZM202.566 284.278C201.551 284.278 200.598 284.114 199.708 283.786C198.818 283.443 198.053 282.935 197.413 282.264L198.209 280.812C198.912 281.468 199.615 281.936 200.317 282.217C201.02 282.498 201.738 282.639 202.472 282.639C203.315 282.639 204.002 282.483 204.533 282.17C205.064 281.842 205.329 281.366 205.329 280.742C205.329 280.289 205.189 279.953 204.908 279.735C204.642 279.516 204.26 279.337 203.76 279.196C203.26 279.04 202.667 278.868 201.98 278.681C201.137 278.431 200.427 278.166 199.849 277.884C199.271 277.603 198.834 277.252 198.537 276.831C198.241 276.409 198.092 275.878 198.092 275.238C198.092 274.457 198.295 273.802 198.701 273.271C199.107 272.724 199.662 272.311 200.364 272.029C201.082 271.748 201.894 271.608 202.8 271.608C203.705 271.608 204.525 271.748 205.259 272.029C205.993 272.311 206.625 272.724 207.156 273.271L206.219 274.699C205.735 274.2 205.204 273.833 204.627 273.599C204.049 273.349 203.401 273.224 202.683 273.224C202.261 273.224 201.847 273.279 201.441 273.388C201.036 273.482 200.7 273.661 200.434 273.927C200.169 274.176 200.036 274.535 200.036 275.004C200.036 275.394 200.138 275.706 200.341 275.941C200.559 276.159 200.872 276.347 201.278 276.503C201.699 276.659 202.207 276.831 202.8 277.018C203.721 277.283 204.517 277.549 205.189 277.814C205.876 278.08 206.406 278.423 206.781 278.845C207.156 279.266 207.343 279.852 207.343 280.601C207.343 281.757 206.906 282.662 206.032 283.318C205.157 283.958 204.002 284.278 202.566 284.278ZM219.451 267.416H221.23L228.022 284.044H225.774L223.807 279.173H216.827L214.884 284.044H212.635L219.451 267.416ZM223.338 277.533L220.34 269.851L217.249 277.533H223.338ZM228.306 277.955C228.306 276.799 228.54 275.745 229.008 274.793C229.492 273.825 230.148 273.052 230.976 272.474C231.819 271.897 232.779 271.608 233.856 271.608C234.84 271.608 235.722 271.866 236.503 272.381C237.284 272.896 237.892 273.521 238.33 274.254V266.947H240.391V281.702C240.391 281.952 240.437 282.139 240.531 282.264C240.64 282.373 240.812 282.436 241.046 282.451V284.044C240.656 284.106 240.352 284.138 240.133 284.138C239.727 284.138 239.368 283.997 239.056 283.716C238.759 283.435 238.611 283.123 238.611 282.779V281.749C238.127 282.529 237.479 283.146 236.667 283.599C235.855 284.052 235.012 284.278 234.137 284.278C233.294 284.278 232.514 284.114 231.795 283.786C231.093 283.443 230.476 282.974 229.945 282.381C229.43 281.788 229.024 281.116 228.727 280.367C228.446 279.602 228.306 278.798 228.306 277.955ZM238.33 279.758V276.245C238.142 275.714 237.838 275.238 237.416 274.816C236.995 274.379 236.518 274.036 235.988 273.786C235.472 273.521 234.957 273.388 234.442 273.388C233.833 273.388 233.279 273.521 232.779 273.786C232.295 274.036 231.873 274.379 231.514 274.816C231.171 275.238 230.905 275.722 230.718 276.269C230.531 276.815 230.437 277.385 230.437 277.978C230.437 278.587 230.539 279.165 230.742 279.711C230.96 280.258 231.257 280.742 231.631 281.163C232.022 281.585 232.467 281.913 232.966 282.147C233.482 282.381 234.036 282.498 234.629 282.498C235.004 282.498 235.386 282.428 235.777 282.287C236.183 282.147 236.565 281.952 236.924 281.702C237.284 281.452 237.588 281.163 237.838 280.835C238.088 280.492 238.252 280.133 238.33 279.758ZM242.566 277.955C242.566 276.799 242.801 275.745 243.269 274.793C243.753 273.825 244.409 273.052 245.236 272.474C246.079 271.897 247.04 271.608 248.117 271.608C249.101 271.608 249.983 271.866 250.763 272.381C251.544 272.896 252.153 273.521 252.59 274.254V266.947H254.651V281.702C254.651 281.952 254.698 282.139 254.792 282.264C254.901 282.373 255.073 282.436 255.307 282.451V284.044C254.917 284.106 254.612 284.138 254.394 284.138C253.988 284.138 253.628 283.997 253.316 283.716C253.02 283.435 252.871 283.123 252.871 282.779V281.749C252.387 282.529 251.739 283.146 250.927 283.599C250.115 284.052 249.272 284.278 248.398 284.278C247.555 284.278 246.774 284.114 246.056 283.786C245.353 283.443 244.737 282.974 244.206 282.381C243.691 281.788 243.285 281.116 242.988 280.367C242.707 279.602 242.566 278.798 242.566 277.955ZM252.59 279.758V276.245C252.403 275.714 252.098 275.238 251.677 274.816C251.255 274.379 250.779 274.036 250.248 273.786C249.733 273.521 249.218 273.388 248.702 273.388C248.094 273.388 247.539 273.521 247.04 273.786C246.556 274.036 246.134 274.379 245.775 274.816C245.431 275.238 245.166 275.722 244.979 276.269C244.791 276.815 244.698 277.385 244.698 277.978C244.698 278.587 244.799 279.165 245.002 279.711C245.221 280.258 245.517 280.742 245.892 281.163C246.282 281.585 246.727 281.913 247.227 282.147C247.742 282.381 248.297 282.498 248.89 282.498C249.265 282.498 249.647 282.428 250.037 282.287C250.443 282.147 250.826 281.952 251.185 281.702C251.544 281.452 251.849 281.163 252.098 280.835C252.348 280.492 252.512 280.133 252.59 279.758ZM263.033 284.278C262.112 284.278 261.269 284.114 260.504 283.786C259.755 283.443 259.099 282.982 258.537 282.405C257.99 281.811 257.561 281.132 257.249 280.367C256.952 279.602 256.804 278.79 256.804 277.931C256.804 276.776 257.069 275.722 257.6 274.77C258.131 273.817 258.865 273.052 259.801 272.474C260.754 271.897 261.839 271.608 263.057 271.608C264.29 271.608 265.36 271.905 266.265 272.498C267.186 273.076 267.897 273.841 268.397 274.793C268.912 275.73 269.169 276.745 269.169 277.838C269.169 277.994 269.162 278.15 269.146 278.306C269.146 278.447 269.138 278.556 269.123 278.634H258.982C259.044 279.43 259.263 280.141 259.637 280.765C260.028 281.374 260.527 281.858 261.136 282.217C261.745 282.561 262.401 282.732 263.104 282.732C263.853 282.732 264.556 282.545 265.211 282.17C265.883 281.796 266.343 281.304 266.593 280.695L268.373 281.187C268.108 281.78 267.71 282.311 267.179 282.779C266.663 283.248 266.047 283.615 265.328 283.88C264.626 284.145 263.861 284.278 263.033 284.278ZM258.911 277.205H267.249C267.186 276.409 266.96 275.706 266.57 275.098C266.179 274.489 265.68 274.012 265.071 273.669C264.462 273.325 263.791 273.154 263.057 273.154C262.339 273.154 261.675 273.325 261.066 273.669C260.457 274.012 259.957 274.489 259.567 275.098C259.192 275.706 258.974 276.409 258.911 277.205ZM270.196 277.955C270.196 276.799 270.43 275.745 270.898 274.793C271.382 273.825 272.038 273.052 272.865 272.474C273.709 271.897 274.669 271.608 275.746 271.608C276.73 271.608 277.612 271.866 278.393 272.381C279.173 272.896 279.782 273.521 280.219 274.254V266.947H282.28V281.702C282.28 281.952 282.327 282.139 282.421 282.264C282.53 282.373 282.702 282.436 282.936 282.451V284.044C282.546 284.106 282.241 284.138 282.023 284.138C281.617 284.138 281.258 283.997 280.945 283.716C280.649 283.435 280.5 283.123 280.5 282.779V281.749C280.016 282.529 279.368 283.146 278.557 283.599C277.745 284.052 276.902 284.278 276.027 284.278C275.184 284.278 274.403 284.114 273.685 283.786C272.983 283.443 272.366 282.974 271.835 282.381C271.32 281.788 270.914 281.116 270.617 280.367C270.336 279.602 270.196 278.798 270.196 277.955ZM280.219 279.758V276.245C280.032 275.714 279.728 275.238 279.306 274.816C278.884 274.379 278.408 274.036 277.877 273.786C277.362 273.521 276.847 273.388 276.332 273.388C275.723 273.388 275.168 273.521 274.669 273.786C274.185 274.036 273.763 274.379 273.404 274.816C273.061 275.238 272.795 275.722 272.608 276.269C272.421 276.815 272.327 277.385 272.327 277.978C272.327 278.587 272.428 279.165 272.631 279.711C272.85 280.258 273.147 280.742 273.521 281.163C273.912 281.585 274.357 281.913 274.856 282.147C275.371 282.381 275.926 282.498 276.519 282.498C276.894 282.498 277.276 282.428 277.667 282.287C278.073 282.147 278.455 281.952 278.814 281.702C279.173 281.452 279.478 281.163 279.728 280.835C279.977 280.492 280.141 280.133 280.219 279.758ZM290.822 267.416L295.857 276.081L300.939 267.416H303.234L296.911 277.978V284.044H294.803V277.931L288.503 267.416H290.822ZM308.023 284.278C307.101 284.278 306.258 284.114 305.493 283.786C304.744 283.443 304.088 282.982 303.526 282.405C302.979 281.811 302.55 281.132 302.238 280.367C301.941 279.602 301.793 278.79 301.793 277.931C301.793 276.776 302.058 275.722 302.589 274.77C303.12 273.817 303.854 273.052 304.791 272.474C305.743 271.897 306.828 271.608 308.046 271.608C309.279 271.608 310.349 271.905 311.255 272.498C312.176 273.076 312.886 273.841 313.386 274.793C313.901 275.73 314.159 276.745 314.159 277.838C314.159 277.994 314.151 278.15 314.135 278.306C314.135 278.447 314.127 278.556 314.112 278.634H303.971C304.033 279.43 304.252 280.141 304.627 280.765C305.017 281.374 305.517 281.858 306.126 282.217C306.734 282.561 307.39 282.732 308.093 282.732C308.842 282.732 309.545 282.545 310.201 282.17C310.872 281.796 311.333 281.304 311.582 280.695L313.362 281.187C313.097 281.78 312.699 282.311 312.168 282.779C311.653 283.248 311.036 283.615 310.318 283.88C309.615 284.145 308.85 284.278 308.023 284.278ZM303.901 277.205H312.238C312.176 276.409 311.949 275.706 311.559 275.098C311.169 274.489 310.669 274.012 310.06 273.669C309.451 273.325 308.78 273.154 308.046 273.154C307.328 273.154 306.664 273.325 306.055 273.669C305.446 274.012 304.947 274.489 304.556 275.098C304.182 275.706 303.963 276.409 303.901 277.205ZM322.19 283.435C322.018 283.513 321.784 283.615 321.488 283.739C321.191 283.864 320.847 283.974 320.457 284.067C320.067 284.161 319.653 284.208 319.216 284.208C318.716 284.208 318.256 284.122 317.834 283.95C317.413 283.763 317.077 283.482 316.827 283.107C316.577 282.717 316.452 282.233 316.452 281.655V273.435H314.79V271.819H316.452V267.744H318.513V271.819H321.253V273.435H318.513V281.023C318.545 281.46 318.693 281.788 318.958 282.006C319.224 282.209 319.536 282.311 319.895 282.311C320.301 282.311 320.676 282.241 321.019 282.1C321.363 281.96 321.589 281.858 321.698 281.796L322.19 283.435ZM324.007 278.423V267.252H326.068V278.423H324.007ZM324.007 284.044V281.14H326.068V284.044H324.007ZM329.668 278.423V267.252H331.729V278.423H329.668ZM329.668 284.044V281.14H331.729V284.044H329.668Z" fill="black" fill-opacity="0.5"/>
<defs>
<filter id="filter0_d_96_2270" x="80.1341" y="50.0406" width="237.094" height="66.9289" filterUnits="userSpaceOnUse" color-interpolation-filters="sRGB">
<feFlood flood-opacity="0" result="BackgroundImageFix"/>
<feColorMatrix in="SourceAlpha" type="matrix" values="0 0 0 0 0 0 0 0 0 0 0 0 0 0 0 0 0 0 127 0" result="hardAlpha"/>
<feOffset dx="3.83561" dy="3.83561"/>
<feGaussianBlur stdDeviation="3.19634"/>
<feColorMatrix type="matrix" values="0 0 0 0 0.230539 0 0 0 0 0.370572 0 0 0 0 0.482993 0 0 0 0.1 0"/>
<feBlend mode="normal" in2="BackgroundImageFix" result="effect1_dropShadow_96_2270"/>
<feBlend mode="normal" in="SourceGraphic" in2="effect1_dropShadow_96_2270" result="shape"/>
</filter>
<filter id="filter1_d_96_2270" x="56.9285" y="119.652" width="237.094" height="66.9289" filterUnits="userSpaceOnUse" color-interpolation-filters="sRGB">
<feFlood flood-opacity="0" result="BackgroundImageFix"/>
<feColorMatrix in="SourceAlpha" type="matrix" values="0 0 0 0 0 0 0 0 0 0 0 0 0 0 0 0 0 0 127 0" result="hardAlpha"/>
<feOffset dx="3.83561" dy="3.83561"/>
<feGaussianBlur stdDeviation="3.19634"/>
<feColorMatrix type="matrix" values="0 0 0 0 0.230539 0 0 0 0 0.370572 0 0 0 0 0.482993 0 0 0 0.1 0"/>
<feBlend mode="normal" in2="BackgroundImageFix" result="effect1_dropShadow_96_2270"/>
<feBlend mode="normal" in="SourceGraphic" in2="effect1_dropShadow_96_2270" result="shape"/>
</filter>
</defs>
</svg>
