<svg width="23" height="25" viewBox="0 0 23 25" fill="none" xmlns="http://www.w3.org/2000/svg">
<path d="M6.97635 22.7093C7.98565 23.9923 9.57122 24.8191 11.3542 24.8191C13.1372 24.8191 14.7228 23.9923 15.7321 22.7093C12.8259 23.1031 9.88249 23.1031 6.97635 22.7093Z" fill="#266CA8"/>
<path d="M19.4532 9.21909V10.064C19.4532 11.078 19.7425 12.0693 20.2848 12.913L21.6138 14.9805C22.8276 16.8689 21.9009 19.4358 19.7898 20.033C14.2669 21.5952 8.44149 21.5952 2.91863 20.033C0.807455 19.4358 -0.119213 16.8689 1.09463 14.9805L2.42356 12.913C2.96586 12.0693 3.25524 11.078 3.25524 10.064V9.21909C3.25524 4.5799 6.88127 0.819092 11.3542 0.819092C15.8271 0.819092 19.4532 4.5799 19.4532 9.21909Z" fill="#266CA8"/>
</svg>
