<svg width="317" height="371" viewBox="0 0 317 371" fill="none" xmlns="http://www.w3.org/2000/svg">
<path d="M315.645 285.195C323.29 270.066 301.441 194.422 149.948 194.422C40.6004 194.422 -9.58725 256.338 1.50823 287.716" fill="url(#paint0_radial_96_2741)"/>
<mask id="mask0_96_2741" style="mask-type:luminance" maskUnits="userSpaceOnUse" x="0" y="194" width="317" height="94">
<path d="M315.645 285.195C323.29 270.066 301.441 194.422 149.948 194.422C40.6004 194.422 -9.58725 256.338 1.50823 287.716" fill="white"/>
</mask>
<g mask="url(#mask0_96_2741)">
<ellipse opacity="0.671968" cx="126.583" cy="236.842" rx="8.33142" ry="4.62769" fill="#F5F5F5"/>
<ellipse opacity="0.729957" cx="211.618" cy="229.778" rx="13.1451" ry="7.2192" fill="#F5F5F5"/>
<ellipse opacity="0.729957" cx="62.0228" cy="210.526" rx="13.1451" ry="7.2192" fill="#F5F5F5"/>
</g>
<g opacity="0.320685">
<ellipse cx="245.847" cy="68.2494" rx="8.88685" ry="8.88517" fill="#F5F5F5"/>
<path d="M240.273 61.2039C236.459 60.6662 233.671 61.0877 233.147 62.5255C232.308 64.8311 237.61 68.877 244.989 71.5624C252.369 74.2477 259.031 74.5556 259.87 72.25C260.398 70.7993 257.978 68.7695 254.656 66.7132" stroke="#F5F5F5" stroke-width="4.44342"/>
<path d="M254.752 68.2494C254.752 63.3423 250.773 59.3643 245.865 59.3643C240.957 59.3643 237.883 62.5017 237.249 66.0393C237.249 66.0393 242.357 69.2374 244.716 69.9247C245.468 70.144 246.214 70.4284 246.974 70.6805C247.823 70.9625 248.688 71.2112 249.563 71.427C250.162 71.5747 250.983 71.8029 251.75 71.9455C252.761 72.1335 253.666 72.2174 253.738 72.2174C253.863 72.2174 254 71.6587 254.283 71.0077C254.566 70.3566 254.752 68.2494 254.752 68.2494Z" fill="#F5F5F5"/>
</g>
<circle opacity="0.418364" cx="50.5923" cy="120.667" r="10.3623" fill="#F5F5F5"/>
<ellipse opacity="0.5" cx="162.749" cy="209.051" rx="31.0869" ry="8.53365" fill="#F5F5F5"/>
<path d="M150.831 33.3252L154.268 34.5761L90.6825 209.276C90.337 210.225 89.2877 210.714 88.3387 210.369C87.3896 210.023 86.9003 208.974 87.2457 208.025L150.831 33.3252Z" fill="#F5F5F5"/>
<path d="M150.744 33.4102L177.731 51.1909C179.95 52.6526 182.428 53.6756 185.031 54.2046C199.121 57.0674 208.307 70.7063 205.663 84.8387L199.289 118.921C199.259 119.079 199.035 119.084 198.996 118.928C196.038 106.999 184.784 98.9684 172.548 100.123C166.973 100.649 161.44 98.7682 157.341 94.9535L135.681 74.7956L150.744 33.4102Z" fill="#266CA8"/>
<circle cx="152.256" cy="32.8223" r="2.43819" transform="rotate(20 152.256 32.8223)" fill="#F5F5F5"/>
<path d="M111.426 137.811C111.426 137.811 113.254 136.896 113.254 137.201C113.254 137.506 113.254 140.858 113.254 140.858L112.035 141.468L111.426 137.811Z" fill="#FFE9E9"/>
<path d="M146.059 198.855C146.059 198.855 145.444 196.614 143.827 196.469C142.209 196.323 137.652 201.145 136.699 203.135C135.746 205.125 138.348 207.916 141.319 205.234C144.29 202.553 146.059 198.855 146.059 198.855Z" fill="#266CA8"/>
<path d="M147.963 205.397L146.105 200.213C145.356 198.125 142.512 197.86 141.39 199.773C141.166 200.154 141.042 200.583 141.049 201.026C141.08 203.122 141.422 209.464 144.394 210.319C147.963 211.346 147.963 205.397 147.963 205.397Z" fill="#266CA8"/>
<path d="M170.905 198.855C170.905 198.855 171.52 196.614 173.138 196.469C174.755 196.323 179.313 201.145 180.265 203.135C181.218 205.125 178.616 207.916 175.645 205.234C172.674 202.553 170.905 198.855 170.905 198.855Z" fill="#266CA8"/>
<path d="M169.002 205.397L170.86 200.213C171.608 198.125 174.452 197.86 175.574 199.773C175.798 200.154 175.922 200.583 175.915 201.026C175.884 203.122 175.542 209.464 172.57 210.319C169.002 211.346 169.002 205.397 169.002 205.397Z" fill="#266CA8"/>
<path d="M148.486 189.828C148.486 189.828 147.467 191.83 147.467 193.238C146.447 195.521 144.768 198.594 141.859 205.003C139.953 209.202 143.39 210.315 145.987 210.584C147.608 210.752 149.161 210.08 150.422 209.046L158.201 202.671L167.458 210.315C169.138 211.701 171.567 211.692 173.236 210.292C174.951 208.852 175.4 206.346 174.411 204.336C173.3 202.078 171.65 198.54 169.387 193.238C169.387 191.845 168.498 190.509 168.498 190.509L148.486 189.828Z" fill="#266CA8"/>
<path d="M170.672 173.982C172.335 176.411 171.891 182.484 171.891 182.484H167.015L168.963 195.579C169.058 196.216 168.703 196.831 168.098 197.053C165.918 197.85 160.755 199.622 157.433 199.819C154.102 200.016 148.446 198.289 146.062 197.5C145.417 197.286 145.052 196.633 145.232 195.978C145.752 194.084 147.125 189.76 150.411 182.484C151.428 183.674 145.681 182.484 145.681 182.484C145.681 182.484 146.04 177.076 147.51 173.982C148.979 170.888 152.386 168.821 152.386 168.821L161 167.513C161 167.513 164.577 168.211 166.405 169.186C168.234 170.16 169.009 171.553 170.672 173.982Z" fill="#F5F5F5"/>
<path d="M171.43 182.46L171.236 188.237L170.582 191.127L166.08 209.697L166.798 211.246L167.262 213.257L166.798 214.537L165.579 214.083L163.141 212.099L162.702 210.783C162.594 210.457 162.628 210.1 162.796 209.8L163.992 207.676L167.262 190.339L166.933 182.678L171.43 182.46Z" fill="#FDE7E6"/>
<path d="M145.803 182.678L146.33 188.236L146.984 191.127L151.486 209.696L150.768 211.245L150.304 213.257L150.768 214.537L151.987 214.082L154.425 212.099L154.864 210.782C154.972 210.456 154.938 210.099 154.769 209.799L153.574 207.675L150.304 190.339L150.558 182.678L145.803 182.678Z" fill="#FDE7E6"/>
<path fill-rule="evenodd" clip-rule="evenodd" d="M160.479 162.785H155.677V169.22H160.479V162.785ZM157.598 172.903C157.598 171.99 155.678 169.22 155.678 169.22H160.479C160.479 169.22 157.598 173.817 157.598 172.903Z" fill="#8BC63E" fill-opacity="0.08"/>
<ellipse cx="157.8" cy="161.72" rx="4.25693" ry="6.33929" fill="#FFE9E9"/>
<path fill-rule="evenodd" clip-rule="evenodd" d="M153.127 162.777C153.468 161.568 153.468 158.904 154.149 158.817C154.83 158.73 156.192 159.234 157.554 158.255C158.235 157.718 158.576 157.651 158.576 157.381C161.982 158.024 159.945 159.964 161.641 162.102C161.818 162.325 162.322 162.102 162.322 162.102C162.322 162.102 162.322 156.839 161.982 156.369C161.641 155.9 160.279 154.009 159.598 155.358C159.598 154.683 158.235 153.987 156.873 154.504C155.511 155.02 153.468 156.032 153.127 157.381C152.787 158.73 152.446 161.428 153.127 162.777Z" fill="#513450"/>
<path d="M51.2341 352.647V365.388H49.1263V348.759H50.9062L61.0705 361.758V348.783H63.1783V365.388H61.2579L51.2341 352.647ZM71.4864 365.622C70.5652 365.622 69.7299 365.458 68.9804 365.13C68.231 364.787 67.583 364.326 67.0366 363.748C66.4901 363.155 66.0685 362.476 65.7719 361.711C65.4752 360.946 65.3269 360.142 65.3269 359.298C65.3269 358.44 65.4752 357.628 65.7719 356.863C66.0685 356.098 66.4901 355.426 67.0366 354.849C67.583 354.255 68.231 353.795 68.9804 353.467C69.7455 353.123 70.5808 352.952 71.4864 352.952C72.4075 352.952 73.2429 353.123 73.9923 353.467C74.7417 353.795 75.3897 354.255 75.9362 354.849C76.4982 355.426 76.9276 356.098 77.2243 356.863C77.5209 357.628 77.6692 358.44 77.6692 359.298C77.6692 360.142 77.5209 360.946 77.2243 361.711C76.9276 362.476 76.506 363.155 75.9596 363.748C75.4131 364.326 74.7574 364.787 73.9923 365.13C73.2429 365.458 72.4075 365.622 71.4864 365.622ZM67.4347 359.322C67.4347 360.165 67.6143 360.93 67.9734 361.617C68.3481 362.304 68.8399 362.851 69.4488 363.256C70.0577 363.647 70.7369 363.842 71.4864 363.842C72.2358 363.842 72.915 363.639 73.5239 363.233C74.1484 362.827 74.6403 362.281 74.9994 361.594C75.3741 360.891 75.5614 360.118 75.5614 359.275C75.5614 358.432 75.3741 357.667 74.9994 356.98C74.6403 356.293 74.1484 355.746 73.5239 355.341C72.915 354.935 72.2358 354.732 71.4864 354.732C70.7369 354.732 70.0577 354.942 69.4488 355.364C68.8399 355.77 68.3481 356.316 67.9734 357.003C67.6143 357.69 67.4347 358.463 67.4347 359.322ZM92.3433 365.505C91.0162 365.505 89.8998 365.278 88.9943 364.826C88.0887 364.357 87.3627 363.733 86.8162 362.952C86.2697 362.156 85.8716 361.258 85.6218 360.259C85.372 359.259 85.2471 358.229 85.2471 357.167V348.759H87.3549V357.167C87.3549 357.979 87.4329 358.775 87.5891 359.556C87.7608 360.321 88.0341 361.008 88.4088 361.617C88.7835 362.226 89.2909 362.71 89.9311 363.069C90.5712 363.428 91.3675 363.608 92.3199 363.608C93.2879 363.608 94.092 363.428 94.7322 363.069C95.3723 362.694 95.8798 362.203 96.2545 361.594C96.6292 360.969 96.8946 360.274 97.0508 359.509C97.2225 358.744 97.3084 357.964 97.3084 357.167V348.759H99.4162V357.167C99.4162 358.291 99.2835 359.361 99.018 360.376C98.7682 361.375 98.3623 362.257 97.8002 363.022C97.2381 363.787 96.5043 364.396 95.5987 364.849C94.7088 365.286 93.6236 365.505 92.3433 365.505ZM106.259 365.622C105.244 365.622 104.292 365.458 103.402 365.13C102.512 364.787 101.747 364.279 101.107 363.608L101.903 362.156C102.606 362.811 103.308 363.28 104.011 363.561C104.713 363.842 105.432 363.982 106.166 363.982C107.009 363.982 107.696 363.826 108.226 363.514C108.757 363.186 109.023 362.71 109.023 362.085C109.023 361.633 108.882 361.297 108.601 361.078C108.336 360.86 107.953 360.68 107.454 360.54C106.954 360.384 106.361 360.212 105.674 360.025C104.831 359.775 104.12 359.509 103.542 359.228C102.965 358.947 102.528 358.596 102.231 358.174C101.934 357.753 101.786 357.222 101.786 356.582C101.786 355.801 101.989 355.145 102.395 354.614C102.801 354.068 103.355 353.654 104.058 353.373C104.776 353.092 105.588 352.952 106.493 352.952C107.399 352.952 108.219 353.092 108.953 353.373C109.686 353.654 110.319 354.068 110.85 354.614L109.913 356.043C109.429 355.543 108.898 355.177 108.32 354.942C107.742 354.693 107.095 354.568 106.376 354.568C105.955 354.568 105.541 354.622 105.135 354.732C104.729 354.825 104.393 355.005 104.128 355.27C103.863 355.52 103.73 355.879 103.73 356.348C103.73 356.738 103.831 357.05 104.034 357.284C104.253 357.503 104.565 357.69 104.971 357.846C105.393 358.003 105.9 358.174 106.493 358.362C107.415 358.627 108.211 358.893 108.882 359.158C109.569 359.423 110.1 359.767 110.475 360.188C110.85 360.61 111.037 361.196 111.037 361.945C111.037 363.1 110.6 364.006 109.725 364.662C108.851 365.302 107.696 365.622 106.259 365.622ZM118.444 365.622C117.523 365.622 116.68 365.458 115.915 365.13C115.165 364.787 114.51 364.326 113.948 363.748C113.401 363.155 112.972 362.476 112.659 361.711C112.363 360.946 112.214 360.134 112.214 359.275C112.214 358.12 112.48 357.066 113.011 356.113C113.542 355.161 114.275 354.396 115.212 353.818C116.165 353.241 117.25 352.952 118.468 352.952C119.701 352.952 120.771 353.248 121.676 353.842C122.597 354.419 123.308 355.184 123.807 356.137C124.323 357.074 124.58 358.088 124.58 359.181C124.58 359.338 124.572 359.494 124.557 359.65C124.557 359.79 124.549 359.9 124.533 359.978H114.393C114.455 360.774 114.674 361.484 115.048 362.109C115.439 362.718 115.938 363.202 116.547 363.561C117.156 363.904 117.812 364.076 118.514 364.076C119.264 364.076 119.966 363.889 120.622 363.514C121.294 363.139 121.754 362.648 122.004 362.039L123.784 362.53C123.519 363.124 123.12 363.655 122.59 364.123C122.074 364.591 121.458 364.958 120.739 365.224C120.037 365.489 119.272 365.622 118.444 365.622ZM114.322 358.549H122.66C122.597 357.753 122.371 357.05 121.981 356.441C121.59 355.832 121.091 355.356 120.482 355.013C119.873 354.669 119.201 354.497 118.468 354.497C117.749 354.497 117.086 354.669 116.477 355.013C115.868 355.356 115.368 355.832 114.978 356.441C114.603 357.05 114.385 357.753 114.322 358.549ZM132.867 354.966C131.836 354.981 130.923 355.247 130.127 355.762C129.346 356.262 128.792 356.956 128.464 357.846V365.388H126.403V353.162H128.323V355.996C128.745 355.153 129.299 354.474 129.986 353.959C130.689 353.428 131.422 353.131 132.188 353.069C132.344 353.069 132.476 353.069 132.586 353.069C132.695 353.069 132.789 353.077 132.867 353.092V354.966ZM138.635 365.622C137.62 365.622 136.667 365.458 135.777 365.13C134.887 364.787 134.122 364.279 133.482 363.608L134.278 362.156C134.981 362.811 135.684 363.28 136.386 363.561C137.089 363.842 137.807 363.982 138.541 363.982C139.384 363.982 140.071 363.826 140.602 363.514C141.133 363.186 141.398 362.71 141.398 362.085C141.398 361.633 141.258 361.297 140.977 361.078C140.711 360.86 140.329 360.68 139.829 360.54C139.329 360.384 138.736 360.212 138.049 360.025C137.206 359.775 136.496 359.509 135.918 359.228C135.34 358.947 134.903 358.596 134.606 358.174C134.31 357.753 134.161 357.222 134.161 356.582C134.161 355.801 134.364 355.145 134.77 354.614C135.176 354.068 135.731 353.654 136.433 353.373C137.151 353.092 137.963 352.952 138.869 352.952C139.774 352.952 140.594 353.092 141.328 353.373C142.062 353.654 142.694 354.068 143.225 354.614L142.288 356.043C141.804 355.543 141.273 355.177 140.696 354.942C140.118 354.693 139.47 354.568 138.752 354.568C138.33 354.568 137.916 354.622 137.51 354.732C137.104 354.825 136.769 355.005 136.503 355.27C136.238 355.52 136.105 355.879 136.105 356.348C136.105 356.738 136.207 357.05 136.41 357.284C136.628 357.503 136.941 357.69 137.347 357.846C137.768 358.003 138.275 358.174 138.869 358.362C139.79 358.627 140.586 358.893 141.258 359.158C141.945 359.423 142.475 359.767 142.85 360.188C143.225 360.61 143.412 361.196 143.412 361.945C143.412 363.1 142.975 364.006 142.101 364.662C141.226 365.302 140.071 365.622 138.635 365.622ZM155.52 348.759H157.299L164.091 365.388H161.843L159.876 360.516H152.896L150.953 365.388H148.704L155.52 348.759ZM159.407 358.877L156.409 351.195L153.318 358.877H159.407ZM164.375 359.298C164.375 358.143 164.609 357.089 165.077 356.137C165.561 355.169 166.217 354.396 167.045 353.818C167.888 353.241 168.848 352.952 169.925 352.952C170.909 352.952 171.791 353.209 172.572 353.725C173.353 354.24 173.961 354.864 174.399 355.598V348.291H176.46V363.046C176.46 363.296 176.506 363.483 176.6 363.608C176.709 363.717 176.881 363.78 177.115 363.795V365.388C176.725 365.45 176.421 365.481 176.202 365.481C175.796 365.481 175.437 365.341 175.125 365.06C174.828 364.779 174.68 364.467 174.68 364.123V363.093C174.196 363.873 173.548 364.49 172.736 364.943C171.924 365.396 171.081 365.622 170.206 365.622C169.363 365.622 168.583 365.458 167.864 365.13C167.162 364.787 166.545 364.318 166.014 363.725C165.499 363.132 165.093 362.46 164.796 361.711C164.515 360.946 164.375 360.142 164.375 359.298ZM174.399 361.102V357.589C174.211 357.058 173.907 356.582 173.485 356.16C173.064 355.723 172.587 355.38 172.057 355.13C171.541 354.864 171.026 354.732 170.511 354.732C169.902 354.732 169.348 354.864 168.848 355.13C168.364 355.38 167.942 355.723 167.583 356.16C167.24 356.582 166.974 357.066 166.787 357.612C166.6 358.159 166.506 358.729 166.506 359.322C166.506 359.931 166.608 360.509 166.811 361.055C167.029 361.601 167.326 362.085 167.7 362.507C168.091 362.929 168.536 363.256 169.035 363.491C169.551 363.725 170.105 363.842 170.698 363.842C171.073 363.842 171.455 363.772 171.846 363.631C172.252 363.491 172.634 363.296 172.993 363.046C173.353 362.796 173.657 362.507 173.907 362.179C174.157 361.836 174.321 361.477 174.399 361.102ZM178.635 359.298C178.635 358.143 178.87 357.089 179.338 356.137C179.822 355.169 180.478 354.396 181.305 353.818C182.148 353.241 183.109 352.952 184.186 352.952C185.17 352.952 186.052 353.209 186.832 353.725C187.613 354.24 188.222 354.864 188.659 355.598V348.291H190.72V363.046C190.72 363.296 190.767 363.483 190.861 363.608C190.97 363.717 191.142 363.78 191.376 363.795V365.388C190.986 365.45 190.681 365.481 190.463 365.481C190.057 365.481 189.697 365.341 189.385 365.06C189.089 364.779 188.94 364.467 188.94 364.123V363.093C188.456 363.873 187.808 364.49 186.996 364.943C186.184 365.396 185.341 365.622 184.467 365.622C183.624 365.622 182.843 365.458 182.125 365.13C181.422 364.787 180.806 364.318 180.275 363.725C179.76 363.132 179.354 362.46 179.057 361.711C178.776 360.946 178.635 360.142 178.635 359.298ZM188.659 361.102V357.589C188.472 357.058 188.167 356.582 187.746 356.16C187.324 355.723 186.848 355.38 186.317 355.13C185.802 354.864 185.287 354.732 184.771 354.732C184.163 354.732 183.608 354.864 183.109 355.13C182.625 355.38 182.203 355.723 181.844 356.16C181.5 356.582 181.235 357.066 181.048 357.612C180.86 358.159 180.767 358.729 180.767 359.322C180.767 359.931 180.868 360.509 181.071 361.055C181.29 361.601 181.586 362.085 181.961 362.507C182.351 362.929 182.796 363.256 183.296 363.491C183.811 363.725 184.366 363.842 184.959 363.842C185.334 363.842 185.716 363.772 186.106 363.631C186.512 363.491 186.895 363.296 187.254 363.046C187.613 362.796 187.918 362.507 188.167 362.179C188.417 361.836 188.581 361.477 188.659 361.102ZM199.102 365.622C198.181 365.622 197.338 365.458 196.573 365.13C195.823 364.787 195.168 364.326 194.606 363.748C194.059 363.155 193.63 362.476 193.318 361.711C193.021 360.946 192.873 360.134 192.873 359.275C192.873 358.12 193.138 357.066 193.669 356.113C194.2 355.161 194.934 354.396 195.87 353.818C196.823 353.241 197.908 352.952 199.126 352.952C200.359 352.952 201.429 353.248 202.334 353.842C203.255 354.419 203.966 355.184 204.465 356.137C204.981 357.074 205.238 358.088 205.238 359.181C205.238 359.338 205.231 359.494 205.215 359.65C205.215 359.79 205.207 359.9 205.191 359.978H195.051C195.113 360.774 195.332 361.484 195.706 362.109C196.097 362.718 196.596 363.202 197.205 363.561C197.814 363.904 198.47 364.076 199.173 364.076C199.922 364.076 200.625 363.889 201.28 363.514C201.952 363.139 202.412 362.648 202.662 362.039L204.442 362.53C204.177 363.124 203.778 363.655 203.248 364.123C202.732 364.591 202.116 364.958 201.397 365.224C200.695 365.489 199.93 365.622 199.102 365.622ZM194.98 358.549H203.318C203.255 357.753 203.029 357.05 202.639 356.441C202.248 355.832 201.749 355.356 201.14 355.013C200.531 354.669 199.86 354.497 199.126 354.497C198.407 354.497 197.744 354.669 197.135 355.013C196.526 355.356 196.026 355.832 195.636 356.441C195.261 357.05 195.043 357.753 194.98 358.549ZM206.265 359.298C206.265 358.143 206.499 357.089 206.967 356.137C207.451 355.169 208.107 354.396 208.934 353.818C209.778 353.241 210.738 352.952 211.815 352.952C212.799 352.952 213.681 353.209 214.462 353.725C215.242 354.24 215.851 354.864 216.288 355.598V348.291H218.349V363.046C218.349 363.296 218.396 363.483 218.49 363.608C218.599 363.717 218.771 363.78 219.005 363.795V365.388C218.615 365.45 218.31 365.481 218.092 365.481C217.686 365.481 217.327 365.341 217.014 365.06C216.718 364.779 216.569 364.467 216.569 364.123V363.093C216.085 363.873 215.437 364.49 214.626 364.943C213.814 365.396 212.971 365.622 212.096 365.622C211.253 365.622 210.472 365.458 209.754 365.13C209.052 364.787 208.435 364.318 207.904 363.725C207.389 363.132 206.983 362.46 206.686 361.711C206.405 360.946 206.265 360.142 206.265 359.298ZM216.288 361.102V357.589C216.101 357.058 215.797 356.582 215.375 356.16C214.953 355.723 214.477 355.38 213.946 355.13C213.431 354.864 212.916 354.732 212.401 354.732C211.792 354.732 211.237 354.864 210.738 355.13C210.254 355.38 209.832 355.723 209.473 356.16C209.13 356.582 208.864 357.066 208.677 357.612C208.49 358.159 208.396 358.729 208.396 359.322C208.396 359.931 208.497 360.509 208.7 361.055C208.919 361.601 209.216 362.085 209.59 362.507C209.981 362.929 210.426 363.256 210.925 363.491C211.44 363.725 211.995 363.842 212.588 363.842C212.963 363.842 213.345 363.772 213.736 363.631C214.142 363.491 214.524 363.296 214.883 363.046C215.242 362.796 215.547 362.507 215.797 362.179C216.046 361.836 216.21 361.477 216.288 361.102ZM226.891 348.759L231.926 357.425L237.008 348.759H239.303L232.98 359.322V365.388H230.872V359.275L224.572 348.759H226.891ZM244.092 365.622C243.17 365.622 242.327 365.458 241.562 365.13C240.813 364.787 240.157 364.326 239.595 363.748C239.048 363.155 238.619 362.476 238.307 361.711C238.01 360.946 237.862 360.134 237.862 359.275C237.862 358.12 238.127 357.066 238.658 356.113C239.189 355.161 239.923 354.396 240.86 353.818C241.812 353.241 242.897 352.952 244.115 352.952C245.348 352.952 246.418 353.248 247.324 353.842C248.245 354.419 248.955 355.184 249.455 356.137C249.97 357.074 250.228 358.088 250.228 359.181C250.228 359.338 250.22 359.494 250.204 359.65C250.204 359.79 250.196 359.9 250.181 359.978H240.04C240.102 360.774 240.321 361.484 240.696 362.109C241.086 362.718 241.586 363.202 242.195 363.561C242.803 363.904 243.459 364.076 244.162 364.076C244.911 364.076 245.614 363.889 246.27 363.514C246.941 363.139 247.402 362.648 247.651 362.039L249.431 362.53C249.166 363.124 248.768 363.655 248.237 364.123C247.722 364.591 247.105 364.958 246.387 365.224C245.684 365.489 244.919 365.622 244.092 365.622ZM239.97 358.549H248.307C248.245 357.753 248.018 357.05 247.628 356.441C247.238 355.832 246.738 355.356 246.129 355.013C245.52 354.669 244.849 354.497 244.115 354.497C243.397 354.497 242.733 354.669 242.124 355.013C241.515 355.356 241.016 355.832 240.625 356.441C240.251 357.05 240.032 357.753 239.97 358.549ZM258.259 364.779C258.087 364.857 257.853 364.958 257.557 365.083C257.26 365.208 256.916 365.317 256.526 365.411C256.136 365.505 255.722 365.552 255.285 365.552C254.785 365.552 254.325 365.466 253.903 365.294C253.482 365.107 253.146 364.826 252.896 364.451C252.646 364.061 252.521 363.577 252.521 362.999V354.778H250.858V353.162H252.521V349.087H254.582V353.162H257.322V354.778H254.582V362.367C254.613 362.804 254.762 363.132 255.027 363.35C255.293 363.553 255.605 363.655 255.964 363.655C256.37 363.655 256.745 363.584 257.088 363.444C257.432 363.303 257.658 363.202 257.767 363.139L258.259 364.779ZM260.076 359.767V348.596H262.137V359.767H260.076ZM260.076 365.388V362.484H262.137V365.388H260.076ZM265.737 359.767V348.596H267.798V359.767H265.737ZM265.737 365.388V362.484H267.798V365.388H265.737Z" fill="black" fill-opacity="0.5"/>
<defs>
<radialGradient id="paint0_radial_96_2741" cx="0" cy="0" r="1" gradientUnits="userSpaceOnUse" gradientTransform="translate(137.468 226.776) rotate(-90) scale(54.2435 566.519)">
<stop stop-color="#EBEBEB"/>
<stop offset="0.536775" stop-color="#EBEBEB"/>
<stop offset="1" stop-color="#F5F5F5" stop-opacity="0"/>
</radialGradient>
</defs>
</svg>
