<svg width="40" height="40" viewBox="0 0 40 40" fill="none" xmlns="http://www.w3.org/2000/svg">
<path fill-rule="evenodd" clip-rule="evenodd" d="M33.3337 20.0003C33.3337 27.3641 27.3641 33.3337 20.0003 33.3337C12.6365 33.3337 6.66699 27.3641 6.66699 20.0003C6.66699 12.6365 12.6365 6.66699 20.0003 6.66699C27.3641 6.66699 33.3337 12.6365 33.3337 20.0003ZM15.9598 15.9599C16.3504 15.5693 16.9835 15.5693 17.374 15.9599L20.0003 18.5861L22.6265 15.9599C23.017 15.5694 23.6502 15.5694 24.0407 15.9599C24.4312 16.3504 24.4312 16.9836 24.0407 17.3741L21.4145 20.0003L24.0407 22.6265C24.4312 23.017 24.4312 23.6502 24.0407 24.0407C23.6502 24.4312 23.017 24.4312 22.6265 24.0407L20.0003 21.4145L17.3741 24.0407C16.9835 24.4313 16.3504 24.4313 15.9599 24.0407C15.5693 23.6502 15.5693 23.017 15.9599 22.6265L18.5861 20.0003L15.9598 17.3741C15.5693 16.9835 15.5693 16.3504 15.9598 15.9599Z" fill="black"/>
</svg>
