<svg width="49" height="49" viewBox="0 0 49 49" fill="none" xmlns="http://www.w3.org/2000/svg">
<rect x="0.592773" y="0.375977" width="47.7955" height="47.7955" rx="23.8978" fill="#266CA8"/>
<path fill-rule="evenodd" clip-rule="evenodd" d="M15.1965 34.8952C15.1965 34.4553 15.5532 34.0986 15.9931 34.0986H32.9871C33.427 34.0986 33.7837 34.4553 33.7837 34.8952C33.7837 35.3352 33.427 35.6918 32.9871 35.6918H15.9931C15.5532 35.6918 15.1965 35.3352 15.1965 34.8952Z" fill="white"/>
<path d="M22.9742 28.3319C23.2445 28.1211 23.4898 27.8758 23.9802 27.3854L30.2644 21.1012C29.4091 20.7452 28.3961 20.1605 27.4381 19.2024C26.4799 18.2442 25.8951 17.231 25.5391 16.3757L19.2548 22.66L19.2547 22.6601C18.7643 23.1505 18.5191 23.3957 18.3083 23.666C18.0595 23.985 17.8462 24.33 17.6722 24.6952C17.5247 25.0047 17.415 25.3337 17.1957 25.9916L16.0392 29.4612C15.9313 29.785 16.0155 30.142 16.2569 30.3833C16.4982 30.6247 16.8552 30.709 17.179 30.601L20.6486 29.4445C21.3065 29.2252 21.6355 29.1155 21.945 28.968C22.3102 28.794 22.6553 28.5807 22.9742 28.3319Z" fill="white"/>
<path d="M32.0082 19.3574C33.3131 18.0525 33.3131 15.9369 32.0082 14.632C30.7033 13.3271 28.5877 13.3271 27.2828 14.632L26.5291 15.3857C26.5394 15.4169 26.5501 15.4485 26.5612 15.4805C26.8375 16.2768 27.3587 17.3206 28.3393 18.3012C29.3199 19.2818 30.3637 19.803 31.16 20.0793C31.1919 20.0903 31.2233 20.101 31.2544 20.1113L32.0082 19.3574Z" fill="white"/>
</svg>
