<svg width="25" height="25" viewBox="0 0 25 25" fill="none" xmlns="http://www.w3.org/2000/svg">
<path fill-rule="evenodd" clip-rule="evenodd" d="M5.19336 20.7675C5.19336 20.4235 5.47229 20.1445 5.81636 20.1445H19.107C19.4511 20.1445 19.73 20.4235 19.73 20.7675C19.73 21.1116 19.4511 21.3905 19.107 21.3905H5.81636C5.47229 21.3905 5.19336 21.1116 5.19336 20.7675Z" fill="black"/>
<path d="M12.0631 14.892L12.0631 14.892L16.9779 9.97719C16.309 9.69879 15.5167 9.24148 14.7674 8.4922C14.018 7.7428 13.5607 6.95041 13.2823 6.28144L8.36743 11.1963L8.36742 11.1963C7.98389 11.5799 7.79211 11.7717 7.62719 11.9831C7.43264 12.2325 7.26584 12.5024 7.12975 12.788C7.01438 13.03 6.92862 13.2873 6.75709 13.8019L5.85259 16.5154C5.76818 16.7687 5.83409 17.0478 6.02283 17.2366C6.21158 17.4253 6.49076 17.4912 6.74399 17.4068L9.4575 16.5023C9.97207 16.3308 10.2294 16.245 10.4714 16.1297C10.757 15.9936 11.0269 15.8268 11.2763 15.6322C11.4878 15.4673 11.6796 15.2755 12.0631 14.892Z" fill="black"/>
<path d="M18.3417 8.61339C19.3622 7.59287 19.3622 5.93827 18.3417 4.91774C17.3212 3.89721 15.6666 3.89721 14.646 4.91774L14.0566 5.50721C14.0646 5.53158 14.073 5.55629 14.0817 5.58133C14.2977 6.20409 14.7054 7.02047 15.4723 7.78735C16.2392 8.55424 17.0556 8.96189 17.6783 9.17795C17.7032 9.1866 17.7278 9.19494 17.7521 9.20297L18.3417 8.61339Z" fill="black"/>
</svg>
