<svg width="22" height="23" viewBox="0 0 22 23" fill="none" xmlns="http://www.w3.org/2000/svg">
<path fill-rule="evenodd" clip-rule="evenodd" d="M10.5 2.25C5.66751 2.25 1.75 6.16751 1.75 11C1.75 15.8325 5.66751 19.75 10.5 19.75C15.3325 19.75 19.25 15.8325 19.25 11C19.25 6.16751 15.3325 2.25 10.5 2.25ZM0.25 11C0.25 5.33908 4.83908 0.75 10.5 0.75C16.1609 0.75 20.75 5.33908 20.75 11C20.75 13.5605 19.8111 15.9017 18.2589 17.6982L21.5303 20.9697C21.8232 21.2626 21.8232 21.7374 21.5303 22.0303C21.2374 22.3232 20.7626 22.3232 20.4697 22.0303L17.1982 18.7589C15.4017 20.3111 13.0605 21.25 10.5 21.25C4.83908 21.25 0.25 16.6609 0.25 11Z" fill="black"/>
</svg>
