<svg width="22" height="18" viewBox="0 0 22 18" fill="none" xmlns="http://www.w3.org/2000/svg">
<path d="M9.32241 3.02269L6.80975 6.30176C6.72587 6.41127 6.60717 6.48785 6.47389 6.51845C6.3406 6.54904 6.20099 6.53176 6.07885 6.46955L3.56973 5.19556C3.72221 4.85666 3.7672 4.47805 3.69846 4.11208C3.62972 3.7461 3.45066 3.41084 3.18603 3.15266C2.92141 2.89448 2.58429 2.72612 2.2213 2.67087C1.8583 2.61562 1.48736 2.67621 1.15977 2.84426C0.832173 3.0123 0.564109 3.27951 0.39264 3.60892C0.221171 3.93833 0.154768 4.31368 0.202613 4.68307C0.250458 5.05246 0.410187 5.39763 0.659715 5.67086C0.909243 5.9441 1.23624 6.13189 1.5955 6.20828L3.59335 15.8442C3.6633 16.1808 3.84527 16.4827 4.10867 16.6992C4.37206 16.9157 4.70085 17.0336 5.03978 17.0331H16.59C16.9287 17.0333 17.2573 16.9153 17.5204 16.6988C17.7836 16.4824 17.9654 16.1806 18.0353 15.8442L20.0331 6.20828C20.3924 6.13189 20.7194 5.9441 20.9689 5.67086C21.2184 5.39763 21.3782 5.05246 21.426 4.68307C21.4738 4.31368 21.4074 3.93833 21.236 3.60892C21.0645 3.27951 20.7964 3.0123 20.4688 2.84426C20.1413 2.67621 19.7703 2.61562 19.4073 2.67087C19.0443 2.72612 18.7072 2.89448 18.4426 3.15266C18.178 3.41084 17.9989 3.7461 17.9302 4.11208C17.8614 4.47805 17.9064 4.85666 18.0589 5.19556L15.5486 6.46955C15.4264 6.53176 15.2868 6.54904 15.1535 6.51845C15.0203 6.48785 14.9016 6.41127 14.8177 6.30176L12.305 3.02149C12.4765 2.74984 12.5728 2.43637 12.5838 2.11395C12.5948 1.79153 12.5201 1.47204 12.3676 1.18899C12.2151 0.905945 11.9904 0.669773 11.717 0.505247C11.4435 0.340722 11.1316 0.253906 10.8137 0.253906C10.4959 0.253906 10.1839 0.340722 9.91048 0.505247C9.63708 0.669773 9.41233 0.905945 9.25981 1.18899C9.10729 1.47204 9.03262 1.79153 9.04364 2.11395C9.05465 2.43637 9.15094 2.75104 9.32241 3.02269ZM10.8137 13.4376C10.5811 13.4376 10.3508 13.3911 10.1359 13.3008C9.92104 13.2104 9.72579 13.078 9.56133 12.9111C9.39686 12.7441 9.2664 12.5459 9.17739 12.3278C9.08838 12.1097 9.04257 11.8759 9.04257 11.6399C9.04257 11.4038 9.08838 11.17 9.17739 10.9519C9.2664 10.7338 9.39686 10.5356 9.56133 10.3687C9.72579 10.2017 9.92104 10.0693 10.1359 9.97896C10.3508 9.88862 10.5811 9.84212 10.8137 9.84212C11.2835 9.84212 11.734 10.0315 12.0661 10.3687C12.3983 10.7058 12.5849 11.1631 12.5849 11.6399C12.5849 12.1166 12.3983 12.5739 12.0661 12.9111C11.734 13.2482 11.2835 13.4376 10.8137 13.4376Z" fill="white"/>
</svg>
