<svg width="41" height="40" viewBox="0 0 41 40" fill="none" xmlns="http://www.w3.org/2000/svg">
<rect x="0.5" y="0.5" width="40" height="39" rx="19.5" stroke="white" stroke-opacity="0.66"/>
<path d="M30.01 19.505C30.01 14.2772 25.7328 10 20.505 10C15.2772 10 11 14.2772 11 19.505C11 24.2575 14.4456 28.1783 18.9604 28.8912V22.2377H16.5842V19.505H18.9604V17.3664C18.9604 14.9901 20.3862 13.6832 22.5248 13.6832C23.5941 13.6832 24.6634 13.9208 24.6634 13.9208V16.2971H23.4753C22.2872 16.2971 21.9308 17.0099 21.9308 17.7228V19.505H24.5446L24.0694 22.2377H21.8119V29.01C26.5644 28.2971 30.01 24.2575 30.01 19.505Z" fill="white" fill-opacity="0.66"/>
</svg>
