<svg width="40" height="40" viewBox="0 0 40 40" fill="none" xmlns="http://www.w3.org/2000/svg">
<path fill-rule="evenodd" clip-rule="evenodd" d="M33.3337 20.0003C33.3337 27.3641 27.3641 33.3337 20.0003 33.3337C12.6365 33.3337 6.66699 27.3641 6.66699 20.0003C6.66699 12.6365 12.6365 6.66699 20.0003 6.66699C27.3641 6.66699 33.3337 12.6365 33.3337 20.0003ZM20.0003 27.667C20.5526 27.667 21.0003 27.2193 21.0003 26.667V18.667C21.0003 18.1147 20.5526 17.667 20.0003 17.667C19.448 17.667 19.0003 18.1147 19.0003 18.667V26.667C19.0003 27.2193 19.448 27.667 20.0003 27.667ZM20.0003 13.3337C20.7367 13.3337 21.3337 13.9306 21.3337 14.667C21.3337 15.4034 20.7367 16.0003 20.0003 16.0003C19.2639 16.0003 18.667 15.4034 18.667 14.667C18.667 13.9306 19.2639 13.3337 20.0003 13.3337Z" fill="white" fill-opacity="0.4"/>
</svg>
