<svg width="41" height="40" viewBox="0 0 41 40" fill="none" xmlns="http://www.w3.org/2000/svg">
<rect x="0.5" y="0.5" width="40" height="39" rx="19.5" stroke="white" stroke-opacity="0.66"/>
<path d="M20.505 12.537C22.7593 12.537 23.0667 12.537 23.989 12.537C24.8087 12.537 25.2186 12.742 25.526 12.8445C25.9359 13.0494 26.2433 13.1519 26.5507 13.4593C26.8581 13.7667 27.0631 14.0741 27.1655 14.484C27.268 14.7914 27.3705 15.2013 27.473 16.021C27.473 16.9433 27.473 17.1482 27.473 19.505C27.473 21.8618 27.473 22.0667 27.473 22.989C27.473 23.8087 27.268 24.2186 27.1655 24.526C26.9606 24.9359 26.8581 25.2433 26.5507 25.5507C26.2433 25.8581 25.9359 26.0631 25.526 26.1655C25.2186 26.268 24.8087 26.3705 23.989 26.473C23.0667 26.473 22.8618 26.473 20.505 26.473C18.1482 26.473 17.9433 26.473 17.021 26.473C16.2013 26.473 15.7914 26.268 15.484 26.1655C15.0741 25.9606 14.7667 25.8581 14.4593 25.5507C14.1519 25.2433 13.9469 24.9359 13.8445 24.526C13.742 24.2186 13.6395 23.8087 13.537 22.989C13.537 22.0667 13.537 21.8618 13.537 19.505C13.537 17.1482 13.537 16.9433 13.537 16.021C13.537 15.2013 13.742 14.7914 13.8445 14.484C14.0494 14.0741 14.1519 13.7667 14.4593 13.4593C14.7667 13.1519 15.0741 12.9469 15.484 12.8445C15.7914 12.742 16.2013 12.6395 17.021 12.537C17.9433 12.537 18.2507 12.537 20.505 12.537ZM20.505 11C18.1482 11 17.9433 11 17.021 11C16.0988 11 15.484 11.2049 14.9716 11.4099C14.4593 11.6148 13.9469 11.9222 13.4346 12.4346C12.9222 12.9469 12.7173 13.3568 12.4099 13.9716C12.2049 14.484 12.1025 15.0988 12 16.021C12 16.9433 12 17.2507 12 19.505C12 21.8618 12 22.0667 12 22.989C12 23.9112 12.2049 24.526 12.4099 25.0384C12.6148 25.5507 12.9222 26.0631 13.4346 26.5754C13.9469 27.0878 14.3568 27.2927 14.9716 27.6001C15.484 27.8051 16.0988 27.9075 17.021 28.01C17.9433 28.01 18.2507 28.01 20.505 28.01C22.7593 28.01 23.0667 28.01 23.989 28.01C24.9112 28.01 25.526 27.8051 26.0384 27.6001C26.5507 27.3952 27.0631 27.0878 27.5754 26.5754C28.0878 26.0631 28.2927 25.6532 28.6001 25.0384C28.8051 24.526 28.9075 23.9112 29.01 22.989C29.01 22.0667 29.01 21.7593 29.01 19.505C29.01 17.2507 29.01 16.9433 29.01 16.021C29.01 15.0988 28.8051 14.484 28.6001 13.9716C28.3952 13.4593 28.0878 12.9469 27.5754 12.4346C27.0631 11.9222 26.6532 11.7173 26.0384 11.4099C25.526 11.2049 24.9112 11.1025 23.989 11C23.0667 11 22.8618 11 20.505 11Z" fill="white" fill-opacity="0.66"/>
<path d="M20.505 15.0988C18.0457 15.0988 16.0988 17.0457 16.0988 19.505C16.0988 21.9643 18.0457 23.9112 20.505 23.9112C22.9643 23.9112 24.9112 21.9643 24.9112 19.505C24.9112 17.0457 22.9643 15.0988 20.505 15.0988ZM20.505 22.3742C18.968 22.3742 17.6358 21.1445 17.6358 19.505C17.6358 17.968 18.8655 16.6358 20.505 16.6358C22.042 16.6358 23.3742 17.8655 23.3742 19.505C23.3742 21.042 22.042 22.3742 20.505 22.3742Z" fill="white" fill-opacity="0.66"/>
<path d="M25.0137 16.021C25.5796 16.021 26.0384 15.5623 26.0384 14.9963C26.0384 14.4304 25.5796 13.9716 25.0137 13.9716C24.4478 13.9716 23.989 14.4304 23.989 14.9963C23.989 15.5623 24.4478 16.021 25.0137 16.021Z" fill="white" fill-opacity="0.66"/>
</svg>
