<svg width="41" height="40" viewBox="0 0 41 40" fill="none" xmlns="http://www.w3.org/2000/svg">
<rect x="0.5" y="0.5" width="40" height="39" rx="19.5" stroke="white" stroke-opacity="0.66"/>
<path d="M15.8273 28.01H12.2126V16.6346H15.8273V28.01ZM14.0199 15.0399C12.8505 15.0399 12 14.1894 12 13.0199C12 11.8505 12.9568 11 14.0199 11C15.1894 11 16.0399 11.8505 16.0399 13.0199C16.0399 14.1894 15.1894 15.0399 14.0199 15.0399ZM29.01 28.01H25.3954V21.8439C25.3954 20.0366 24.6512 19.505 23.5881 19.505C22.5249 19.505 21.4618 20.3555 21.4618 21.9502V28.01H17.8472V16.6346H21.2492V18.2293C21.5681 17.4851 22.8439 16.3156 24.6512 16.3156C26.6711 16.3156 28.7974 17.4851 28.7974 20.9934V28.01H29.01Z" fill="white" fill-opacity="0.66"/>
</svg>
