<svg width="41" height="40" viewBox="0 0 41 40" fill="none" xmlns="http://www.w3.org/2000/svg">
<rect x="0.5" y="0.5" width="40" height="39" rx="19.5" stroke="white" stroke-opacity="0.66"/>
<path d="M29.5139 15.1265C29.2638 14.2509 28.6383 13.6254 27.7627 13.3753C26.2616 13 19.882 13 19.882 13C19.882 13 13.6276 13 12.0014 13.3753C11.1258 13.6254 10.5004 14.2509 10.2502 15.1265C10 16.7527 10 20.005 10 20.005C10 20.005 10 23.2573 10.3753 24.8835C10.6255 25.7591 11.2509 26.3846 12.1265 26.6347C13.6276 27.01 20.0071 27.01 20.0071 27.01C20.0071 27.01 26.2616 27.01 27.8878 26.6347C28.7634 26.3846 29.3889 25.7591 29.639 24.8835C30.0143 23.2573 30.0143 20.005 30.0143 20.005C30.0143 20.005 30.0143 16.7527 29.5139 15.1265ZM18.0057 23.0071V17.0029L23.2595 20.005L18.0057 23.0071Z" fill="white" fill-opacity="0.66"/>
</svg>
