<svg width="114" height="115" viewBox="0 0 114 115" fill="none" xmlns="http://www.w3.org/2000/svg">
<path d="M56.9994 35.5537C58.5734 35.5537 59.8494 36.8297 59.8494 38.4037V61.2037C59.8494 62.7777 58.5734 64.0537 56.9994 64.0537C55.4254 64.0537 54.1494 62.7777 54.1494 61.2037V38.4037C54.1494 36.8297 55.4254 35.5537 56.9994 35.5537Z" fill="#266CA8"/>
<path d="M56.9994 76.4037C59.0981 76.4037 60.7994 74.7024 60.7994 72.6037C60.7994 70.505 59.0981 68.8037 56.9994 68.8037C54.9007 68.8037 53.1994 70.505 53.1994 72.6037C53.1994 74.7024 54.9007 76.4037 56.9994 76.4037Z" fill="#266CA8"/>
<path fill-rule="evenodd" clip-rule="evenodd" d="M16.1494 57.4037C16.1494 34.8429 34.4386 16.5537 56.9994 16.5537C79.5602 16.5537 97.8494 34.8429 97.8494 57.4037C97.8494 79.9645 79.5602 98.2537 56.9994 98.2537C34.4386 98.2537 16.1494 79.9645 16.1494 57.4037ZM56.9994 22.2537C37.5866 22.2537 21.8494 37.9909 21.8494 57.4037C21.8494 76.8165 37.5866 92.5537 56.9994 92.5537C76.4122 92.5537 92.1494 76.8165 92.1494 57.4037C92.1494 37.9909 76.4122 22.2537 56.9994 22.2537Z" fill="#266CA8"/>
</svg>
