<svg width="345" height="221" viewBox="0 0 345 221" fill="none" xmlns="http://www.w3.org/2000/svg">
<path d="M36.9382 87.4998C14.3113 125.528 44.9481 145.816 64.4193 151.61C65.0645 151.802 65.724 151.888 66.3972 151.888H182.088L217.62 31.5393C199.972 0.786027 168.039 -1.80587 154.279 0.742344C101.859 8.43067 87.5886 53.7452 87.0061 75.4414C63.9941 65.6251 50.7635 73.1486 41.1382 82.2474C39.5073 83.7891 38.0857 85.5712 36.9382 87.4998Z" fill="#F8F8F8"/>
<path d="M83.4758 161.411H286.246C310.184 158.441 317.043 141.244 317.479 133.017C319.926 101.739 297.676 91.5902 286.246 90.4253C280.479 47.7901 249.479 39.7523 234.699 41.0628C217.051 10.3095 185.118 7.71757 171.358 10.2658C118.937 17.9541 104.667 63.2686 104.085 84.9648C81.0727 75.1485 67.8421 82.6721 58.2168 91.7709C56.586 93.3125 55.1643 95.0947 54.0168 97.0233C31.3899 135.052 62.0267 155.34 81.4979 161.134C82.1431 161.326 82.8026 161.411 83.4758 161.411Z" fill="#EEF2F5"/>
<path d="M207.043 60.7207H167.989C167.024 60.7207 166.241 61.503 166.241 62.468V95.0124C166.241 95.9774 165.459 96.7597 164.494 96.7597H155.36C153.913 96.7597 153.093 98.4181 153.972 99.568L185.83 141.259C186.526 142.17 187.898 142.174 188.6 141.267L220.851 99.5762C221.74 98.4278 220.921 96.7597 219.469 96.7597H209.749C208.768 96.7597 207.979 95.9514 208.003 94.97L208.789 62.5104C208.813 61.5291 208.024 60.7207 207.043 60.7207Z" fill="#266CA8"/>
<path d="M13.2735 200.908V214.192H11.0757V196.854H12.9316L23.5299 210.407V196.879H25.7277V214.192H23.7253L13.2735 200.908ZM34.3905 214.437C33.43 214.437 32.559 214.266 31.7776 213.924C30.9961 213.566 30.3205 213.085 29.7507 212.483C29.1809 211.864 28.7413 211.156 28.432 210.358C28.1227 209.561 27.968 208.722 27.968 207.843C27.968 206.948 28.1227 206.101 28.432 205.304C28.7413 204.506 29.1809 203.806 29.7507 203.203C30.3205 202.585 30.9961 202.104 31.7776 201.763C32.5753 201.404 33.4463 201.225 34.3905 201.225C35.351 201.225 36.222 201.404 37.0034 201.763C37.7849 202.104 38.4605 202.585 39.0303 203.203C39.6164 203.806 40.0641 204.506 40.3734 205.304C40.6827 206.101 40.8374 206.948 40.8374 207.843C40.8374 208.722 40.6827 209.561 40.3734 210.358C40.0641 211.156 39.6245 211.864 39.0547 212.483C38.4849 213.085 37.8012 213.566 37.0034 213.924C36.222 214.266 35.351 214.437 34.3905 214.437ZM30.1658 207.868C30.1658 208.747 30.3531 209.544 30.7275 210.261C31.1182 210.977 31.631 211.547 32.266 211.97C32.9009 212.377 33.6091 212.581 34.3905 212.581C35.1719 212.581 35.8801 212.369 36.515 211.946C37.1662 211.522 37.6791 210.953 38.0535 210.236C38.4442 209.504 38.6396 208.698 38.6396 207.819C38.6396 206.94 38.4442 206.142 38.0535 205.426C37.6791 204.709 37.1662 204.139 36.515 203.716C35.8801 203.293 35.1719 203.081 34.3905 203.081C33.6091 203.081 32.9009 203.301 32.266 203.741C31.631 204.164 31.1182 204.734 30.7275 205.45C30.3531 206.166 30.1658 206.972 30.1658 207.868ZM48.983 214.192V196.854H54.9903C56.8462 196.854 58.3928 197.245 59.6301 198.026C60.8837 198.792 61.8198 199.833 62.4384 201.152C63.057 202.455 63.3664 203.903 63.3664 205.499C63.3664 207.257 63.0245 208.787 62.3407 210.09C61.657 211.392 60.6883 212.402 59.4347 213.118C58.1812 213.834 56.6997 214.192 54.9903 214.192H48.983ZM61.1441 205.499C61.1441 204.196 60.8999 203.041 60.4115 202.031C59.9394 201.022 59.2475 200.232 58.3358 199.662C57.4242 199.093 56.309 198.808 54.9903 198.808H51.1808V212.239H54.9903C56.3253 212.239 57.4486 211.946 58.3603 211.36C59.2719 210.757 59.9638 209.951 60.436 208.942C60.9081 207.916 61.1441 206.769 61.1441 205.499ZM65.6763 196.854L70.9022 204.034L76.1281 196.854H78.5945L72.1232 205.645L78.3992 214.192H75.9327L70.9022 207.257L65.8717 214.192H63.3809L69.6568 205.645L63.1855 196.854H65.6763ZM80.2482 214.192V196.854H91.7012V198.808H82.446V204.595H90.236V206.427H82.446V214.192H80.2482ZM99.0888 214.192V196.854H110.542V198.808H101.287V204.595H109.077V206.427H101.287V214.192H99.0888ZM112.496 214.192V201.445H114.645V214.192H112.496ZM112.496 199.052V196.366H114.645V199.052H112.496ZM117.684 196.366H119.833V210.896C119.833 211.596 119.931 212.027 120.126 212.19C120.321 212.353 120.557 212.434 120.834 212.434C121.176 212.434 121.502 212.402 121.811 212.336C122.12 212.255 122.381 212.174 122.592 212.092L122.934 213.851C122.576 213.997 122.153 214.119 121.665 214.217C121.176 214.314 120.745 214.363 120.37 214.363C119.54 214.363 118.881 214.127 118.392 213.655C117.92 213.183 117.684 212.524 117.684 211.677V196.366ZM129.775 214.437C128.815 214.437 127.936 214.266 127.138 213.924C126.356 213.566 125.673 213.085 125.087 212.483C124.517 211.864 124.069 211.156 123.743 210.358C123.434 209.561 123.279 208.714 123.279 207.819C123.279 206.614 123.556 205.515 124.11 204.522C124.663 203.529 125.428 202.731 126.405 202.129C127.398 201.527 128.53 201.225 129.8 201.225C131.086 201.225 132.201 201.535 133.145 202.153C134.106 202.756 134.846 203.553 135.367 204.546C135.905 205.523 136.173 206.581 136.173 207.721C136.173 207.884 136.165 208.047 136.149 208.209C136.149 208.356 136.141 208.47 136.124 208.551H125.551C125.616 209.382 125.844 210.122 126.234 210.774C126.641 211.409 127.162 211.913 127.797 212.288C128.432 212.646 129.116 212.825 129.848 212.825C130.63 212.825 131.363 212.63 132.046 212.239C132.746 211.848 133.227 211.335 133.487 210.7L135.343 211.213C135.066 211.832 134.651 212.385 134.098 212.874C133.56 213.362 132.917 213.745 132.168 214.021C131.436 214.298 130.638 214.437 129.775 214.437ZM125.477 207.062H134.171C134.106 206.231 133.87 205.499 133.463 204.864C133.056 204.229 132.535 203.732 131.9 203.374C131.265 203.016 130.565 202.837 129.8 202.837C129.051 202.837 128.359 203.016 127.724 203.374C127.089 203.732 126.568 204.229 126.161 204.864C125.77 205.499 125.542 206.231 125.477 207.062ZM144.104 214.192V196.854H150.111C151.967 196.854 153.513 197.245 154.751 198.026C156.004 198.792 156.94 199.833 157.559 201.152C158.178 202.455 158.487 203.903 158.487 205.499C158.487 207.257 158.145 208.787 157.461 210.09C156.778 211.392 155.809 212.402 154.555 213.118C153.302 213.834 151.82 214.192 150.111 214.192H144.104ZM156.265 205.499C156.265 204.196 156.021 203.041 155.532 202.031C155.06 201.022 154.368 200.232 153.457 199.662C152.545 199.093 151.43 198.808 150.111 198.808H146.301V212.239H150.111C151.446 212.239 152.569 211.946 153.481 211.36C154.393 210.757 155.085 209.951 155.557 208.942C156.029 207.916 156.265 206.769 156.265 205.499ZM166.321 214.437C165.361 214.437 164.49 214.266 163.709 213.924C162.927 213.566 162.251 213.085 161.682 212.483C161.112 211.864 160.672 211.156 160.363 210.358C160.054 209.561 159.899 208.722 159.899 207.843C159.899 206.948 160.054 206.101 160.363 205.304C160.672 204.506 161.112 203.806 161.682 203.203C162.251 202.585 162.927 202.104 163.709 201.763C164.506 201.404 165.377 201.225 166.321 201.225C167.282 201.225 168.153 201.404 168.934 201.763C169.716 202.104 170.391 202.585 170.961 203.203C171.547 203.806 171.995 204.506 172.304 205.304C172.614 206.101 172.768 206.948 172.768 207.843C172.768 208.722 172.614 209.561 172.304 210.358C171.995 211.156 171.555 211.864 170.986 212.483C170.416 213.085 169.732 213.566 168.934 213.924C168.153 214.266 167.282 214.437 166.321 214.437ZM162.097 207.868C162.097 208.747 162.284 209.544 162.658 210.261C163.049 210.977 163.562 211.547 164.197 211.97C164.832 212.377 165.54 212.581 166.321 212.581C167.103 212.581 167.811 212.369 168.446 211.946C169.097 211.522 169.61 210.953 169.984 210.236C170.375 209.504 170.571 208.698 170.571 207.819C170.571 206.94 170.375 206.142 169.984 205.426C169.61 204.709 169.097 204.139 168.446 203.716C167.811 203.293 167.103 203.081 166.321 203.081C165.54 203.081 164.832 203.301 164.197 203.741C163.562 204.164 163.049 204.734 162.658 205.45C162.284 206.166 162.097 206.972 162.097 207.868ZM190.425 201.445H192.501L187.08 214.192H185.199L182.733 208.185L180.291 214.192H178.411L172.989 201.445H175.041L179.436 212.068L181.488 206.842L179.339 201.47H181.219L182.733 205.523L184.247 201.47H186.127L184.003 206.842L186.054 212.068L190.425 201.445ZM205.084 214.192H202.935V207.062C202.935 205.711 202.724 204.726 202.301 204.107C201.894 203.472 201.267 203.155 200.42 203.155C199.834 203.155 199.248 203.301 198.662 203.594C198.092 203.887 197.579 204.286 197.123 204.791C196.684 205.279 196.366 205.849 196.171 206.5V214.192H194.022V201.445H195.976V204.18C196.318 203.578 196.757 203.057 197.294 202.617C197.832 202.178 198.442 201.836 199.126 201.592C199.81 201.347 200.526 201.225 201.275 201.225C202.007 201.225 202.618 201.364 203.106 201.641C203.611 201.901 204.002 202.275 204.279 202.764C204.572 203.236 204.775 203.798 204.889 204.449C205.019 205.1 205.084 205.808 205.084 206.573V214.192ZM207.987 196.366H210.136V210.896C210.136 211.596 210.233 212.027 210.429 212.19C210.624 212.353 210.86 212.434 211.137 212.434C211.479 212.434 211.804 212.402 212.114 212.336C212.423 212.255 212.683 212.174 212.895 212.092L213.237 213.851C212.879 213.997 212.455 214.119 211.967 214.217C211.479 214.314 211.047 214.363 210.673 214.363C209.842 214.363 209.183 214.127 208.695 213.655C208.223 213.183 207.987 212.524 207.987 211.677V196.366ZM220.004 214.437C219.044 214.437 218.173 214.266 217.392 213.924C216.61 213.566 215.934 213.085 215.365 212.483C214.795 211.864 214.355 211.156 214.046 210.358C213.737 209.561 213.582 208.722 213.582 207.843C213.582 206.948 213.737 206.101 214.046 205.304C214.355 204.506 214.795 203.806 215.365 203.203C215.934 202.585 216.61 202.104 217.392 201.763C218.189 201.404 219.06 201.225 220.004 201.225C220.965 201.225 221.836 201.404 222.617 201.763C223.399 202.104 224.074 202.585 224.644 203.203C225.23 203.806 225.678 204.506 225.987 205.304C226.297 206.101 226.451 206.948 226.451 207.843C226.451 208.722 226.297 209.561 225.987 210.358C225.678 211.156 225.238 211.864 224.669 212.483C224.099 213.085 223.415 213.566 222.617 213.924C221.836 214.266 220.965 214.437 220.004 214.437ZM215.78 207.868C215.78 208.747 215.967 209.544 216.341 210.261C216.732 210.977 217.245 211.547 217.88 211.97C218.515 212.377 219.223 212.581 220.004 212.581C220.786 212.581 221.494 212.369 222.129 211.946C222.78 211.522 223.293 210.953 223.667 210.236C224.058 209.504 224.254 208.698 224.254 207.819C224.254 206.94 224.058 206.142 223.667 205.426C223.293 204.709 222.78 204.139 222.129 203.716C221.494 203.293 220.786 203.081 220.004 203.081C219.223 203.081 218.515 203.301 217.88 203.741C217.245 204.164 216.732 204.734 216.341 205.45C215.967 206.166 215.78 206.972 215.78 207.868ZM227.566 210.505C227.566 209.691 227.794 208.991 228.249 208.405C228.722 207.802 229.365 207.339 230.179 207.013C230.993 206.687 231.937 206.525 233.011 206.525C233.581 206.525 234.183 206.573 234.818 206.671C235.453 206.752 236.015 206.883 236.503 207.062V206.134C236.503 205.157 236.21 204.392 235.624 203.838C235.038 203.269 234.208 202.984 233.133 202.984C232.433 202.984 231.758 203.114 231.107 203.374C230.472 203.619 229.796 203.977 229.08 204.449L228.298 202.935C229.129 202.365 229.959 201.942 230.789 201.665C231.619 201.372 232.482 201.225 233.378 201.225C235.006 201.225 236.292 201.681 237.236 202.593C238.18 203.488 238.652 204.742 238.652 206.354V211.75C238.652 212.011 238.701 212.206 238.799 212.336C238.913 212.45 239.092 212.516 239.336 212.532V214.192C239.124 214.225 238.937 214.249 238.774 214.266C238.628 214.282 238.506 214.29 238.408 214.29C237.903 214.29 237.521 214.152 237.26 213.875C237.016 213.598 236.878 213.305 236.845 212.996L236.796 212.19C236.243 212.906 235.518 213.46 234.623 213.851C233.728 214.241 232.84 214.437 231.961 214.437C231.115 214.437 230.358 214.266 229.69 213.924C229.023 213.566 228.502 213.093 228.127 212.507C227.753 211.905 227.566 211.238 227.566 210.505ZM235.868 211.409C236.064 211.181 236.218 210.953 236.332 210.725C236.446 210.481 236.503 210.277 236.503 210.114V208.527C235.999 208.332 235.47 208.185 234.916 208.087C234.363 207.973 233.817 207.916 233.28 207.916C232.189 207.916 231.302 208.136 230.618 208.576C229.951 208.999 229.617 209.585 229.617 210.334C229.617 210.741 229.723 211.14 229.934 211.531C230.162 211.905 230.488 212.214 230.911 212.459C231.351 212.703 231.888 212.825 232.523 212.825C233.19 212.825 233.825 212.695 234.428 212.434C235.03 212.157 235.51 211.816 235.868 211.409ZM240.77 207.843C240.77 206.638 241.014 205.54 241.502 204.546C242.007 203.537 242.691 202.731 243.554 202.129C244.433 201.527 245.434 201.225 246.557 201.225C247.583 201.225 248.503 201.494 249.317 202.031C250.131 202.568 250.766 203.22 251.222 203.985V196.366H253.371V211.75C253.371 212.011 253.419 212.206 253.517 212.336C253.631 212.45 253.81 212.516 254.054 212.532V214.192C253.647 214.258 253.33 214.29 253.102 214.29C252.679 214.29 252.304 214.144 251.979 213.851C251.669 213.557 251.515 213.232 251.515 212.874V211.799C251.01 212.613 250.334 213.256 249.488 213.728C248.641 214.201 247.762 214.437 246.85 214.437C245.971 214.437 245.157 214.266 244.408 213.924C243.676 213.566 243.033 213.077 242.479 212.459C241.942 211.84 241.519 211.14 241.209 210.358C240.916 209.561 240.77 208.722 240.77 207.843ZM251.222 209.724V206.061C251.026 205.507 250.709 205.01 250.269 204.571C249.83 204.115 249.333 203.757 248.78 203.496C248.242 203.22 247.705 203.081 247.168 203.081C246.533 203.081 245.955 203.22 245.434 203.496C244.929 203.757 244.49 204.115 244.115 204.571C243.757 205.01 243.48 205.515 243.285 206.085C243.09 206.655 242.992 207.249 242.992 207.868C242.992 208.503 243.098 209.105 243.31 209.675C243.537 210.244 243.847 210.749 244.237 211.189C244.644 211.628 245.108 211.97 245.629 212.214C246.167 212.459 246.745 212.581 247.363 212.581C247.754 212.581 248.153 212.507 248.56 212.361C248.983 212.214 249.382 212.011 249.756 211.75C250.131 211.49 250.448 211.189 250.709 210.847C250.969 210.489 251.14 210.114 251.222 209.724ZM262.111 214.437C261.15 214.437 260.271 214.266 259.473 213.924C258.692 213.566 258.008 213.085 257.422 212.483C256.852 211.864 256.404 211.156 256.079 210.358C255.77 209.561 255.615 208.714 255.615 207.819C255.615 206.614 255.892 205.515 256.445 204.522C256.999 203.529 257.764 202.731 258.741 202.129C259.734 201.527 260.865 201.225 262.135 201.225C263.421 201.225 264.536 201.535 265.481 202.153C266.441 202.756 267.182 203.553 267.703 204.546C268.24 205.523 268.509 206.581 268.509 207.721C268.509 207.884 268.501 208.047 268.484 208.209C268.484 208.356 268.476 208.47 268.46 208.551H257.886C257.951 209.382 258.179 210.122 258.57 210.774C258.977 211.409 259.498 211.913 260.133 212.288C260.768 212.646 261.451 212.825 262.184 212.825C262.965 212.825 263.698 212.63 264.382 212.239C265.082 211.848 265.562 211.335 265.822 210.7L267.678 211.213C267.402 211.832 266.986 212.385 266.433 212.874C265.896 213.362 265.253 213.745 264.504 214.021C263.771 214.298 262.973 214.437 262.111 214.437ZM257.813 207.062H266.506C266.441 206.231 266.205 205.499 265.798 204.864C265.391 204.229 264.87 203.732 264.235 203.374C263.6 203.016 262.9 202.837 262.135 202.837C261.386 202.837 260.694 203.016 260.059 203.374C259.424 203.732 258.903 204.229 258.496 204.864C258.106 205.499 257.878 206.231 257.813 207.062ZM269.579 207.843C269.579 206.638 269.823 205.54 270.311 204.546C270.816 203.537 271.5 202.731 272.363 202.129C273.242 201.527 274.243 201.225 275.366 201.225C276.392 201.225 277.312 201.494 278.126 202.031C278.94 202.568 279.575 203.22 280.031 203.985V196.366H282.179V211.75C282.179 212.011 282.228 212.206 282.326 212.336C282.44 212.45 282.619 212.516 282.863 212.532V214.192C282.456 214.258 282.139 214.29 281.911 214.29C281.488 214.29 281.113 214.144 280.788 213.851C280.478 213.557 280.324 213.232 280.324 212.874V211.799C279.819 212.613 279.143 213.256 278.297 213.728C277.45 214.201 276.571 214.437 275.659 214.437C274.78 214.437 273.966 214.266 273.217 213.924C272.485 213.566 271.842 213.077 271.288 212.459C270.751 211.84 270.328 211.14 270.018 210.358C269.725 209.561 269.579 208.722 269.579 207.843ZM280.031 209.724V206.061C279.835 205.507 279.518 205.01 279.078 204.571C278.639 204.115 278.142 203.757 277.589 203.496C277.051 203.22 276.514 203.081 275.977 203.081C275.342 203.081 274.764 203.22 274.243 203.496C273.738 203.757 273.299 204.115 272.924 204.571C272.566 205.01 272.289 205.515 272.094 206.085C271.899 206.655 271.801 207.249 271.801 207.868C271.801 208.503 271.907 209.105 272.118 209.675C272.346 210.244 272.656 210.749 273.046 211.189C273.453 211.628 273.917 211.97 274.438 212.214C274.976 212.459 275.554 212.581 276.172 212.581C276.563 212.581 276.962 212.507 277.369 212.361C277.792 212.214 278.191 212.011 278.565 211.75C278.94 211.49 279.257 211.189 279.518 210.847C279.778 210.489 279.949 210.114 280.031 209.724ZM291.086 196.854L296.336 205.89L301.635 196.854H304.028L297.435 207.868V214.192H295.237V207.819L288.668 196.854H291.086ZM309.021 214.437C308.06 214.437 307.181 214.266 306.384 213.924C305.602 213.566 304.918 213.085 304.332 212.483C303.762 211.864 303.315 211.156 302.989 210.358C302.68 209.561 302.525 208.714 302.525 207.819C302.525 206.614 302.802 205.515 303.355 204.522C303.909 203.529 304.674 202.731 305.651 202.129C306.644 201.527 307.775 201.225 309.045 201.225C310.331 201.225 311.447 201.535 312.391 202.153C313.351 202.756 314.092 203.553 314.613 204.546C315.15 205.523 315.419 206.581 315.419 207.721C315.419 207.884 315.411 208.047 315.394 208.209C315.394 208.356 315.386 208.47 315.37 208.551H304.796C304.861 209.382 305.089 210.122 305.48 210.774C305.887 211.409 306.408 211.913 307.043 212.288C307.678 212.646 308.362 212.825 309.094 212.825C309.876 212.825 310.608 212.63 311.292 212.239C311.992 211.848 312.472 211.335 312.733 210.7L314.589 211.213C314.312 211.832 313.897 212.385 313.343 212.874C312.806 213.362 312.163 213.745 311.414 214.021C310.681 214.298 309.884 214.437 309.021 214.437ZM304.723 207.062H313.416C313.351 206.231 313.115 205.499 312.708 204.864C312.301 204.229 311.78 203.732 311.145 203.374C310.51 203.016 309.81 202.837 309.045 202.837C308.296 202.837 307.605 203.016 306.97 203.374C306.335 203.732 305.814 204.229 305.407 204.864C305.016 205.499 304.788 206.231 304.723 207.062ZM323.793 213.557C323.614 213.639 323.37 213.745 323.061 213.875C322.752 214.005 322.393 214.119 321.986 214.217C321.579 214.314 321.148 214.363 320.692 214.363C320.171 214.363 319.691 214.274 319.251 214.095C318.812 213.899 318.462 213.606 318.201 213.216C317.941 212.809 317.811 212.304 317.811 211.702V203.13H316.077V201.445H317.811V197.196H319.959V201.445H322.817V203.13H319.959V211.042C319.992 211.498 320.147 211.84 320.423 212.068C320.7 212.279 321.026 212.385 321.4 212.385C321.824 212.385 322.214 212.312 322.572 212.166C322.931 212.019 323.167 211.913 323.281 211.848L323.793 213.557ZM325.688 208.332V196.683H327.836V208.332H325.688ZM325.688 214.192V211.164H327.836V214.192H325.688ZM331.59 208.332V196.683H333.739V208.332H331.59ZM331.59 214.192V211.164H333.739V214.192H331.59Z" fill="black" fill-opacity="0.6"/>
</svg>
