<svg width="388" height="277" viewBox="0 0 388 277" fill="none" xmlns="http://www.w3.org/2000/svg">
<g clip-path="url(#clip0_96_3841)">
<circle cx="195.593" cy="91.123" r="52.4648" fill="white"/>
<circle opacity="0.4" cx="195.593" cy="91.1232" r="91.1232" stroke="#686B89" stroke-width="1.84087" stroke-dasharray="1.84 8.28"/>
<path opacity="0.5" d="M200.571 77.4814L199.893 108.316H195.206L194.528 77.4814H200.571ZM197.796 120.835C196.727 120.835 195.823 120.465 195.083 119.725C194.343 118.985 193.973 118.08 193.973 117.011C193.973 115.942 194.343 115.038 195.083 114.298C195.823 113.558 196.727 113.188 197.796 113.188C198.824 113.188 199.687 113.558 200.386 114.298C201.126 115.038 201.496 115.942 201.496 117.011C201.496 118.08 201.126 118.985 200.386 119.725C199.687 120.465 198.824 120.835 197.796 120.835Z" fill="#7277A7"/>
</g>
<g opacity="0.80882">
<ellipse cx="175.042" cy="226.427" rx="85.0626" ry="4.60218" fill="url(#paint0_linear_96_3841)" fill-opacity="0.3" style="mix-blend-mode:multiply"/>
</g>
<path fill-rule="evenodd" clip-rule="evenodd" d="M95.3447 123.826C92.7667 118.297 95.1586 111.726 100.687 109.148L154.076 84.252L158.029 92.7286L166.751 99.6502L166.999 111.966L172.728 122.074L173.389 134.38L188.096 145.423L188.835 158.794L192.197 166.003L138.808 190.899C133.28 193.477 126.708 191.085 124.13 185.556L95.3447 123.826Z" fill="#266CA8"/>
<mask id="mask0_96_3841" style="mask-type:luminance" maskUnits="userSpaceOnUse" x="94" y="84" width="99" height="108">
<path fill-rule="evenodd" clip-rule="evenodd" d="M95.3447 123.826C92.7667 118.297 95.1586 111.726 100.687 109.148L154.076 84.252L158.029 92.7286L166.751 99.6502L166.999 111.966L172.728 122.074L173.389 134.38L188.096 145.423L188.835 158.794L192.197 166.003L138.808 190.899C133.28 193.477 126.708 191.085 124.13 185.556L95.3447 123.826Z" fill="white"/>
</mask>
<g mask="url(#mask0_96_3841)">
<g opacity="0.648947">
<circle cx="138.146" cy="169.879" r="7.36349" transform="rotate(-25 138.146 169.879)" fill="white" style="mix-blend-mode:overlay"/>
</g>
<g opacity="0.648947">
<circle cx="145.653" cy="166.378" r="7.36349" transform="rotate(-25 145.653 166.378)" fill="white" style="mix-blend-mode:overlay"/>
</g>
<rect x="99.2354" y="132.168" width="79.1575" height="14.727" transform="rotate(-25 99.2354 132.168)" fill="white" fill-opacity="0.37"/>
</g>
<path fill-rule="evenodd" clip-rule="evenodd" d="M238.821 121.602L288.873 144.941C294.401 147.519 296.793 154.091 294.215 159.619L265.43 221.35C262.852 226.879 256.28 229.271 250.752 226.693L200.7 203.353L204.327 195.575L213.864 187.226L213.08 176.803L213.1 166.96L221.023 159.77L226.551 147.914L234.936 142.037L234.968 129.865L238.821 121.602Z" fill="#266CA8"/>
<mask id="mask1_96_3841" style="mask-type:luminance" maskUnits="userSpaceOnUse" x="200" y="121" width="96" height="107">
<path fill-rule="evenodd" clip-rule="evenodd" d="M238.821 121.602L288.873 144.941C294.401 147.519 296.793 154.091 294.215 159.619L265.43 221.35C262.852 226.879 256.28 229.271 250.752 226.693L200.7 203.353L204.327 195.575L213.864 187.226L213.08 176.803L213.1 166.96L221.023 159.77L226.551 147.914L234.936 142.037L234.968 129.865L238.821 121.602Z" fill="white"/>
</mask>
<g mask="url(#mask1_96_3841)">
<rect x="230.264" y="139.954" width="66.2714" height="14.727" transform="rotate(25 230.264 139.954)" fill="white" fill-opacity="0.37"/>
<rect x="227.441" y="187.387" width="36.8174" height="4.60218" transform="rotate(25 227.441 187.387)" fill="white" fill-opacity="0.3"/>
<rect x="238.956" y="201.896" width="20.2496" height="4.60218" transform="rotate(25 238.956 201.896)" fill="white" fill-opacity="0.3"/>
</g>
<g opacity="0.5">
<path d="M312.477 143.058L321.372 138.258C322.305 137.755 322.648 136.6 322.139 135.68C321.629 134.759 320.461 134.42 319.528 134.924L310.633 139.724C309.701 140.227 309.358 141.381 309.867 142.302C310.376 143.223 311.545 143.561 312.477 143.058Z" fill="url(#paint1_linear_96_3841)"/>
<path d="M303.934 132.639L310.108 124.636C310.755 123.797 310.599 122.603 309.759 121.969C308.92 121.335 307.715 121.501 307.067 122.34L300.894 130.343C300.247 131.182 300.403 132.376 301.242 133.01C302.082 133.644 303.287 133.478 303.934 132.639Z" fill="url(#paint2_linear_96_3841)"/>
<path d="M314.472 154.877L324.576 155.168C325.635 155.198 326.509 154.37 326.529 153.318C326.548 152.267 325.705 151.389 324.646 151.359L314.543 151.068C313.484 151.038 312.609 151.866 312.59 152.918C312.57 153.969 313.413 154.847 314.472 154.877Z" fill="url(#paint3_linear_96_3841)"/>
</g>
<g opacity="0.5">
<path d="M76.0987 106.244L67.3767 101.136C66.4624 100.601 66.1596 99.4351 66.7006 98.5327C67.2415 97.6303 68.4213 97.3329 69.3357 97.8683L78.0576 102.976C78.972 103.511 79.2747 104.677 78.7338 105.579C78.1928 106.482 77.0131 106.779 76.0987 106.244Z" fill="url(#paint4_linear_96_3841)"/>
<path d="M85.0008 96.1302L79.1102 87.9167C78.4927 87.0557 78.6902 85.8677 79.5514 85.2634C80.4126 84.6591 81.6114 84.8672 82.2289 85.7282L88.1195 93.9417C88.737 94.8027 88.5395 95.9907 87.6783 96.595C86.817 97.1993 85.6183 96.9912 85.0008 96.1302Z" fill="url(#paint5_linear_96_3841)"/>
<path d="M73.6935 117.987L63.5863 117.924C62.5267 117.918 61.6817 117.06 61.699 116.008C61.7163 114.956 62.5893 114.109 63.6489 114.115L73.7561 114.177C74.8156 114.184 75.6606 115.042 75.6433 116.094C75.626 117.146 74.7531 117.993 73.6935 117.987Z" fill="url(#paint6_linear_96_3841)"/>
</g>
<path d="M32.0985 258.619V271.359H29.9907V254.731H31.7706L41.9349 267.729V254.755H44.0427V271.359H42.1223L32.0985 258.619ZM52.3508 271.594C51.4296 271.594 50.5943 271.43 49.8448 271.102C49.0954 270.758 48.4474 270.298 47.901 269.72C47.3545 269.127 46.9329 268.447 46.6363 267.682C46.3396 266.917 46.1913 266.113 46.1913 265.27C46.1913 264.411 46.3396 263.6 46.6363 262.834C46.9329 262.069 47.3545 261.398 47.901 260.82C48.4474 260.227 49.0954 259.766 49.8448 259.439C50.6099 259.095 51.4452 258.923 52.3508 258.923C53.2719 258.923 54.1073 259.095 54.8567 259.439C55.6061 259.766 56.2541 260.227 56.8006 260.82C57.3626 261.398 57.792 262.069 58.0887 262.834C58.3853 263.6 58.5336 264.411 58.5336 265.27C58.5336 266.113 58.3853 266.917 58.0887 267.682C57.792 268.447 57.3705 269.127 56.824 269.72C56.2775 270.298 55.6218 270.758 54.8567 271.102C54.1073 271.43 53.2719 271.594 52.3508 271.594ZM48.2991 265.294C48.2991 266.137 48.4787 266.902 48.8378 267.589C49.2125 268.276 49.7043 268.822 50.3132 269.228C50.9221 269.618 51.6013 269.814 52.3508 269.814C53.1002 269.814 53.7794 269.611 54.3883 269.205C55.0128 268.799 55.5047 268.252 55.8638 267.565C56.2385 266.863 56.4258 266.09 56.4258 265.247C56.4258 264.404 56.2385 263.639 55.8638 262.952C55.5047 262.265 55.0128 261.718 54.3883 261.312C53.7794 260.906 53.1002 260.703 52.3508 260.703C51.6013 260.703 50.9221 260.914 50.3132 261.336C49.7043 261.742 49.2125 262.288 48.8378 262.975C48.4787 263.662 48.2991 264.435 48.2991 265.294ZM76.1118 258.221C75.9245 258.002 75.6746 257.791 75.3624 257.588C75.0501 257.385 74.6988 257.206 74.3085 257.05C73.9181 256.878 73.4888 256.745 73.0204 256.652C72.5676 256.542 72.0914 256.488 71.5918 256.488C70.3115 256.488 69.3669 256.73 68.7579 257.214C68.149 257.698 67.8446 258.361 67.8446 259.204C67.8446 259.798 68.0007 260.266 68.313 260.61C68.6252 260.953 69.1014 261.234 69.7416 261.453C70.3973 261.671 71.2248 261.898 72.2241 262.132C73.3795 262.382 74.3787 262.686 75.2219 263.045C76.065 263.404 76.7129 263.888 77.1657 264.497C77.6185 265.091 77.8449 265.887 77.8449 266.886C77.8449 267.682 77.6888 268.377 77.3765 268.971C77.0798 269.548 76.6583 270.032 76.1118 270.423C75.5654 270.797 74.9252 271.078 74.1914 271.266C73.4576 271.437 72.6613 271.523 71.8025 271.523C70.9594 271.523 70.1319 271.437 69.32 271.266C68.5237 271.078 67.7665 270.813 67.0483 270.469C66.3301 270.126 65.6587 269.697 65.0342 269.181L66.0412 267.401C66.291 267.667 66.6111 267.932 67.0014 268.198C67.4074 268.447 67.8602 268.682 68.3598 268.9C68.875 269.119 69.4293 269.298 70.0226 269.439C70.6159 269.564 71.2248 269.626 71.8494 269.626C73.036 269.626 73.9572 269.416 74.6129 268.994C75.2687 268.557 75.5966 267.924 75.5966 267.097C75.5966 266.472 75.4092 265.973 75.0345 265.598C74.6754 265.223 74.1367 264.911 73.4185 264.661C72.7003 264.411 71.826 264.162 70.7955 263.912C69.6713 263.631 68.7267 263.326 67.9617 262.998C67.1966 262.655 66.6189 262.21 66.2286 261.663C65.8539 261.117 65.6665 260.407 65.6665 259.532C65.6665 258.471 65.9241 257.573 66.4394 256.839C66.9546 256.105 67.665 255.551 68.5706 255.176C69.4762 254.801 70.4988 254.614 71.6386 254.614C72.388 254.614 73.0828 254.692 73.723 254.848C74.3787 255.004 74.9877 255.223 75.5497 255.504C76.1118 255.785 76.6271 256.121 77.0955 256.511L76.1118 258.221ZM79.7039 266.465V259.134H81.7648V266.066C81.7648 267.316 81.9834 268.252 82.4206 268.877C82.8578 269.501 83.5057 269.814 84.3644 269.814C84.9265 269.814 85.4652 269.697 85.9804 269.462C86.5113 269.213 86.9875 268.861 87.409 268.408C87.8306 267.956 88.1585 267.417 88.3927 266.792V259.134H90.4536V269.017C90.4536 269.267 90.5005 269.455 90.5942 269.579C90.7035 269.689 90.8752 269.751 91.1094 269.767V271.359C90.8752 271.391 90.6878 271.406 90.5473 271.406C90.4224 271.422 90.2975 271.43 90.1726 271.43C89.7823 271.43 89.4466 271.313 89.1655 271.078C88.8845 270.829 88.7362 270.524 88.7206 270.165L88.6737 268.736C88.1429 269.642 87.4247 270.345 86.5191 270.844C85.6291 271.344 84.6533 271.594 83.5916 271.594C82.3113 271.594 81.3433 271.164 80.6875 270.305C80.0317 269.431 79.7039 268.151 79.7039 266.465ZM99.6948 271.594C98.7424 271.594 97.8759 271.359 97.0952 270.891C96.3146 270.423 95.6978 269.814 95.245 269.064V271.359H93.4183V254.263H95.4792V261.57C95.9945 260.774 96.6268 260.133 97.3763 259.649C98.1257 259.165 99 258.923 99.9993 258.923C100.842 258.923 101.6 259.103 102.271 259.462C102.942 259.806 103.512 260.282 103.981 260.891C104.465 261.484 104.832 262.163 105.081 262.928C105.347 263.678 105.48 264.466 105.48 265.294C105.48 266.152 105.331 266.964 105.035 267.729C104.754 268.479 104.348 269.15 103.817 269.743C103.286 270.321 102.669 270.774 101.967 271.102C101.28 271.43 100.522 271.594 99.6948 271.594ZM99.1796 269.814C99.7885 269.814 100.351 269.689 100.866 269.439C101.381 269.189 101.826 268.853 102.201 268.432C102.575 268.01 102.864 267.526 103.067 266.98C103.27 266.433 103.372 265.871 103.372 265.294C103.372 264.497 103.2 263.748 102.857 263.045C102.529 262.343 102.06 261.781 101.451 261.359C100.858 260.922 100.163 260.703 99.367 260.703C98.7893 260.703 98.2506 260.836 97.751 261.101C97.2514 261.367 96.8064 261.718 96.416 262.155C96.0413 262.577 95.7291 263.045 95.4792 263.561V267.097C95.5573 267.487 95.7212 267.846 95.9711 268.174C96.2209 268.502 96.5253 268.791 96.8844 269.041C97.2435 269.275 97.6183 269.462 98.0086 269.603C98.4145 269.743 98.8049 269.814 99.1796 269.814ZM111.734 271.594C110.719 271.594 109.767 271.43 108.877 271.102C107.987 270.758 107.222 270.251 106.581 269.579L107.378 268.127C108.08 268.783 108.783 269.252 109.485 269.533C110.188 269.814 110.906 269.954 111.64 269.954C112.483 269.954 113.17 269.798 113.701 269.486C114.232 269.158 114.497 268.682 114.497 268.057C114.497 267.604 114.357 267.269 114.076 267.05C113.81 266.832 113.428 266.652 112.928 266.511C112.429 266.355 111.835 266.184 111.148 265.996C110.305 265.746 109.595 265.481 109.017 265.2C108.439 264.919 108.002 264.568 107.706 264.146C107.409 263.724 107.261 263.194 107.261 262.553C107.261 261.773 107.464 261.117 107.87 260.586C108.275 260.04 108.83 259.626 109.532 259.345C110.251 259.064 111.062 258.923 111.968 258.923C112.874 258.923 113.693 259.064 114.427 259.345C115.161 259.626 115.793 260.04 116.324 260.586L115.387 262.015C114.903 261.515 114.372 261.148 113.795 260.914C113.217 260.664 112.569 260.539 111.851 260.539C111.429 260.539 111.016 260.594 110.61 260.703C110.204 260.797 109.868 260.977 109.603 261.242C109.337 261.492 109.204 261.851 109.204 262.319C109.204 262.71 109.306 263.022 109.509 263.256C109.728 263.475 110.04 263.662 110.446 263.818C110.867 263.974 111.375 264.146 111.968 264.333C112.889 264.599 113.685 264.864 114.357 265.13C115.044 265.395 115.575 265.739 115.949 266.16C116.324 266.582 116.511 267.167 116.511 267.917C116.511 269.072 116.074 269.978 115.2 270.633C114.326 271.274 113.17 271.594 111.734 271.594ZM123.919 271.594C122.998 271.594 122.154 271.43 121.389 271.102C120.64 270.758 119.984 270.29 119.422 269.697C118.876 269.103 118.446 268.424 118.134 267.659C117.837 266.894 117.689 266.082 117.689 265.223C117.689 264.068 117.947 263.014 118.462 262.062C118.977 261.109 119.703 260.352 120.64 259.79C121.577 259.212 122.662 258.923 123.895 258.923C125.098 258.923 126.144 259.197 127.034 259.743C127.939 260.274 128.611 260.992 129.048 261.898L127.034 262.53C126.721 261.952 126.284 261.507 125.722 261.195C125.16 260.867 124.536 260.703 123.849 260.703C123.099 260.703 122.412 260.898 121.788 261.289C121.179 261.679 120.695 262.218 120.336 262.905C119.976 263.576 119.797 264.349 119.797 265.223C119.797 266.082 119.976 266.863 120.336 267.565C120.71 268.252 121.202 268.799 121.811 269.205C122.436 269.611 123.123 269.814 123.872 269.814C124.356 269.814 124.817 269.728 125.254 269.556C125.707 269.384 126.097 269.158 126.425 268.877C126.768 268.58 127.002 268.26 127.127 267.917L129.141 268.526C128.892 269.119 128.509 269.65 127.994 270.118C127.494 270.571 126.893 270.93 126.191 271.195C125.504 271.461 124.746 271.594 123.919 271.594ZM137.472 260.937C136.442 260.953 135.528 261.219 134.732 261.734C133.951 262.233 133.397 262.928 133.069 263.818V271.359H131.008V259.134H132.929V261.968C133.35 261.125 133.905 260.446 134.592 259.93C135.294 259.4 136.028 259.103 136.793 259.04C136.949 259.04 137.082 259.04 137.191 259.04C137.3 259.04 137.394 259.048 137.472 259.064V260.937ZM139.048 271.359V259.134H141.109V271.359H139.048ZM139.048 256.839V254.263H141.109V256.839H139.048ZM150.558 271.594C149.559 271.594 148.669 271.344 147.888 270.844C147.108 270.345 146.491 269.712 146.038 268.947V276.348H143.977V259.134H145.804V261.429C146.288 260.68 146.92 260.079 147.701 259.626C148.482 259.158 149.332 258.923 150.254 258.923C151.097 258.923 151.87 259.095 152.572 259.439C153.275 259.782 153.884 260.25 154.399 260.844C154.914 261.437 155.312 262.116 155.593 262.881C155.89 263.631 156.038 264.419 156.038 265.247C156.038 266.402 155.804 267.464 155.336 268.432C154.883 269.4 154.243 270.173 153.415 270.75C152.588 271.313 151.635 271.594 150.558 271.594ZM149.926 269.814C150.535 269.814 151.081 269.689 151.565 269.439C152.065 269.174 152.486 268.83 152.83 268.408C153.189 267.971 153.462 267.479 153.65 266.933C153.837 266.387 153.931 265.824 153.931 265.247C153.931 264.638 153.821 264.06 153.603 263.514C153.4 262.967 153.103 262.483 152.713 262.062C152.338 261.64 151.893 261.312 151.378 261.078C150.878 260.828 150.332 260.703 149.738 260.703C149.364 260.703 148.973 260.774 148.567 260.914C148.177 261.055 147.802 261.258 147.443 261.523C147.084 261.773 146.78 262.062 146.53 262.39C146.28 262.717 146.116 263.069 146.038 263.443V266.933C146.272 267.464 146.585 267.948 146.975 268.385C147.365 268.822 147.818 269.174 148.333 269.439C148.848 269.689 149.379 269.814 149.926 269.814ZM164.241 270.75C164.069 270.829 163.835 270.93 163.538 271.055C163.242 271.18 162.898 271.289 162.508 271.383C162.117 271.476 161.704 271.523 161.267 271.523C160.767 271.523 160.306 271.437 159.885 271.266C159.463 271.078 159.128 270.797 158.878 270.423C158.628 270.032 158.503 269.548 158.503 268.971V260.75H156.84V259.134H158.503V255.059H160.564V259.134H163.304V260.75H160.564V268.338C160.595 268.775 160.744 269.103 161.009 269.322C161.274 269.525 161.587 269.626 161.946 269.626C162.352 269.626 162.726 269.556 163.07 269.416C163.413 269.275 163.64 269.174 163.749 269.111L164.241 270.75ZM165.683 271.359V259.134H167.744V271.359H165.683ZM165.683 256.839V254.263H167.744V256.839H165.683ZM175.952 271.594C175.03 271.594 174.195 271.43 173.446 271.102C172.696 270.758 172.048 270.298 171.502 269.72C170.955 269.127 170.534 268.447 170.237 267.682C169.941 266.917 169.792 266.113 169.792 265.27C169.792 264.411 169.941 263.6 170.237 262.834C170.534 262.069 170.955 261.398 171.502 260.82C172.048 260.227 172.696 259.766 173.446 259.439C174.211 259.095 175.046 258.923 175.952 258.923C176.873 258.923 177.708 259.095 178.458 259.439C179.207 259.766 179.855 260.227 180.401 260.82C180.964 261.398 181.393 262.069 181.69 262.834C181.986 263.6 182.135 264.411 182.135 265.27C182.135 266.113 181.986 266.917 181.69 267.682C181.393 268.447 180.971 269.127 180.425 269.72C179.878 270.298 179.223 270.758 178.458 271.102C177.708 271.43 176.873 271.594 175.952 271.594ZM171.9 265.294C171.9 266.137 172.08 266.902 172.439 267.589C172.813 268.276 173.305 268.822 173.914 269.228C174.523 269.618 175.202 269.814 175.952 269.814C176.701 269.814 177.38 269.611 177.989 269.205C178.614 268.799 179.106 268.252 179.465 267.565C179.839 266.863 180.027 266.09 180.027 265.247C180.027 264.404 179.839 263.639 179.465 262.952C179.106 262.265 178.614 261.718 177.989 261.312C177.38 260.906 176.701 260.703 175.952 260.703C175.202 260.703 174.523 260.914 173.914 261.336C173.305 261.742 172.813 262.288 172.439 262.975C172.08 263.662 171.9 264.435 171.9 265.294ZM194.773 271.359H192.712V264.521C192.712 263.225 192.509 262.28 192.103 261.687C191.713 261.078 191.111 260.774 190.3 260.774C189.737 260.774 189.175 260.914 188.613 261.195C188.067 261.476 187.575 261.859 187.138 262.343C186.716 262.811 186.412 263.358 186.224 263.982V271.359H184.163V259.134H186.037V261.757C186.365 261.179 186.787 260.68 187.302 260.258C187.817 259.837 188.402 259.509 189.058 259.275C189.714 259.04 190.401 258.923 191.119 258.923C191.822 258.923 192.407 259.056 192.876 259.321C193.36 259.571 193.734 259.93 194 260.399C194.281 260.852 194.476 261.39 194.585 262.015C194.71 262.639 194.773 263.319 194.773 264.052V271.359ZM216.665 254.731V271.359H214.557V263.795H205.4V271.359H203.292V254.731H205.4V261.921H214.557V254.731H216.665ZM219.855 271.359V259.134H221.916V271.359H219.855ZM219.855 256.839V254.263H221.916V256.839H219.855ZM228.977 271.594C227.962 271.594 227.009 271.43 226.119 271.102C225.229 270.758 224.464 270.251 223.824 269.579L224.62 268.127C225.323 268.783 226.026 269.252 226.728 269.533C227.431 269.814 228.149 269.954 228.883 269.954C229.726 269.954 230.413 269.798 230.944 269.486C231.475 269.158 231.74 268.682 231.74 268.057C231.74 267.604 231.6 267.269 231.319 267.05C231.053 266.832 230.671 266.652 230.171 266.511C229.671 266.355 229.078 266.184 228.391 265.996C227.548 265.746 226.838 265.481 226.26 265.2C225.682 264.919 225.245 264.568 224.948 264.146C224.652 263.724 224.503 263.194 224.503 262.553C224.503 261.773 224.706 261.117 225.112 260.586C225.518 260.04 226.072 259.626 226.775 259.345C227.493 259.064 228.305 258.923 229.211 258.923C230.116 258.923 230.936 259.064 231.67 259.345C232.404 259.626 233.036 260.04 233.567 260.586L232.63 262.015C232.146 261.515 231.615 261.148 231.037 260.914C230.46 260.664 229.812 260.539 229.094 260.539C228.672 260.539 228.258 260.594 227.852 260.703C227.446 260.797 227.111 260.977 226.845 261.242C226.58 261.492 226.447 261.851 226.447 262.319C226.447 262.71 226.549 263.022 226.752 263.256C226.97 263.475 227.282 263.662 227.688 263.818C228.11 263.974 228.617 264.146 229.211 264.333C230.132 264.599 230.928 264.864 231.6 265.13C232.287 265.395 232.817 265.739 233.192 266.16C233.567 266.582 233.754 267.167 233.754 267.917C233.754 269.072 233.317 269.978 232.443 270.633C231.568 271.274 230.413 271.594 228.977 271.594ZM242.075 270.75C241.903 270.829 241.669 270.93 241.372 271.055C241.076 271.18 240.732 271.289 240.342 271.383C239.951 271.476 239.538 271.523 239.101 271.523C238.601 271.523 238.14 271.437 237.719 271.266C237.297 271.078 236.962 270.797 236.712 270.423C236.462 270.032 236.337 269.548 236.337 268.971V260.75H234.674V259.134H236.337V255.059H238.398V259.134H241.138V260.75H238.398V268.338C238.429 268.775 238.578 269.103 238.843 269.322C239.108 269.525 239.421 269.626 239.78 269.626C240.186 269.626 240.56 269.556 240.904 269.416C241.247 269.275 241.474 269.174 241.583 269.111L242.075 270.75ZM248.696 271.594C247.775 271.594 246.94 271.43 246.19 271.102C245.441 270.758 244.793 270.298 244.247 269.72C243.7 269.127 243.279 268.447 242.982 267.682C242.685 266.917 242.537 266.113 242.537 265.27C242.537 264.411 242.685 263.6 242.982 262.834C243.279 262.069 243.7 261.398 244.247 260.82C244.793 260.227 245.441 259.766 246.19 259.439C246.955 259.095 247.791 258.923 248.696 258.923C249.618 258.923 250.453 259.095 251.202 259.439C251.952 259.766 252.6 260.227 253.146 260.82C253.708 261.398 254.138 262.069 254.434 262.834C254.731 263.6 254.879 264.411 254.879 265.27C254.879 266.113 254.731 266.917 254.434 267.682C254.138 268.447 253.716 269.127 253.17 269.72C252.623 270.298 251.967 270.758 251.202 271.102C250.453 271.43 249.618 271.594 248.696 271.594ZM244.645 265.294C244.645 266.137 244.824 266.902 245.183 267.589C245.558 268.276 246.05 268.822 246.659 269.228C247.268 269.618 247.947 269.814 248.696 269.814C249.446 269.814 250.125 269.611 250.734 269.205C251.358 268.799 251.85 268.252 252.209 267.565C252.584 266.863 252.771 266.09 252.771 265.247C252.771 264.404 252.584 263.639 252.209 262.952C251.85 262.265 251.358 261.718 250.734 261.312C250.125 260.906 249.446 260.703 248.696 260.703C247.947 260.703 247.268 260.914 246.659 261.336C246.05 261.742 245.558 262.288 245.183 262.975C244.824 263.662 244.645 264.435 244.645 265.294ZM263.372 260.937C262.342 260.953 261.428 261.219 260.632 261.734C259.851 262.233 259.297 262.928 258.969 263.818V271.359H256.908V259.134H258.829V261.968C259.25 261.125 259.804 260.446 260.491 259.93C261.194 259.4 261.928 259.103 262.693 259.04C262.849 259.04 262.982 259.04 263.091 259.04C263.2 259.04 263.294 259.048 263.372 259.064V260.937ZM265.51 274.685C265.713 274.701 265.916 274.716 266.119 274.732C266.322 274.763 266.478 274.779 266.587 274.779C266.837 274.779 267.056 274.693 267.243 274.521C267.43 274.349 267.633 274.014 267.852 273.514C268.086 273.03 268.383 272.312 268.742 271.359L263.566 259.134H265.744L269.866 269.275L273.59 259.134H275.627L269.679 274.568C269.538 274.927 269.327 275.263 269.046 275.575C268.781 275.903 268.437 276.16 268.016 276.348C267.594 276.535 267.087 276.629 266.494 276.629C266.353 276.629 266.205 276.621 266.049 276.605C265.908 276.59 265.728 276.559 265.51 276.512V274.685ZM282.384 271.359V254.731H293.368V256.605H284.492V262.155H291.963V263.912H284.492V271.359H282.384ZM299.827 271.594C298.906 271.594 298.07 271.43 297.321 271.102C296.572 270.758 295.924 270.298 295.377 269.72C294.831 269.127 294.409 268.447 294.113 267.682C293.816 266.917 293.668 266.113 293.668 265.27C293.668 264.411 293.816 263.6 294.113 262.834C294.409 262.069 294.831 261.398 295.377 260.82C295.924 260.227 296.572 259.766 297.321 259.439C298.086 259.095 298.921 258.923 299.827 258.923C300.748 258.923 301.583 259.095 302.333 259.439C303.082 259.766 303.73 260.227 304.277 260.82C304.839 261.398 305.268 262.069 305.565 262.834C305.862 263.6 306.01 264.411 306.01 265.27C306.01 266.113 305.862 266.917 305.565 267.682C305.268 268.447 304.847 269.127 304.3 269.72C303.754 270.298 303.098 270.758 302.333 271.102C301.583 271.43 300.748 271.594 299.827 271.594ZM295.775 265.294C295.775 266.137 295.955 266.902 296.314 267.589C296.689 268.276 297.181 268.822 297.789 269.228C298.398 269.618 299.078 269.814 299.827 269.814C300.576 269.814 301.256 269.611 301.865 269.205C302.489 268.799 302.981 268.252 303.34 267.565C303.715 266.863 303.902 266.09 303.902 265.247C303.902 264.404 303.715 263.639 303.34 262.952C302.981 262.265 302.489 261.718 301.865 261.312C301.256 260.906 300.576 260.703 299.827 260.703C299.078 260.703 298.398 260.914 297.789 261.336C297.181 261.742 296.689 262.288 296.314 262.975C295.955 263.662 295.775 264.435 295.775 265.294ZM307.922 266.465V259.134H309.983V266.066C309.983 267.316 310.201 268.252 310.638 268.877C311.076 269.501 311.724 269.814 312.582 269.814C313.144 269.814 313.683 269.697 314.198 269.462C314.729 269.213 315.205 268.861 315.627 268.408C316.048 267.956 316.376 267.417 316.611 266.792V259.134H318.671V269.017C318.671 269.267 318.718 269.455 318.812 269.579C318.921 269.689 319.093 269.751 319.327 269.767V271.359C319.093 271.391 318.906 271.406 318.765 271.406C318.64 271.422 318.515 271.43 318.39 271.43C318 271.43 317.664 271.313 317.383 271.078C317.102 270.829 316.954 270.524 316.938 270.165L316.892 268.736C316.361 269.642 315.642 270.345 314.737 270.844C313.847 271.344 312.871 271.594 311.809 271.594C310.529 271.594 309.561 271.164 308.905 270.305C308.25 269.431 307.922 268.151 307.922 266.465ZM332.245 271.359H330.184V264.521C330.184 263.225 329.981 262.28 329.575 261.687C329.185 261.078 328.584 260.774 327.772 260.774C327.21 260.774 326.648 260.914 326.086 261.195C325.539 261.476 325.048 261.859 324.61 262.343C324.189 262.811 323.884 263.358 323.697 263.982V271.359H321.636V259.134H323.51V261.757C323.838 261.179 324.259 260.68 324.774 260.258C325.29 259.837 325.875 259.509 326.531 259.275C327.187 259.04 327.874 258.923 328.592 258.923C329.294 258.923 329.88 259.056 330.348 259.321C330.832 259.571 331.207 259.93 331.473 260.399C331.754 260.852 331.949 261.39 332.058 262.015C332.183 262.639 332.245 263.319 332.245 264.052V271.359ZM334.186 265.27C334.186 264.115 334.42 263.061 334.888 262.108C335.372 261.14 336.028 260.368 336.855 259.79C337.699 259.212 338.659 258.923 339.736 258.923C340.72 258.923 341.602 259.181 342.383 259.696C343.163 260.211 343.772 260.836 344.209 261.57V254.263H346.27V269.017C346.27 269.267 346.317 269.455 346.411 269.579C346.52 269.689 346.692 269.751 346.926 269.767V271.359C346.536 271.422 346.231 271.453 346.013 271.453C345.607 271.453 345.248 271.313 344.935 271.031C344.639 270.75 344.49 270.438 344.49 270.095V269.064C344.006 269.845 343.358 270.462 342.547 270.914C341.735 271.367 340.891 271.594 340.017 271.594C339.174 271.594 338.393 271.43 337.675 271.102C336.973 270.758 336.356 270.29 335.825 269.697C335.31 269.103 334.904 268.432 334.607 267.682C334.326 266.917 334.186 266.113 334.186 265.27ZM344.209 267.074V263.561C344.022 263.03 343.718 262.553 343.296 262.132C342.874 261.695 342.398 261.351 341.867 261.101C341.352 260.836 340.837 260.703 340.322 260.703C339.713 260.703 339.158 260.836 338.659 261.101C338.175 261.351 337.753 261.695 337.394 262.132C337.051 262.553 336.785 263.037 336.598 263.584C336.41 264.13 336.317 264.7 336.317 265.294C336.317 265.903 336.418 266.48 336.621 267.027C336.84 267.573 337.136 268.057 337.511 268.479C337.902 268.9 338.347 269.228 338.846 269.462C339.361 269.697 339.916 269.814 340.509 269.814C340.884 269.814 341.266 269.743 341.657 269.603C342.062 269.462 342.445 269.267 342.804 269.017C343.163 268.768 343.468 268.479 343.718 268.151C343.967 267.807 344.131 267.448 344.209 267.074ZM349.617 265.739V254.567H351.678V265.739H349.617ZM349.617 271.359V268.455H351.678V271.359H349.617ZM355.278 265.739V254.567H357.339V265.739H355.278ZM355.278 271.359V268.455H357.339V271.359H355.278Z" fill="black" fill-opacity="0.5"/>
<defs>
<linearGradient id="paint0_linear_96_3841" x1="133.017" y1="229.865" x2="260.105" y2="229.865" gradientUnits="userSpaceOnUse">
<stop stop-color="#AAABC9" stop-opacity="0.01"/>
<stop offset="1" stop-color="#0E154B"/>
</linearGradient>
<linearGradient id="paint1_linear_96_3841" x1="322.341" y1="134.657" x2="309.517" y2="134.881" gradientUnits="userSpaceOnUse">
<stop stop-color="#8FA1B0"/>
<stop offset="1" stop-color="#5F7083"/>
</linearGradient>
<linearGradient id="paint2_linear_96_3841" x1="309.528" y1="120.953" x2="297.904" y2="126.373" gradientUnits="userSpaceOnUse">
<stop stop-color="#8FA1B0"/>
<stop offset="1" stop-color="#5F7083"/>
</linearGradient>
<linearGradient id="paint3_linear_96_3841" x1="327.215" y1="152.534" x2="315.997" y2="146.316" gradientUnits="userSpaceOnUse">
<stop stop-color="#8FA1B0"/>
<stop offset="1" stop-color="#5F7083"/>
</linearGradient>
<linearGradient id="paint4_linear_96_3841" x1="66.5342" y1="97.5039" x2="79.3421" y2="98.1751" gradientUnits="userSpaceOnUse">
<stop stop-color="#8FA1B0"/>
<stop offset="1" stop-color="#5F7083"/>
</linearGradient>
<linearGradient id="paint5_linear_96_3841" x1="79.8179" y1="84.2559" x2="91.2455" y2="90.0785" gradientUnits="userSpaceOnUse">
<stop stop-color="#8FA1B0"/>
<stop offset="1" stop-color="#5F7083"/>
</linearGradient>
<linearGradient id="paint6_linear_96_3841" x1="61.0405" y1="115.2" x2="72.4682" y2="109.378" gradientUnits="userSpaceOnUse">
<stop stop-color="#8FA1B0"/>
<stop offset="1" stop-color="#5F7083"/>
</linearGradient>
<clipPath id="clip0_96_3841">
<rect width="182.246" height="182.246" fill="white" transform="translate(104.469)"/>
</clipPath>
</defs>
</svg>
