<svg width="24" height="25" viewBox="0 0 24 25" fill="none" xmlns="http://www.w3.org/2000/svg">
<path d="M9.08148 19.5114C9.75435 20.3668 10.8114 20.918 12.0001 20.918C13.1887 20.918 14.2458 20.3668 14.9186 19.5114C12.9812 19.774 11.0189 19.774 9.08148 19.5114Z" fill="black"/>
<path d="M17.3994 10.518V11.0812C17.3994 11.7572 17.5923 12.4181 17.9538 12.9806L18.8398 14.3589C19.649 15.6179 19.0312 17.3291 17.6238 17.7272C13.9419 18.7687 10.0582 18.7687 6.37634 17.7272C4.96889 17.3291 4.35111 15.6179 5.16034 14.3589L6.04629 12.9806C6.40782 12.4181 6.60074 11.7572 6.60074 11.0812V10.518C6.60074 7.42517 9.0181 4.91797 12 4.91797C14.982 4.91797 17.3994 7.42517 17.3994 10.518Z" fill="black"/>
</svg>
