<svg width="30" height="30" viewBox="0 0 30 30" fill="none" xmlns="http://www.w3.org/2000/svg">
<path d="M5 15C5 9.47715 9.47715 5 15 5C20.013 5 24.1645 8.68873 24.8882 13.5L24.686 13.4999C22.1965 13.4991 20.5598 13.4986 19.1926 13.977C16.751 14.8313 14.8313 16.751 13.977 19.1926C13.4986 20.5598 13.4991 22.1965 13.4999 24.686L13.5 24.8882C8.68873 24.1645 5 20.013 5 15Z" fill="#266CA8"/>
<path d="M24.2424 16.7083L16.7083 24.2424C16.6419 24.3087 16.5725 24.3718 16.5004 24.431C16.448 24.4741 16.3943 24.5151 16.3392 24.554C15.9462 24.8314 15.4858 25 15 25C15 24.4484 15 23.9513 15.003 23.5C15.0153 21.6662 15.0776 20.5889 15.3928 19.688C16.0964 17.6773 17.6773 16.0964 19.688 15.3928C20.5889 15.0776 21.6662 15.0153 23.5 15.003C23.9513 15 24.4484 15 25 15C25 15.4858 24.8314 15.9462 24.554 16.3392C24.5151 16.3943 24.4741 16.448 24.431 16.5004C24.3718 16.5725 24.3087 16.6419 24.2424 16.7083Z" fill="#266CA8"/>
</svg>
