<svg width="30" height="30" viewBox="0 0 30 30" fill="none" xmlns="http://www.w3.org/2000/svg">
<path fill-rule="evenodd" clip-rule="evenodd" d="M15 4.25C14.5858 4.25 14.25 4.58579 14.25 5V15.9726L12.5694 14.0119C12.2999 13.6974 11.8264 13.661 11.5119 13.9306C11.1974 14.2001 11.161 14.6736 11.4306 14.9881L14.4306 18.4881C14.573 18.6543 14.7811 18.75 15 18.75C15.2189 18.75 15.427 18.6543 15.5694 18.4881L18.5694 14.9881C18.839 14.6736 18.8026 14.2001 18.4881 13.9306C18.1736 13.661 17.7001 13.6974 17.4306 14.0119L15.75 15.9726L15.75 5C15.75 4.58579 15.4142 4.25 15 4.25Z" fill="#266CA8"/>
<path d="M17.25 12V12.3783C17.9836 12.1197 18.8312 12.2491 19.4642 12.7917C20.4077 13.6004 20.517 15.0208 19.7083 15.9643L16.7083 19.4643C16.2808 19.963 15.6568 20.25 15 20.25C14.3431 20.25 13.7191 19.963 13.2916 19.4643L10.2916 15.9643C9.48293 15.0208 9.5922 13.6004 10.5357 12.7917C11.1687 12.2491 12.0164 12.1197 12.75 12.3783V12H11C8.17157 12 6.75736 12 5.87868 12.8787C5 13.7574 5 15.1716 5 18V19C5 21.8284 5 23.2426 5.87868 24.1213C6.75736 25 8.17157 25 11 25H19C21.8284 25 23.2426 25 24.1213 24.1213C25 23.2426 25 21.8284 25 19V18C25 15.1716 25 13.7574 24.1213 12.8787C23.2426 12 21.8284 12 19 12H17.25Z" fill="#266CA8"/>
</svg>
