<svg
  width="27"
  height="27"
  viewBox="0 0 27 27"
  fill="none"
  xmlns="http://www.w3.org/2000/svg"
>
<path
    fill-rule="evenodd"
    clip-rule="evenodd"
    d="M5.60889 22.4317C5.60889 22.0601 5.91018 21.7588 6.28184 21.7588H20.6382C21.0099 21.7588 21.3112 22.0601 21.3112 22.4317C21.3112 22.8034 21.0099 23.1047 20.6382 23.1047H6.28184C5.91018 23.1047 5.60889 22.8034 5.60889 22.4317Z"
    fill="black"
  />
<path
    d="M12.1796 16.8867C12.408 16.7086 12.6151 16.5014 13.0294 16.0871L18.3383 10.7782C17.6158 10.4775 16.76 9.98353 15.9506 9.17417C15.1411 8.36469 14.6471 7.50876 14.3464 6.78615L9.03744 12.0951L9.03742 12.0952C8.62314 12.5094 8.41599 12.7166 8.23784 12.945C8.02769 13.2144 7.84752 13.5059 7.70051 13.8144C7.5759 14.0759 7.48326 14.3538 7.29798 14.9096L6.32094 17.8407C6.22977 18.1143 6.30096 18.4158 6.50484 18.6197C6.70872 18.8236 7.01029 18.8948 7.28382 18.8036L10.2149 17.8266C10.7707 17.6413 11.0487 17.5487 11.3102 17.424C11.6186 17.277 11.9101 17.0969 12.1796 16.8867Z"
    fill="black"
  />
<path
    d="M19.8115 9.30508C20.9138 8.20273 20.9138 6.41545 19.8115 5.3131C18.7091 4.21074 16.9218 4.21074 15.8195 5.3131L15.1827 5.94983C15.1915 5.97616 15.2005 6.00285 15.2099 6.02989C15.4433 6.70259 15.8836 7.58444 16.712 8.41281C17.5404 9.24118 18.4222 9.68153 19.0949 9.91491C19.1218 9.92425 19.1484 9.93325 19.1746 9.94194L19.8115 9.30508Z"
    fill="black"
  />
</svg>
