<svg width="24" height="25" viewBox="0 0 24 25" fill="none" xmlns="http://www.w3.org/2000/svg">
<path fill-rule="evenodd" clip-rule="evenodd" d="M6.6 11.362V9.71836C6.6 6.73602 9.01766 4.31836 12 4.31836C14.9823 4.31836 17.4 6.73602 17.4 9.71836V11.362C18.2918 11.4286 18.8726 11.5968 19.2971 12.0213C20 12.7242 20 13.8556 20 16.1184C20 18.3811 20 19.5125 19.2971 20.2154C18.5941 20.9184 17.4627 20.9184 15.2 20.9184H8.8C6.53726 20.9184 5.40589 20.9184 4.70294 20.2154C4 19.5125 4 18.3811 4 16.1184C4 13.8556 4 12.7242 4.70294 12.0213C5.12745 11.5968 5.7082 11.4286 6.6 11.362ZM7.8 9.71836C7.8 7.39876 9.6804 5.51836 12 5.51836C14.3196 5.51836 16.2 7.39876 16.2 9.71836V11.3212C15.8936 11.3184 15.5612 11.3184 15.2 11.3184H8.8C8.43879 11.3184 8.10641 11.3184 7.8 11.3212V9.71836Z" fill="black"/>
</svg>
