<svg width="24" height="25" viewBox="0 0 24 25" fill="none" xmlns="http://www.w3.org/2000/svg">
<path fill-rule="evenodd" clip-rule="evenodd" d="M5.19995 10.9718V14.8637C5.19995 16.6984 5.19995 17.6157 5.77725 18.1857C6.3017 18.7034 7.11653 18.7508 8.65457 18.7552C8.65038 18.7274 8.64637 18.6995 8.64254 18.6714C8.55065 17.9965 8.55066 17.1385 8.55068 16.074L8.55068 16.0313C8.55068 15.7089 8.81541 15.4475 9.14198 15.4475C9.46855 15.4475 9.73328 15.7089 9.73328 16.0313C9.73328 17.1486 9.73454 17.9278 9.81461 18.5158C9.89239 19.0869 10.0347 19.3894 10.2529 19.6048C10.4711 19.8202 10.7774 19.9607 11.3559 20.0375C11.9514 20.1165 12.7407 20.1178 13.8724 20.1178H14.6608C15.7925 20.1178 16.5818 20.1165 17.1773 20.0375C17.7558 19.9607 18.0622 19.8202 18.2804 19.6048C18.4986 19.3894 18.6409 19.0869 18.7186 18.5158C18.7987 17.9278 18.8 17.1486 18.8 16.0313V9.80426C18.8 8.68696 18.7987 7.90772 18.7186 7.31977C18.6409 6.74861 18.4986 6.44616 18.2804 6.23073C18.0622 6.01531 17.7558 5.87485 17.1773 5.79806C16.5818 5.71901 15.7925 5.71777 14.6608 5.71777H13.8724C12.7407 5.71777 11.9514 5.71901 11.3559 5.79806C10.7774 5.87485 10.4711 6.01531 10.2529 6.23073C10.0347 6.44616 9.89239 6.74861 9.81461 7.31977C9.73454 7.90772 9.73328 8.68696 9.73328 9.80426C9.73328 10.1267 9.46855 10.388 9.14198 10.388C8.81541 10.388 8.55068 10.1267 8.55068 9.80426L8.55068 9.76155C8.55066 8.69704 8.55065 7.83902 8.64254 7.16419C8.64637 7.13607 8.65038 7.10813 8.65457 7.08037C7.11653 7.08471 6.3017 7.13211 5.77725 7.64989C5.19995 8.21984 5.19995 9.13717 5.19995 10.9718ZM13.1079 15.2765L15.0789 13.3306C15.3099 13.1026 15.3099 12.733 15.0789 12.505L13.1079 10.559C12.877 10.331 12.5026 10.331 12.2717 10.559C12.0408 10.787 12.0408 11.1566 12.2717 11.3846L13.2333 12.334H7.56517C7.2386 12.334 6.97386 12.5954 6.97386 12.9178C6.97386 13.2402 7.2386 13.5016 7.56517 13.5016H13.2333L12.2717 14.4509C12.0408 14.6789 12.0408 15.0485 12.2717 15.2765C12.5026 15.5045 12.877 15.5045 13.1079 15.2765Z" fill="#266CA8"/>
</svg>
