<svg width="30" height="30" viewBox="0 0 30 30" fill="none" xmlns="http://www.w3.org/2000/svg">
<path d="M23.9414 11.1888C24.5215 11.7621 24.771 12.4839 24.8877 13.3411C25 14.1668 25 15.2166 25 16.5191V16.6236C25 17.9261 25 18.976 24.8877 19.8016C24.771 20.6589 24.5215 21.3807 23.9414 21.9539C23.3612 22.5272 22.6307 22.7738 21.7632 22.889C20.9276 23 19.8651 23 18.547 23H13.622C12.3039 23 11.2414 23 10.4058 22.889C9.53824 22.7738 8.80777 22.5272 8.22762 21.9539C7.87566 21.6062 7.64535 21.2037 7.49261 20.7495C8.36407 20.8574 9.4422 20.8573 10.6879 20.8573H15.6974C16.979 20.8573 18.0833 20.8574 18.9676 20.7399C19.9154 20.614 20.8238 20.3301 21.5607 19.602C22.2975 18.8739 22.5848 17.9762 22.7123 17.0398C22.8312 16.166 22.8311 15.0748 22.831 13.8084V13.6203C22.8311 12.3891 22.8311 11.3236 22.7219 10.4623C23.1818 10.6133 23.5893 10.8409 23.9414 11.1888Z" fill="#266CA8"/>
<path d="M13.1926 12.0477C12.2611 12.0477 11.5059 12.7939 11.5059 13.7143C11.5059 14.6348 12.2611 15.381 13.1926 15.381C14.1242 15.381 14.8793 14.6348 14.8793 13.7143C14.8793 12.7939 14.1242 12.0477 13.1926 12.0477Z" fill="#266CA8"/>
<path fill-rule="evenodd" clip-rule="evenodd" d="M5.84691 8.83684C5 9.67369 5 11.0206 5 13.7143C5 16.4081 5 17.755 5.84691 18.5918C6.69381 19.4287 8.05688 19.4287 10.783 19.4287H15.6022C18.3284 19.4287 19.6914 19.4287 20.5384 18.5918C21.3853 17.755 21.3853 16.4081 21.3853 13.7143C21.3853 11.0206 21.3853 9.67369 20.5384 8.83684C19.6914 8 18.3284 8 15.6022 8H10.783C8.05688 8 6.69381 8 5.84691 8.83684ZM10.0602 13.7143C10.0602 12.0049 11.4626 10.6191 13.1926 10.6191C14.9226 10.6191 16.3251 12.0049 16.3251 13.7143C16.3251 15.4238 14.9226 16.8096 13.1926 16.8096C11.4626 16.8096 10.0602 15.4238 10.0602 13.7143ZM18.4937 16.3334C18.0945 16.3334 17.7709 16.0136 17.7709 15.6191V11.8096C17.7709 11.4151 18.0945 11.0953 18.4937 11.0953C18.893 11.0953 19.2166 11.4151 19.2166 11.8096V15.6191C19.2166 16.0136 18.893 16.3334 18.4937 16.3334ZM7.16864 15.6191C7.16864 16.0136 7.49228 16.3334 7.89152 16.3334C8.29075 16.3334 8.61439 16.0136 8.61439 15.6191L8.61439 11.8096C8.61439 11.4151 8.29075 11.0953 7.89152 11.0953C7.49228 11.0953 7.16864 11.4151 7.16864 11.8096L7.16864 15.6191Z" fill="#266CA8"/>
</svg>
