<svg
  width="40"
  height="40"
  viewBox="0 0 40 40"
  fill="none"
  xmlns="http://www.w3.org/2000/svg"
>
<rect width="40" height="40" rx="20" fill="white" />
<path
    d="M23.5 15.5C23.5 17.433 21.933 19 20 19C18.067 19 16.5 17.433 16.5 15.5C16.5 13.567 18.067 12 20 12C21.933 12 23.5 13.567 23.5 15.5Z"
    fill="#266CA8"
  />
<path
    d="M26 24.5C26 26.433 23.3137 28 20 28C16.6863 28 14 26.433 14 24.5C14 22.567 16.6863 21 20 21C23.3137 21 26 22.567 26 24.5Z"
    fill="#266CA8"
  />
<path
    d="M15.122 13C15.2995 13 15.4728 13.0174 15.6401 13.0506C15.2325 13.7745 15 14.6101 15 15.5C15 16.3683 15.2213 17.1848 15.6106 17.8964C15.4524 17.9258 15.2891 17.9413 15.122 17.9413C13.7076 17.9413 12.561 16.8351 12.561 15.4706C12.561 14.1061 13.7076 13 15.122 13Z"
    fill="#266CA8"
  />
<path
    d="M13.4473 26.986C12.8794 26.3071 12.5 25.474 12.5 24.5C12.5 23.5558 12.8566 22.744 13.3958 22.0767C11.4911 22.2245 10 23.2662 10 24.5294C10 25.8044 11.5173 26.8538 13.4473 26.986Z"
    fill="#266CA8"
  />
<path
    d="M24.9999 15.5C24.9999 16.3683 24.7786 17.1848 24.3893 17.8964C24.5475 17.9258 24.7108 17.9413 24.8779 17.9413C26.2923 17.9413 27.4389 16.8351 27.4389 15.4706C27.4389 14.1061 26.2923 13 24.8779 13C24.7004 13 24.5272 13.0174 24.3599 13.0506C24.7674 13.7745 24.9999 14.6101 24.9999 15.5Z"
    fill="#266CA8"
  />
<path
    d="M26.5526 26.986C28.4826 26.8538 29.9999 25.8044 29.9999 24.5294C29.9999 23.2662 28.5088 22.2245 26.6041 22.0767C27.1433 22.744 27.4999 23.5558 27.4999 24.5C27.4999 25.474 27.1205 26.3071 26.5526 26.986Z"
    fill="#266CA8"
  />
</svg>
